<svg width="320" height="297" viewBox="0 0 320 297" fill="none" xmlns="http://www.w3.org/2000/svg">
<g clip-path="url(#clip0_669_8910)">
<path d="M26.1797 284.956L32.2709 286.555L41.3402 263.82L32.3496 261.459L26.1797 284.956Z" fill="#A0616A"/>
<path d="M24.293 291.254L43.0252 296.173L43.0874 295.936C43.5951 294.002 43.314 291.946 42.3057 290.22C41.2975 288.493 39.6449 287.238 37.7112 286.73L37.7108 286.73L34.9709 283.236L27.905 284.155L26.2698 283.726L24.293 291.254Z" fill="#2F2E41"/>
<path d="M57.4037 289.513L63.7018 289.512L66.698 265.22L57.4023 265.22L57.4037 289.513Z" fill="#A0616A"/>
<path d="M57.18 296.083L76.5473 296.082V295.837C76.5472 293.838 75.7529 291.921 74.3392 290.507C72.9256 289.093 71.0083 288.299 69.009 288.299H69.0086L65.4709 285.615L58.8703 288.299L57.1797 288.3L57.18 296.083Z" fill="#2F2E41"/>
<path d="M41.6538 173.262C40.1324 175.164 40.8931 181.63 40.8931 181.63C40.8931 181.63 38.2307 202.549 39.3717 204.451C40.5128 206.353 38.611 207.874 37.47 210.536C36.329 213.199 35.1879 219.665 35.1879 219.665C28.722 224.989 29.1024 249.332 29.1024 249.332L26.8203 271.011C27.581 273.294 38.2307 273.674 39.7521 273.294C41.2735 272.913 56.107 219.284 56.107 219.284C56.107 219.284 55.3463 271.011 55.3463 273.294C55.3463 275.576 65.6156 274.435 67.8977 274.435C70.1798 274.435 84.633 181.25 84.633 181.25V175.925L82.7312 173.262C82.7312 173.262 43.1752 171.361 41.6538 173.262Z" fill="#2F2E41"/>
<path d="M58.3884 103.659C64.9002 103.659 70.1791 98.3801 70.1791 91.8683C70.1791 85.3564 64.9002 80.0776 58.3884 80.0776C51.8766 80.0776 46.5977 85.3564 46.5977 91.8683C46.5977 98.3801 51.8766 103.659 58.3884 103.659Z" fill="#A0616A"/>
<path d="M42.5462 181.674L42.4819 181.584C39.0472 176.775 44.2129 165.22 44.992 163.545C44.0669 163.245 43.2744 162.633 42.7495 161.815C42.2247 160.996 41.9999 160.02 42.1136 159.054L42.4494 156.199L42.7995 153.399L40.2915 150.891L40.2844 150.828L38.8411 138.199L36.7425 129.81C35.9517 126.639 36.0191 123.315 36.9377 120.179C37.8563 117.042 39.593 114.207 41.9695 111.963L46.8204 111.193L52.7157 105.513H62.2226L65.4824 108.627C71.8911 113.88 73.4124 111.598 80.639 121.487L75.4648 135.119L78.3569 155.226L78.3587 158.864L79.865 160.538C80.4077 161.141 80.8019 161.863 81.0165 162.645C81.231 163.428 81.2599 164.249 81.1008 165.045L80.9027 166.035C81.6683 166.363 82.3441 166.87 82.8734 167.513C83.4026 168.157 83.7699 168.917 83.9445 169.732L84.4735 172.201C84.9262 172.798 87.9138 176.782 87.9138 177.871C87.9138 178.034 87.7931 178.192 87.5341 178.367C85.4981 179.746 74.2444 182.557 69.2637 180.564C63.9583 178.442 42.8682 181.625 42.6558 181.657L42.5462 181.674Z" fill="#3F3D56"/>
<path d="M36.5547 133.845L46.3584 131.926C49.9841 137.34 51.9305 152.146 51.9305 152.146L62.7696 174.625C63.4358 175.029 63.9829 175.603 64.3551 176.288C64.7272 176.973 64.9112 177.745 64.8883 178.524C64.8654 179.303 64.6364 180.062 64.2246 180.724C63.8128 181.386 63.2329 181.927 62.5441 182.292C61.8552 182.657 61.0819 182.833 60.303 182.801C59.5241 182.77 58.7674 182.533 58.1099 182.114C57.4525 181.695 56.9177 181.11 56.5602 180.417C56.2027 179.724 56.0352 178.949 56.0747 178.171L41.9377 151.537L36.5547 133.845Z" fill="#A0616A"/>
<path d="M36.5014 136.171L36.2227 121.6L40.8362 115.428C41.7464 114.219 42.9764 113.289 44.3872 112.743C45.798 112.197 47.3335 112.057 48.82 112.338C50.8325 112.732 52.6202 113.875 53.8218 115.537C55.0233 117.199 55.5489 119.255 55.2923 121.29C54.5093 127.46 52.7314 135.181 48.7092 136.928L48.6685 136.946L52.8371 151.525L37.3779 153.685L36.5014 136.171Z" fill="#3F3D56"/>
<path d="M94.7275 134.883C94.7275 134.883 82.9623 125.687 76.5813 124.366L70.9336 132.606L86.2077 141.967L115.946 150.565C116.466 151.144 117.131 151.574 117.872 151.812C118.612 152.051 119.403 152.089 120.163 151.923C120.924 151.757 121.627 151.393 122.201 150.868C122.775 150.342 123.2 149.674 123.432 148.932C123.665 148.189 123.697 147.398 123.525 146.639C123.353 145.88 122.983 145.18 122.453 144.61C121.923 144.04 121.252 143.621 120.507 143.394C119.763 143.168 118.971 143.142 118.214 143.32L94.7275 134.883Z" fill="#A0616A"/>
<path d="M74.0262 136.731L61.7651 128.853L59.2049 121.585C58.7074 120.157 58.6195 118.617 58.9511 117.141C59.2826 115.665 60.0203 114.311 61.0809 113.233C62.5285 111.78 64.4737 110.931 66.5231 110.858C68.5726 110.785 70.5734 111.492 72.121 112.838C76.8113 116.922 82.8558 118.291 82.0686 122.605L84.3268 122.935L95.8743 131.705L89.0646 145.75L74.0262 136.731Z" fill="#3F3D56"/>
<path d="M45.0131 84.1209C46.3371 82.0727 48.8216 80.7076 51.2302 81.0912C51.4543 79.5541 52.0959 78.1079 53.0851 76.9102C54.0742 75.7125 55.373 74.8091 56.84 74.2984C58.3071 73.7878 59.8861 73.6894 61.4051 74.0139C62.9242 74.3385 64.3251 75.0736 65.4553 76.1392C65.827 75.8776 66.26 75.7163 66.7123 75.671C67.1646 75.6257 67.6209 75.698 68.0371 75.8809C68.866 76.2578 69.5872 76.8367 70.1345 77.5645C71.5166 79.288 72.4055 81.354 72.7065 83.5427C73.0075 85.7313 72.7095 87.9605 71.8441 89.9932C72.1384 88.9231 71.066 87.9164 69.9824 87.6763C68.899 87.4361 67.7624 87.6633 66.6636 87.5069C65.2553 87.3065 63.9894 86.4896 62.5789 86.3057C61.3828 86.2279 60.1829 86.3821 59.0453 86.7598C57.908 87.1374 56.7099 87.2983 55.5132 87.2341C54.326 87.0932 52.7968 91.5921 52.8173 94.7609C52.8213 95.3614 52.6976 96.1324 52.1107 96.2598C51.388 96.4168 50.9692 95.4193 50.2813 95.1475C49.9643 95.0566 49.6244 95.0924 49.3332 95.2472C49.042 95.4021 48.8223 95.6639 48.7204 95.9775C48.6337 96.2964 48.6244 96.6314 48.6933 96.9545C48.7622 97.2777 48.9073 97.5798 49.1165 97.8355C49.5393 98.3426 50.0413 98.778 50.603 99.125L50.3197 99.3606C49.8484 99.9832 48.8709 100.01 48.1916 99.625C47.5421 99.1851 47.0161 98.5862 46.6637 97.8853C45.4071 95.7952 44.3048 93.5682 43.8613 91.17C43.4178 88.7717 43.6893 86.1692 45.0131 84.1209Z" fill="#2F2E41"/>
<path d="M319.537 17.0248H25.0251C24.9015 17.022 24.7839 16.971 24.6974 16.8826C24.6109 16.7942 24.5625 16.6755 24.5625 16.5518C24.5625 16.4282 24.6109 16.3095 24.6974 16.2211C24.7839 16.1327 24.9015 16.0816 25.0251 16.0789H319.537C319.661 16.0816 319.778 16.1327 319.865 16.2211C319.951 16.3095 320 16.4282 320 16.5518C320 16.6755 319.951 16.7942 319.865 16.8826C319.778 16.971 319.661 17.022 319.537 17.0248Z" fill="#CACACA"/>
<path d="M35.4402 10.404C38.2505 10.404 40.5288 8.075 40.5288 5.20202C40.5288 2.32903 38.2505 1.52588e-05 35.4402 1.52588e-05C32.6298 1.52588e-05 30.3516 2.32903 30.3516 5.20202C30.3516 8.075 32.6298 10.404 35.4402 10.404Z" fill="#3F3D56"/>
<path d="M53.0183 10.404C55.8286 10.404 58.1069 8.075 58.1069 5.20202C58.1069 2.32903 55.8286 1.52588e-05 53.0183 1.52588e-05C50.2079 1.52588e-05 47.9297 2.32903 47.9297 5.20202C47.9297 8.075 50.2079 10.404 53.0183 10.404Z" fill="#3F3D56"/>
<path d="M70.5964 10.404C73.4068 10.404 75.685 8.075 75.685 5.20202C75.685 2.32903 73.4068 1.52588e-05 70.5964 1.52588e-05C67.7861 1.52588e-05 65.5078 2.32903 65.5078 5.20202C65.5078 8.075 67.7861 10.404 70.5964 10.404Z" fill="#3F3D56"/>
<path d="M309 1.28938H296.513C296.265 1.2943 296.03 1.39606 295.856 1.57284C295.683 1.74962 295.586 1.98732 295.586 2.23488C295.586 2.48244 295.683 2.72013 295.856 2.89691C296.03 3.07369 296.265 3.17546 296.513 3.18037H309C309.247 3.17546 309.483 3.07369 309.656 2.89691C309.83 2.72013 309.927 2.48244 309.927 2.23488C309.927 1.98732 309.83 1.74962 309.656 1.57284C309.483 1.39606 309.247 1.2943 309 1.28938Z" fill="#3F3D56"/>
<path d="M309 4.83852H296.513C296.265 4.84343 296.03 4.9452 295.856 5.12198C295.683 5.29876 295.586 5.53645 295.586 5.78401C295.586 6.03157 295.683 6.26926 295.856 6.44604C296.03 6.62282 296.265 6.72459 296.513 6.72951H309C309.247 6.72459 309.483 6.62282 309.656 6.44604C309.83 6.26926 309.927 6.03157 309.927 5.78401C309.927 5.53645 309.83 5.29876 309.656 5.12198C309.483 4.9452 309.247 4.84343 309 4.83852Z" fill="#3F3D56"/>
<path d="M309 8.38295H296.513C296.265 8.38786 296.03 8.48963 295.856 8.66641C295.683 8.84319 295.586 9.08089 295.586 9.32845C295.586 9.576 295.683 9.81369 295.856 9.99047C296.03 10.1673 296.265 10.269 296.513 10.2739H309C309.247 10.269 309.483 10.1673 309.656 9.99047C309.83 9.81369 309.927 9.576 309.927 9.32845C309.927 9.08089 309.83 8.84319 309.656 8.66641C309.483 8.48963 309.247 8.38786 309 8.38295Z" fill="#3F3D56"/>
<path d="M293.14 35.8121H51.4239C50.0855 35.8141 48.8024 36.3467 47.856 37.2931C46.9096 38.2395 46.377 39.5226 46.375 40.861V41.6752C46.377 43.0136 46.9096 44.2967 47.856 45.2431C48.8024 46.1895 50.0855 46.7221 51.4239 46.7241H293.14C294.479 46.7221 295.762 46.1895 296.708 45.2431C297.655 44.2967 298.187 43.0136 298.189 41.6752V40.861C298.187 39.5226 297.655 38.2395 296.708 37.2931C295.762 36.3467 294.479 35.8141 293.14 35.8121Z" fill="#F0F0F0"/>
<path d="M80.5922 43.2827H57.5836C57.0683 43.2827 56.5741 43.078 56.2097 42.7137C55.8453 42.3493 55.6406 41.8551 55.6406 41.3398C55.6406 40.8245 55.8453 40.3303 56.2097 39.9659C56.5741 39.6016 57.0683 39.3969 57.5836 39.3969H80.5922C83.0979 39.3619 83.1229 43.318 80.5922 43.2827Z" fill="white"/>
<path d="M149.424 43.2827H126.416C125.9 43.2827 125.406 43.078 125.042 42.7137C124.677 42.3493 124.473 41.8551 124.473 41.3398C124.473 40.8245 124.677 40.3303 125.042 39.9659C125.406 39.6016 125.9 39.3969 126.416 39.3969H149.424C151.93 39.3619 151.955 43.318 149.424 43.2827Z" fill="white"/>
<path d="M218.252 43.2827H195.244C194.728 43.2827 194.234 43.078 193.87 42.7137C193.505 42.3493 193.301 41.8551 193.301 41.3398C193.301 40.8245 193.505 40.3303 193.87 39.9659C194.234 39.6016 194.728 39.3969 195.244 39.3969H218.252C220.758 39.3619 220.783 43.318 218.252 43.2827Z" fill="white"/>
<path d="M283.514 43.4926H260.505C259.99 43.4926 259.496 43.2879 259.132 42.9235C258.767 42.5591 258.562 42.0649 258.562 41.5496C258.562 41.0343 258.767 40.5401 259.132 40.1758C259.496 39.8114 259.99 39.6067 260.505 39.6067H283.514C286.02 39.5717 286.045 43.5279 283.514 43.4926Z" fill="#2B5293"/>
<path d="M247.613 35.8121H246.773V46.7241H247.613V35.8121Z" fill="white"/>
<path d="M126.094 142.019C126.06 142.019 126.025 142.019 125.991 142.017C125.587 142.003 125.192 141.89 124.84 141.691C124.489 141.491 124.191 141.209 123.972 140.869C122.33 138.415 120.315 136.233 118.001 134.401C116.599 133.281 115.135 132.24 113.719 131.232C110.066 128.635 106.625 126.188 104.716 122.808C100.552 115.437 105.455 105.17 112.461 100.565C120.318 95.4014 130.653 94.5913 140.651 94.4852C141.69 94.4742 142.73 94.4687 143.77 94.4688C161.784 94.4757 179.76 96.1194 197.477 99.3796C203.368 100.467 209.535 101.798 214.49 105.029C219.416 108.241 222.411 113.3 222.118 117.917C221.692 124.656 214.547 129.692 208.042 131.009C201.841 132.263 195.399 131.415 188.579 130.518C187.074 130.32 185.517 130.115 183.978 129.937C167.248 128.003 135.819 133.964 134.489 134.218L133.17 134.471L128.052 141.058C127.821 141.358 127.525 141.601 127.185 141.768C126.846 141.934 126.472 142.021 126.094 142.019Z" fill="#2B5293"/>
<path d="M200.595 109.141H129.882C129.474 109.141 129.083 108.979 128.794 108.69C128.506 108.402 128.344 108.01 128.344 107.602C128.344 107.194 128.506 106.803 128.794 106.515C129.083 106.226 129.474 106.064 129.882 106.064H200.595C201.003 106.064 201.394 106.226 201.683 106.515C201.971 106.803 202.133 107.194 202.133 107.602C202.133 108.01 201.971 108.402 201.683 108.69C201.394 108.979 201.003 109.141 200.595 109.141Z" fill="white"/>
<path d="M200.593 118.585H129.88C129.678 118.585 129.478 118.545 129.291 118.468C129.104 118.391 128.935 118.278 128.792 118.135C128.649 117.993 128.535 117.823 128.458 117.637C128.38 117.45 128.34 117.25 128.34 117.048C128.34 116.846 128.379 116.646 128.456 116.459C128.533 116.272 128.647 116.103 128.789 115.959C128.932 115.816 129.102 115.703 129.288 115.625C129.475 115.548 129.675 115.508 129.877 115.508H200.593C201.001 115.508 201.392 115.67 201.681 115.958C201.969 116.247 202.131 116.638 202.131 117.046C202.131 117.454 201.969 117.846 201.681 118.134C201.392 118.423 201.001 118.585 200.593 118.585Z" fill="white"/>
<path d="M138.123 128.028H129.882C129.474 128.028 129.083 127.866 128.794 127.578C128.506 127.289 128.344 126.898 128.344 126.49C128.344 126.082 128.506 125.691 128.794 125.402C129.083 125.113 129.474 124.951 129.882 124.951H138.123C138.531 124.951 138.922 125.113 139.211 125.402C139.499 125.691 139.661 126.082 139.661 126.49C139.661 126.898 139.499 127.289 139.211 127.578C138.922 127.866 138.531 128.028 138.123 128.028Z" fill="white"/>
<path d="M252.373 191.196L248.296 185.95L247.246 185.749C246.186 185.546 221.152 180.798 207.826 182.339C206.6 182.48 205.36 182.644 204.161 182.801C198.728 183.516 193.597 184.191 188.658 183.192C183.476 182.143 177.785 178.132 177.445 172.764C177.213 169.086 179.598 165.057 183.521 162.498C187.469 159.925 192.381 158.864 197.073 157.998C211.185 155.401 225.504 154.092 239.853 154.087C240.682 154.087 241.51 154.091 242.338 154.1C250.301 154.184 258.534 154.829 264.792 158.943C270.372 162.61 274.278 170.788 270.961 176.66C269.44 179.352 266.7 181.301 263.79 183.37C262.662 184.173 261.496 185.002 260.379 185.894C258.536 187.354 256.931 189.092 255.623 191.046C255.449 191.317 255.211 191.541 254.931 191.701C254.651 191.86 254.337 191.949 254.015 191.961C253.987 191.962 253.96 191.962 253.933 191.962C253.631 191.964 253.334 191.895 253.063 191.762C252.793 191.629 252.557 191.436 252.373 191.196Z" fill="#F2F2F2"/>
<path d="M194.586 165.774H250.912C251.237 165.773 251.548 165.644 251.777 165.414C252.006 165.184 252.135 164.873 252.135 164.548C252.135 164.223 252.006 163.912 251.777 163.682C251.548 163.453 251.237 163.323 250.912 163.323H194.586C194.262 163.323 193.951 163.453 193.721 163.682C193.492 163.912 193.363 164.223 193.363 164.548C193.363 164.873 193.492 165.184 193.721 165.414C193.951 165.644 194.262 165.773 194.586 165.774Z" fill="white"/>
<path d="M194.586 173.296H250.912C251.073 173.296 251.233 173.265 251.382 173.204C251.531 173.142 251.666 173.052 251.78 172.939C251.894 172.825 251.985 172.69 252.047 172.541C252.109 172.392 252.141 172.233 252.141 172.072C252.141 171.911 252.109 171.751 252.048 171.602C251.986 171.453 251.896 171.318 251.782 171.204C251.668 171.09 251.533 171 251.384 170.938C251.235 170.876 251.076 170.845 250.914 170.845H194.586C194.262 170.846 193.951 170.975 193.721 171.205C193.492 171.434 193.363 171.746 193.363 172.07C193.363 172.395 193.492 172.706 193.721 172.936C193.951 173.166 194.262 173.295 194.586 173.296Z" fill="white"/>
<path d="M244.347 180.818H250.911C251.236 180.818 251.547 180.689 251.777 180.459C252.007 180.229 252.136 179.918 252.136 179.593C252.136 179.268 252.007 178.956 251.777 178.726C251.547 178.496 251.236 178.367 250.911 178.367H244.347C244.022 178.367 243.71 178.496 243.48 178.726C243.25 178.956 243.121 179.268 243.121 179.593C243.121 179.918 243.25 180.229 243.48 180.459C243.71 180.689 244.022 180.818 244.347 180.818Z" fill="white"/>
<path d="M126.967 152.746C131.097 152.746 134.446 149.397 134.446 145.267C134.446 141.137 131.097 137.788 126.967 137.788C122.837 137.788 119.488 141.137 119.488 145.267C119.488 149.397 122.837 152.746 126.967 152.746Z" fill="white"/>
<path d="M126.968 152.837C125.471 152.837 124.008 152.393 122.763 151.561C121.518 150.729 120.548 149.547 119.975 148.164C119.402 146.781 119.252 145.259 119.544 143.79C119.836 142.322 120.557 140.973 121.616 139.914C122.674 138.856 124.023 138.135 125.492 137.842C126.96 137.55 128.482 137.7 129.865 138.273C131.249 138.846 132.431 139.816 133.263 141.061C134.094 142.306 134.538 143.77 134.538 145.267C134.536 147.274 133.738 149.198 132.319 150.617C130.9 152.036 128.975 152.835 126.968 152.837Z" fill="#3F3D56"/>
<path d="M126.409 148.256C126.393 148.256 126.377 148.255 126.361 148.255C126.22 148.248 126.082 148.211 125.957 148.146C125.832 148.081 125.722 147.989 125.636 147.878L124.386 146.271C124.307 146.17 124.249 146.054 124.215 145.93C124.181 145.806 124.171 145.676 124.187 145.549C124.203 145.421 124.244 145.298 124.308 145.187C124.371 145.075 124.456 144.977 124.557 144.898L124.602 144.863C124.704 144.784 124.82 144.726 124.944 144.692C125.068 144.657 125.197 144.648 125.325 144.664C125.452 144.68 125.575 144.721 125.687 144.784C125.799 144.848 125.897 144.933 125.976 145.034C126.039 145.116 126.119 145.182 126.21 145.229C126.301 145.277 126.402 145.304 126.504 145.309C126.607 145.314 126.709 145.297 126.805 145.258C126.9 145.22 126.986 145.162 127.057 145.087L129.594 142.408C129.773 142.22 130.019 142.11 130.278 142.103C130.538 142.096 130.789 142.192 130.978 142.37L131.019 142.41C131.113 142.499 131.188 142.604 131.24 142.722C131.292 142.839 131.321 142.966 131.325 143.094C131.328 143.223 131.306 143.35 131.26 143.47C131.214 143.59 131.145 143.7 131.057 143.793L127.119 147.95C127.027 148.047 126.917 148.124 126.795 148.176C126.673 148.229 126.542 148.256 126.409 148.256Z" fill="white"/>
<path d="M254.381 202.343C258.511 202.343 261.86 198.994 261.86 194.864C261.86 190.734 258.511 187.385 254.381 187.385C250.251 187.385 246.902 190.734 246.902 194.864C246.902 198.994 250.251 202.343 254.381 202.343Z" fill="white"/>
<path d="M254.382 202.434C252.885 202.434 251.422 201.99 250.177 201.158C248.932 200.327 247.962 199.144 247.389 197.761C246.816 196.378 246.666 194.856 246.958 193.387C247.25 191.919 247.971 190.57 249.03 189.511C250.088 188.453 251.437 187.732 252.906 187.44C254.374 187.148 255.896 187.297 257.279 187.87C258.663 188.443 259.845 189.414 260.677 190.658C261.508 191.903 261.952 193.367 261.952 194.864C261.95 196.871 261.152 198.795 259.733 200.214C258.314 201.634 256.389 202.432 254.382 202.434Z" fill="#E6E6E6"/>
<path d="M253.823 197.853C253.807 197.853 253.791 197.852 253.775 197.852C253.634 197.845 253.496 197.808 253.371 197.743C253.246 197.678 253.136 197.586 253.05 197.475L251.8 195.868C251.721 195.767 251.663 195.651 251.629 195.527C251.595 195.403 251.585 195.274 251.601 195.146C251.617 195.019 251.658 194.895 251.722 194.784C251.785 194.672 251.87 194.574 251.972 194.495L252.016 194.46C252.118 194.381 252.234 194.323 252.358 194.289C252.482 194.255 252.611 194.245 252.739 194.261C252.866 194.277 252.989 194.318 253.101 194.382C253.213 194.445 253.311 194.53 253.39 194.632C253.453 194.713 253.533 194.779 253.624 194.826C253.715 194.874 253.816 194.901 253.918 194.906C254.021 194.911 254.123 194.894 254.219 194.855C254.314 194.817 254.4 194.759 254.471 194.684L257.008 192.005C257.187 191.817 257.433 191.707 257.692 191.7C257.952 191.693 258.203 191.789 258.392 191.968L258.433 192.007C258.527 192.096 258.602 192.202 258.654 192.319C258.706 192.436 258.735 192.563 258.739 192.691C258.742 192.82 258.72 192.948 258.674 193.068C258.628 193.188 258.559 193.297 258.471 193.391L254.533 197.547C254.441 197.644 254.331 197.721 254.209 197.773C254.087 197.826 253.956 197.853 253.823 197.853Z" fill="white"/>
<path d="M116.159 288.739L112.568 282.968L111.851 286.266C111.725 286.844 111.599 287.43 111.483 288.013C110.463 287.142 109.377 286.336 108.316 285.563C105.055 283.197 101.796 280.828 98.5391 278.455L99.5591 284.37C100.188 288.013 100.845 291.729 102.4 295.06C102.573 295.437 102.759 295.81 102.959 296.173H118.115C118.237 295.835 118.321 295.485 118.367 295.13C118.37 295.106 118.372 295.083 118.371 295.06C118.609 292.801 117.361 290.672 116.159 288.739Z" fill="#F0F0F0"/>
<path d="M128.987 296.74L0.552978 296.883C0.406174 296.883 0.265524 296.824 0.161868 296.72C0.058212 296.616 0 296.475 0 296.329C0 296.182 0.058212 296.041 0.161868 295.937C0.265524 295.833 0.406174 295.774 0.552978 295.774L128.987 295.631C129.06 295.631 129.132 295.645 129.199 295.673C129.267 295.7 129.328 295.741 129.38 295.793C129.432 295.844 129.473 295.905 129.501 295.973C129.528 296.04 129.543 296.112 129.543 296.185C129.543 296.258 129.528 296.331 129.501 296.398C129.473 296.465 129.432 296.527 129.38 296.578C129.328 296.63 129.267 296.67 129.199 296.698C129.132 296.726 129.06 296.74 128.987 296.74Z" fill="#CACACA"/>
</g>
<defs>
<clipPath id="clip0_669_8910">
<rect width="320" height="296.883" fill="white"/>
</clipPath>
</defs>
</svg>
