<svg width="400" height="312" viewBox="0 0 400 312" fill="none" xmlns="http://www.w3.org/2000/svg">
<g clip-path="url(#clip0_666_8360)">
<path d="M155.302 215.035C153.149 215.792 150.838 215.982 148.592 215.586C146.345 215.189 144.238 214.22 142.473 212.772C137.98 208.996 136.572 202.775 135.425 197.014L132.035 179.976L139.133 184.87C144.238 188.389 149.457 192.021 152.991 197.119C156.525 202.216 158.068 209.175 155.229 214.691" fill="#E6E6E6"/>
<path d="M154.694 235.663C155.412 230.423 156.151 225.116 155.647 219.82C155.2 215.117 153.767 210.523 150.849 206.756C149.301 204.761 147.416 203.051 145.281 201.704C144.724 201.352 144.211 202.235 144.766 202.586C148.461 204.924 151.319 208.377 152.927 212.446C154.704 216.972 154.99 221.905 154.683 226.712C154.498 229.619 154.106 232.507 153.71 235.391C153.679 235.522 153.699 235.659 153.765 235.776C153.831 235.892 153.939 235.98 154.067 236.02C154.197 236.055 154.336 236.037 154.453 235.97C154.571 235.904 154.657 235.793 154.694 235.663Z" fill="#F2F2F2"/>
<path d="M147.776 226.391C146.853 227.796 145.584 228.939 144.092 229.71C142.599 230.481 140.934 230.855 139.255 230.794C134.942 230.589 131.346 227.575 128.109 224.713L118.535 216.249L124.872 215.945C129.429 215.727 134.103 215.523 138.443 216.93C142.784 218.337 146.786 221.724 147.58 226.222" fill="#E6E6E6"/>
<path d="M156.723 238.675C153.265 232.549 149.254 225.74 142.088 223.564C140.095 222.961 138.006 222.745 135.932 222.927C135.278 222.984 135.441 223.992 136.094 223.936C139.57 223.647 143.039 224.566 145.917 226.538C148.687 228.426 150.844 231.051 152.669 233.834C153.787 235.539 154.789 237.316 155.791 239.091C156.111 239.658 157.047 239.249 156.723 238.675Z" fill="#F2F2F2"/>
<path d="M249.4 115.947L174.014 178.51C173.066 179.295 171.845 179.671 170.619 179.557C169.394 179.442 168.264 178.845 167.477 177.897L135.699 139.504C134.914 138.554 134.538 137.331 134.653 136.104C134.768 134.877 135.364 133.746 136.311 132.958L211.697 70.3959C212.645 69.6105 213.866 69.2339 215.092 69.3488C216.317 69.4637 217.447 70.0606 218.233 71.0086L250.012 109.402C250.796 110.352 251.173 111.574 251.058 112.801C250.943 114.028 250.347 115.16 249.4 115.947Z" fill="#CCCCCC"/>
<path d="M246.381 114.063L172.728 175.187C172.239 175.592 171.61 175.786 170.979 175.727C170.348 175.668 169.765 175.36 169.36 174.872L139.018 138.214C138.614 137.725 138.42 137.095 138.479 136.463C138.538 135.831 138.845 135.248 139.333 134.842L212.986 73.7179C213.475 73.3133 214.104 73.1193 214.735 73.1785C215.366 73.2376 215.948 73.5452 216.354 74.0335L246.696 110.691C247.1 111.181 247.294 111.811 247.235 112.443C247.176 113.075 246.868 113.658 246.381 114.063Z" fill="white"/>
<path d="M249.778 126.859L234.629 125.439L245.471 116.894L251.312 123.951C251.54 124.22 251.681 124.552 251.717 124.903C251.753 125.254 251.683 125.608 251.515 125.918C251.405 126.128 251.254 126.315 251.072 126.468C250.893 126.615 250.686 126.726 250.464 126.793C250.242 126.86 250.008 126.882 249.778 126.859Z" fill="#CCCCCC"/>
<path d="M219.353 99.689L182.093 130.611C181.866 130.799 181.603 130.942 181.321 131.029C181.038 131.116 180.742 131.147 180.447 131.119C180.153 131.092 179.867 131.006 179.606 130.868C179.344 130.73 179.113 130.541 178.924 130.314C178.735 130.086 178.594 129.823 178.506 129.54C178.419 129.257 178.388 128.96 178.416 128.665C178.444 128.371 178.529 128.084 178.667 127.822C178.805 127.561 178.993 127.329 179.221 127.14L216.481 96.2184C216.708 96.0295 216.971 95.8874 217.253 95.8001C217.535 95.7128 217.832 95.6821 218.127 95.7097C218.421 95.7373 218.707 95.8226 218.968 95.9609C219.23 96.0991 219.461 96.2876 219.65 96.5155C219.838 96.7433 219.98 97.0062 220.068 97.289C220.155 97.5718 220.185 97.8691 220.158 98.1637C220.13 98.4584 220.045 98.7448 219.907 99.0065C219.769 99.2682 219.581 99.5001 219.353 99.689Z" fill="#CCCCCC"/>
<path d="M201.121 102.382L175.992 123.236C175.532 123.617 174.94 123.8 174.346 123.744C173.751 123.689 173.203 123.399 172.823 122.939C172.442 122.478 172.259 121.885 172.314 121.29C172.37 120.695 172.66 120.146 173.119 119.765L198.248 98.9109C198.708 98.5295 199.3 98.3465 199.894 98.4022C200.488 98.4579 201.036 98.7478 201.417 99.208C201.798 99.6682 201.981 100.261 201.925 100.856C201.87 101.451 201.58 102 201.121 102.382Z" fill="#CCCCCC"/>
<path d="M162.186 145.031C166.071 145.031 169.22 141.878 169.22 137.988C169.22 134.098 166.071 130.945 162.186 130.945C158.302 130.945 155.152 134.098 155.152 137.988C155.152 141.878 158.302 145.031 162.186 145.031Z" fill="#2B5293"/>
<path d="M218.134 123.87C219.377 123.87 220.385 122.861 220.385 121.616C220.385 120.371 219.377 119.362 218.134 119.362C216.891 119.362 215.883 120.371 215.883 121.616C215.883 122.861 216.891 123.87 218.134 123.87Z" fill="#E6E6E6"/>
<path d="M224.2 118.836C225.443 118.836 226.451 117.827 226.451 116.582C226.451 115.338 225.443 114.329 224.2 114.329C222.957 114.329 221.949 115.338 221.949 116.582C221.949 117.827 222.957 118.836 224.2 118.836Z" fill="#E6E6E6"/>
<path d="M230.266 113.802C231.51 113.802 232.517 112.793 232.517 111.549C232.517 110.304 231.51 109.295 230.266 109.295C229.023 109.295 228.016 110.304 228.016 111.549C228.016 112.793 229.023 113.802 230.266 113.802Z" fill="#E6E6E6"/>
<path d="M194.391 234.75L199.559 234.75L202.017 214.792L194.391 214.792L194.391 234.75Z" fill="#FFB8B8"/>
<path d="M193.074 233.061L203.251 233.06H203.251C204.103 233.06 204.946 233.228 205.733 233.555C206.52 233.881 207.235 234.359 207.837 234.962C208.439 235.565 208.917 236.281 209.243 237.069C209.569 237.857 209.737 238.701 209.737 239.554V239.765L193.075 239.766L193.074 233.061Z" fill="#2F2E41"/>
<path d="M175.848 234.75L181.016 234.75L183.474 214.792L175.848 214.792L175.848 234.75Z" fill="#FFB8B8"/>
<path d="M174.527 233.061L184.704 233.06H184.704C185.556 233.06 186.399 233.228 187.186 233.555C187.973 233.881 188.688 234.359 189.29 234.962C189.892 235.565 190.37 236.281 190.696 237.069C191.022 237.857 191.19 238.701 191.19 239.554V239.765L174.528 239.766L174.527 233.061Z" fill="#2F2E41"/>
<path d="M181.03 228.644H181.029L176.635 228.642C176.143 228.644 175.67 228.454 175.316 228.112C174.962 227.77 174.756 227.304 174.74 226.812L174.602 222.962C173.491 192.178 172.342 160.345 179.456 146.037L179.512 145.925L203.065 145.071L207.794 188.505C207.996 190.357 207.922 192.23 207.575 194.061L201.324 227.043C201.239 227.49 200.997 227.892 200.641 228.176C200.286 228.459 199.84 228.605 199.386 228.587L194.45 228.427C194.192 228.417 193.938 228.354 193.705 228.242C193.471 228.13 193.263 227.971 193.094 227.776C192.924 227.58 192.796 227.352 192.717 227.105C192.639 226.859 192.611 226.598 192.637 226.34L196.514 195.835C196.646 194.518 196.527 193.189 196.162 191.917L191.34 175.037C191.3 174.897 191.214 174.776 191.095 174.693C190.976 174.609 190.833 174.569 190.688 174.58C190.543 174.59 190.407 174.649 190.301 174.749C190.195 174.848 190.126 174.98 190.106 175.124L182.908 227.006C182.844 227.459 182.618 227.874 182.274 228.175C181.929 228.476 181.487 228.642 181.03 228.644Z" fill="#2F2E41"/>
<path d="M183.848 101.647C189.566 101.647 194.201 97.0063 194.201 91.2813C194.201 85.5564 189.566 80.9153 183.848 80.9153C178.131 80.9153 173.496 85.5564 173.496 91.2813C173.496 97.0063 178.131 101.647 183.848 101.647Z" fill="#FFB8B8"/>
<path d="M201.962 148.277H180.54C180.268 148.277 179.999 148.219 179.751 148.105C179.504 147.992 179.284 147.826 179.105 147.62C178.927 147.414 178.796 147.172 178.719 146.91C178.643 146.648 178.624 146.373 178.663 146.104L179.722 138.846L173.507 121.73C172.866 119.963 172.627 118.075 172.809 116.204C172.992 114.332 173.59 112.526 174.56 110.916C175.531 109.307 176.849 107.935 178.418 106.902C179.986 105.869 181.766 105.201 183.627 104.947C186.277 104.576 188.977 105.066 191.329 106.343C193.682 107.62 195.565 109.618 196.702 112.044L198.067 114.952L203.827 146.032C203.878 146.306 203.868 146.588 203.797 146.858C203.727 147.127 203.598 147.378 203.42 147.592C203.242 147.807 203.019 147.979 202.767 148.098C202.515 148.216 202.24 148.277 201.962 148.277Z" fill="#2B5293"/>
<path d="M156.744 166.483C157.389 166.333 157.993 166.043 158.514 165.634C159.035 165.225 159.46 164.707 159.759 164.115C160.058 163.524 160.224 162.874 160.245 162.212C160.267 161.549 160.142 160.89 159.882 160.281L176.574 122.519L167.025 120.111L153.62 157.987C152.627 158.493 151.853 159.347 151.447 160.386C151.04 161.425 151.028 162.577 151.413 163.624C151.798 164.672 152.554 165.541 153.536 166.068C154.519 166.595 155.66 166.742 156.744 166.483Z" fill="#FFB8B8"/>
<path d="M174.312 129.273L165.025 124.92C164.761 124.796 164.526 124.617 164.338 124.394C164.149 124.171 164.01 123.91 163.931 123.629C163.852 123.348 163.835 123.053 163.88 122.764C163.925 122.476 164.032 122.2 164.193 121.956L169.837 113.421C170.478 112.072 171.627 111.032 173.032 110.53C174.437 110.027 175.984 110.103 177.334 110.741C178.684 111.378 179.726 112.525 180.232 113.93C180.739 115.336 180.668 116.885 180.036 118.238L177.118 128.014C177.034 128.294 176.891 128.553 176.699 128.772C176.506 128.992 176.269 129.167 176.003 129.287C175.736 129.406 175.448 129.467 175.156 129.464C174.864 129.462 174.576 129.397 174.312 129.273Z" fill="#2B5293"/>
<path d="M226.376 69.3107C226.577 69.9421 226.638 70.61 226.554 71.2674C226.47 71.9249 226.243 72.5559 225.889 73.116C225.535 73.6761 225.062 74.1517 224.505 74.5092C223.948 74.8667 223.319 75.0976 222.663 75.1854L198.819 108.88L191.863 101.9L217.488 70.9747C217.414 69.8612 217.75 68.7591 218.433 67.8772C219.116 66.9954 220.098 66.395 221.194 66.1899C222.289 65.9848 223.422 66.1892 224.377 66.7644C225.332 67.3396 226.043 68.2456 226.376 69.3107Z" fill="#FFB8B8"/>
<path d="M204.329 104.925C204.363 105.215 204.334 105.509 204.244 105.787C204.154 106.065 204.005 106.32 203.808 106.535L196.917 114.052C196.08 115.289 194.787 116.144 193.322 116.429C191.856 116.713 190.338 116.405 189.099 115.57C187.861 114.735 187.004 113.443 186.716 111.977C186.427 110.51 186.732 108.989 187.562 107.746L191.993 98.5215C192.119 98.2582 192.301 98.0253 192.525 97.8387C192.75 97.6521 193.012 97.5161 193.293 97.44C193.575 97.3639 193.87 97.3494 194.158 97.3977C194.445 97.4459 194.719 97.5557 194.961 97.7195L203.451 103.478C203.692 103.641 203.896 103.855 204.047 104.105C204.199 104.355 204.295 104.634 204.329 104.925Z" fill="#2B5293"/>
<path d="M197.448 86.9423C197.441 86.0042 197.311 85.071 197.061 84.167C195.393 77.9956 189.236 74.2915 183.057 75.2211C181.855 74.8761 180.611 74.7016 179.361 74.7029C176.18 74.7029 173.105 75.8416 170.69 77.9133C168.274 79.985 166.679 82.8532 166.19 85.9999L161.199 118.174H188.175L192.531 90.097C192.692 89.0535 192.73 87.9947 192.644 86.9423H197.448Z" fill="#2F2E41"/>
<path d="M230.978 240H142.043C141.931 240 141.824 239.956 141.745 239.876C141.666 239.797 141.621 239.69 141.621 239.578C141.621 239.466 141.666 239.359 141.745 239.28C141.824 239.2 141.931 239.156 142.043 239.156H230.978C231.09 239.156 231.197 239.2 231.276 239.28C231.355 239.359 231.4 239.466 231.4 239.578C231.4 239.69 231.355 239.797 231.276 239.876C231.197 239.956 231.09 240 230.978 240Z" fill="#CCCCCC"/>
<path d="M320.576 32.7796C321.193 32.7202 321.815 32.7969 322.399 33.0043C322.983 33.2117 323.515 33.5449 323.956 33.9802C324.398 34.4156 324.738 34.9426 324.954 35.5241C325.171 36.1056 325.257 36.7274 325.207 37.3459L338.993 43.4213L332.417 47.6717L320.333 41.2507C319.301 41.0979 318.361 40.5714 317.691 39.7709C317.021 38.9703 316.667 37.9514 316.697 36.9073C316.727 35.8631 317.138 34.8662 317.853 34.1054C318.568 33.3447 319.537 32.8729 320.576 32.7796Z" fill="#A0616A"/>
<path d="M376.184 25.2009C381.902 25.2009 386.537 20.5599 386.537 14.8349C386.537 9.10994 381.902 4.46893 376.184 4.46893C370.467 4.46893 365.832 9.10994 365.832 14.8349C365.832 20.5599 370.467 25.2009 376.184 25.2009Z" fill="#A0616A"/>
<path d="M357.45 162.643L352.282 162.643L349.824 142.685L357.451 142.685L357.45 162.643Z" fill="#A0616A"/>
<path d="M358.764 167.658L342.102 167.658V167.447C342.102 166.594 342.269 165.75 342.595 164.962C342.921 164.174 343.399 163.458 344.001 162.855C344.603 162.252 345.318 161.774 346.105 161.447C346.892 161.121 347.735 160.953 348.587 160.953L358.764 160.953L358.764 167.658Z" fill="#2F2E41"/>
<path d="M378.942 162.643L373.775 162.643L371.316 142.685L378.943 142.685L378.942 162.643Z" fill="#A0616A"/>
<path d="M380.26 167.658L363.598 167.658V167.447C363.598 166.594 363.765 165.75 364.091 164.962C364.417 164.174 364.895 163.458 365.497 162.855C366.099 162.252 366.814 161.774 367.601 161.447C368.388 161.121 369.231 160.953 370.083 160.953L380.26 160.953L380.26 167.658Z" fill="#2F2E41"/>
<path d="M378.702 158.392C378.624 158.392 378.547 158.387 378.47 158.378L370.906 157.445C370.463 157.391 370.053 157.182 369.749 156.855C369.445 156.528 369.266 156.104 369.244 155.658L367.04 105.956C367.032 105.815 366.978 105.68 366.885 105.574C366.792 105.467 366.667 105.395 366.528 105.368C366.39 105.341 366.247 105.361 366.121 105.425C365.995 105.49 365.895 105.594 365.835 105.722L360.173 124.623L359.007 154.984C358.997 155.246 358.933 155.503 358.819 155.738C358.705 155.974 358.543 156.184 358.344 156.354C358.145 156.524 357.913 156.652 357.663 156.728C357.413 156.804 357.149 156.827 356.889 156.797L350.339 156.025C349.871 155.971 349.439 155.744 349.13 155.388C348.82 155.032 348.654 154.573 348.665 154.101L349.221 125.523L353.658 80.6623L353.857 80.6697L380.842 81.7112L380.599 156.499C380.597 157.002 380.396 157.483 380.041 157.838C379.685 158.193 379.204 158.392 378.702 158.392Z" fill="#2F2E41"/>
<path d="M379.816 85.8105C379.8 85.8105 379.783 85.8105 379.767 85.8101L352.589 85.0971C352.323 85.0901 352.061 85.027 351.821 84.9119C351.58 84.7968 351.367 84.6322 351.194 84.4289C351.021 84.2257 350.893 83.9883 350.819 83.7322C350.744 83.4761 350.724 83.2071 350.759 82.9427L355.982 44.4554C356.308 41.8567 357.178 39.356 358.535 37.1167C359.891 34.8774 361.704 32.9497 363.856 31.4596C365.748 30.1553 367.897 29.2715 370.158 28.8678C372.42 28.464 374.742 28.5495 376.967 29.1186C386.454 31.5256 392.145 41.7253 389.653 51.8553L381.658 84.3655C381.555 84.777 381.318 85.1423 380.985 85.404C380.651 85.6656 380.24 85.8087 379.816 85.8105Z" fill="#2B5293"/>
<path d="M344.162 55.2482C342.372 55.2503 340.619 54.7289 339.12 53.7479L323.27 43.336C323.038 43.1836 322.843 42.9821 322.697 42.7457C322.551 42.5093 322.459 42.2438 322.427 41.9679C322.395 41.6919 322.423 41.4123 322.511 41.1487C322.599 40.885 322.743 40.6439 322.934 40.4422L325.321 37.9181C325.582 37.6415 325.919 37.4497 326.29 37.3679C326.661 37.2861 327.048 37.318 327.4 37.4594L345.104 44.5184L361.503 32.7913C362.27 32.243 363.142 31.86 364.065 31.6666C364.987 31.4733 365.939 31.4737 366.862 31.6678C367.784 31.862 368.656 32.2457 369.422 32.7947C370.188 33.3437 370.833 34.0459 371.314 34.8571C371.795 35.6682 372.103 36.5706 372.218 37.5071C372.334 38.4436 372.253 39.3938 371.983 40.2976C371.712 41.2014 371.257 42.0391 370.647 42.7578C370.036 43.4765 369.283 44.0604 368.435 44.4727L348.166 54.3307C346.918 54.936 345.549 55.2497 344.162 55.2482Z" fill="#2B5293"/>
<path d="M379.771 24.7481C381.537 25.1657 383.668 25.4861 384.93 24.1805C385.153 23.934 385.353 23.6669 385.527 23.3828L387.177 20.86C388.441 18.9275 389.727 16.9445 390.262 14.6973C390.57 13.406 390.618 12.0665 390.404 10.7564C390.19 9.44632 389.718 8.19188 389.016 7.06595C388.314 5.94001 387.395 4.96502 386.313 4.1976C385.232 3.43018 384.008 2.88564 382.715 2.59561C380.251 2.04322 377.84 1.09278 375.321 1.26615C372.802 1.43952 369.848 1.3826 367.734 0C367.866 0.616387 368.578 3.33985 368.578 3.33985C368.578 3.33985 365.399 6.25988 364.762 6.98798C365.596 6.61756 366.504 6.44364 367.416 6.47958C368.329 6.51552 369.22 6.76037 370.023 7.19531C370.826 7.63025 371.518 8.2437 372.048 8.98852C372.577 9.73334 372.928 10.5897 373.075 11.4918C373.255 12.6 373.149 13.8291 373.807 14.7387C374.432 15.6038 375.554 15.9069 376.497 16.4064C377.856 17.1817 378.894 18.4177 379.423 19.8915C379.952 21.3653 379.938 22.98 379.383 24.4443L379.771 24.7481Z" fill="#2F2E41"/>
<path d="M367.342 89.5231H281.53C280.451 89.5219 279.417 89.0923 278.654 88.3285C277.891 87.5647 277.462 86.5292 277.461 85.4491V41.7459C277.462 40.6657 277.891 39.6302 278.654 38.8664C279.417 38.1027 280.451 37.673 281.53 37.6718H367.342C368.421 37.673 369.455 38.1027 370.218 38.8664C370.98 39.6302 371.409 40.6657 371.411 41.7459V85.4491C371.409 86.5292 370.98 87.5647 370.218 88.3285C369.455 89.0923 368.421 89.5219 367.342 89.5231Z" fill="#CCCCCC"/>
<path d="M366.357 86.5602H282.518C281.962 86.5596 281.429 86.3382 281.036 85.9448C280.644 85.5513 280.422 85.0179 280.422 84.4614V42.7335C280.422 42.1771 280.644 41.6436 281.036 41.2502C281.429 40.8567 281.962 40.6354 282.518 40.6348H366.357C366.913 40.6354 367.446 40.8567 367.839 41.2502C368.232 41.6436 368.453 42.1771 368.453 42.7335V84.4614C368.453 85.0179 368.232 85.5513 367.839 85.9448C367.446 86.3382 366.913 86.5596 366.357 86.5602Z" fill="white"/>
<path d="M361.499 97.0955L352.07 87.6542L364.159 87.9602V95.9925C364.162 96.3017 364.072 96.6048 363.9 96.8619C363.729 97.1191 363.484 97.3183 363.197 97.4337C363.005 97.5141 362.799 97.5558 362.591 97.5564C362.388 97.5557 362.186 97.5147 361.999 97.4355C361.812 97.3564 361.642 97.2408 361.499 97.0955Z" fill="#CCCCCC"/>
<path d="M356.147 61.7262H313.734C313.211 61.7262 312.709 61.5181 312.34 61.1477C311.97 60.7772 311.762 60.2748 311.762 59.7509C311.762 59.227 311.97 58.7246 312.34 58.3542C312.709 57.9837 313.211 57.7756 313.734 57.7756H356.147C356.671 57.7756 357.172 57.9837 357.542 58.3542C357.912 58.7246 358.12 59.227 358.12 59.7509C358.12 60.2748 357.912 60.7772 357.542 61.1477C357.172 61.5181 356.671 61.7262 356.147 61.7262Z" fill="#CCCCCC"/>
<path d="M342.337 53.3313H313.733C313.474 53.3316 313.217 53.2808 312.978 53.1817C312.738 53.0826 312.52 52.9372 312.337 52.7537C312.153 52.5703 312.008 52.3524 311.908 52.1125C311.809 51.8727 311.758 51.6156 311.758 51.356C311.758 51.0963 311.809 50.8392 311.908 50.5994C312.008 50.3596 312.153 50.1417 312.337 49.9582C312.52 49.7747 312.738 49.6293 312.978 49.5302C313.217 49.4311 313.474 49.3803 313.733 49.3807H342.337C342.861 49.3807 343.362 49.5888 343.732 49.9592C344.102 50.3297 344.31 50.8321 344.31 51.356C344.31 51.8798 344.102 52.3823 343.732 52.7527C343.362 53.1231 342.861 53.3313 342.337 53.3313Z" fill="#CCCCCC"/>
<path d="M296.176 61.7262C299.581 61.7262 302.341 58.9626 302.341 55.5535C302.341 52.1443 299.581 49.3807 296.176 49.3807C292.772 49.3807 290.012 52.1443 290.012 55.5535C290.012 58.9626 292.772 61.7262 296.176 61.7262Z" fill="#2B5293"/>
<path d="M343.078 77.8143C344.168 77.8143 345.051 76.9299 345.051 75.839C345.051 74.7481 344.168 73.8637 343.078 73.8637C341.989 73.8637 341.105 74.7481 341.105 75.839C341.105 76.9299 341.989 77.8143 343.078 77.8143Z" fill="#E6E6E6"/>
<path d="M349.984 77.8143C351.074 77.8143 351.957 76.9299 351.957 75.839C351.957 74.7481 351.074 73.8637 349.984 73.8637C348.895 73.8637 348.012 74.7481 348.012 75.839C348.012 76.9299 348.895 77.8143 349.984 77.8143Z" fill="#E6E6E6"/>
<path d="M356.887 77.8143C357.976 77.8143 358.859 76.9299 358.859 75.839C358.859 74.7481 357.976 73.8637 356.887 73.8637C355.797 73.8637 354.914 74.7481 354.914 75.839C354.914 76.9299 355.797 77.8143 356.887 77.8143Z" fill="#E6E6E6"/>
<path d="M366.013 84.3258C366.081 83.7091 366.284 83.1149 366.606 82.5849C366.928 82.055 367.363 81.6023 367.879 81.2587C368.395 80.915 368.98 80.6889 369.592 80.5961C370.205 80.5033 370.83 80.5461 371.425 80.7216L380.185 68.4528L382.994 75.7679L374.245 86.2971C373.884 87.2773 373.177 88.091 372.257 88.5841C371.338 89.0772 370.269 89.2153 369.255 88.9723C368.24 88.7293 367.35 88.1221 366.752 87.2657C366.155 86.4093 365.892 85.3633 366.013 84.3258Z" fill="#A0616A"/>
<path d="M376.047 83.6638C375.909 83.6753 375.77 83.6718 375.633 83.6534C375.358 83.6165 375.094 83.5196 374.861 83.3693C374.627 83.2191 374.43 83.0192 374.282 82.784L372.431 79.843C372.227 79.5219 372.125 79.1468 372.138 78.7667C372.15 78.3866 372.277 78.0192 372.502 77.7124L383.714 62.285L376.426 43.4717C375.775 41.8164 375.8 39.9713 376.495 38.3339C377.19 36.6966 378.499 35.3982 380.141 34.7186C381.069 34.329 382.072 34.1501 383.077 34.1948C384.082 34.2394 385.064 34.5066 385.954 34.977C386.844 35.4473 387.618 36.1093 388.222 36.9152C388.825 37.7212 389.243 38.651 389.445 39.6379L393.967 61.7421C394.281 63.301 394.189 64.9147 393.697 66.4271C393.206 67.9396 392.334 69.2994 391.164 70.3749L377.166 83.1737C376.857 83.4566 376.463 83.6289 376.047 83.6638Z" fill="#2B5293"/>
<path d="M399.576 168.674H310.64C310.528 168.674 310.421 168.629 310.342 168.55C310.263 168.471 310.219 168.363 310.219 168.251C310.219 168.14 310.263 168.032 310.342 167.953C310.421 167.874 310.528 167.829 310.64 167.829H399.576C399.688 167.829 399.795 167.874 399.874 167.953C399.953 168.032 399.997 168.14 399.997 168.251C399.997 168.363 399.953 168.471 399.874 168.55C399.795 168.629 399.688 168.674 399.576 168.674Z" fill="#CCCCCC"/>
<path d="M108.162 63.6351H22.35C21.2712 63.6339 20.2371 63.2043 19.4743 62.4405C18.7115 61.6768 18.2825 60.6412 18.2812 59.5611V15.8579C18.2825 14.7778 18.7115 13.7422 19.4743 12.9784C20.2371 12.2147 21.2712 11.7851 22.35 11.7838H108.162C109.241 11.7851 110.275 12.2147 111.038 12.9785C111.801 13.7422 112.23 14.7778 112.231 15.8579V59.5611C112.23 60.6412 111.801 61.6768 111.038 62.4405C110.275 63.2043 109.241 63.6339 108.162 63.6351Z" fill="#CCCCCC"/>
<path d="M107.174 60.6722H23.3343C22.7786 60.6716 22.2458 60.4502 21.8529 60.0568C21.4599 59.6633 21.2389 59.1299 21.2383 58.5734V16.8455C21.2389 16.2891 21.4599 15.7556 21.8529 15.3622C22.2458 14.9687 22.7786 14.7474 23.3343 14.7468H107.174C107.729 14.7474 108.262 14.9687 108.655 15.3622C109.048 15.7556 109.269 16.2891 109.27 16.8455V58.5734C109.269 59.1299 109.048 59.6633 108.655 60.0568C108.262 60.4502 107.729 60.6716 107.174 60.6722Z" fill="white"/>
<path d="M102.32 71.2075L92.8906 61.7662L104.979 62.0722V70.1045C104.982 70.4138 104.892 70.7168 104.721 70.974C104.549 71.2311 104.304 71.4304 104.017 71.5457C103.825 71.6262 103.619 71.6679 103.411 71.6684C103.208 71.6678 103.007 71.6267 102.819 71.5476C102.632 71.4685 102.462 71.3529 102.32 71.2075Z" fill="#CCCCCC"/>
<path d="M96.9677 35.8382H54.5547C54.0315 35.8382 53.5298 35.6301 53.1598 35.2597C52.7899 34.8892 52.582 34.3868 52.582 33.8629C52.582 33.339 52.7899 32.8366 53.1598 32.4662C53.5298 32.0957 54.0315 31.8876 54.5547 31.8876H96.9677C97.4909 31.8876 97.9926 32.0957 98.3626 32.4662C98.7325 32.8366 98.9403 33.339 98.9403 33.8629C98.9403 34.3868 98.7325 34.8892 98.3626 35.2597C97.9926 35.6301 97.4909 35.8382 96.9677 35.8382Z" fill="#CCCCCC"/>
<path d="M83.1588 27.4433H54.5547C54.0315 27.4433 53.5298 27.2352 53.1598 26.8647C52.7899 26.4943 52.582 25.9919 52.582 25.468C52.582 24.9441 52.7899 24.4417 53.1598 24.0713C53.5298 23.7008 54.0315 23.4927 54.5547 23.4927H83.1588C83.682 23.4927 84.1837 23.7008 84.5537 24.0713C84.9236 24.4417 85.1315 24.9441 85.1315 25.468C85.1315 25.9919 84.9236 26.4943 84.5537 26.8647C84.1837 27.2352 83.682 27.4433 83.1588 27.4433Z" fill="#CCCCCC"/>
<path d="M36.9967 35.8382C40.4014 35.8382 43.1614 33.0746 43.1614 29.6655C43.1614 26.2564 40.4014 23.4927 36.9967 23.4927C33.592 23.4927 30.832 26.2564 30.832 29.6655C30.832 33.0746 33.592 35.8382 36.9967 35.8382Z" fill="#2B5293"/>
<path d="M83.8985 51.9263C84.988 51.9263 85.8712 51.0419 85.8712 49.951C85.8712 48.8601 84.988 47.9757 83.8985 47.9757C82.809 47.9757 81.9258 48.8601 81.9258 49.951C81.9258 51.0419 82.809 51.9263 83.8985 51.9263Z" fill="#E6E6E6"/>
<path d="M90.8008 51.9263C91.8903 51.9263 92.7735 51.0419 92.7735 49.951C92.7735 48.8601 91.8903 47.9757 90.8008 47.9757C89.7113 47.9757 88.8281 48.8601 88.8281 49.951C88.8281 51.0419 89.7113 51.9263 90.8008 51.9263Z" fill="#E6E6E6"/>
<path d="M97.7032 51.9263C98.7927 51.9263 99.6759 51.0419 99.6759 49.951C99.6759 48.8601 98.7927 47.9757 97.7032 47.9757C96.6137 47.9757 95.7305 48.8601 95.7305 49.951C95.7305 51.0419 96.6137 51.9263 97.7032 51.9263Z" fill="#E6E6E6"/>
<path d="M104.602 7.58484C104.019 7.79499 103.489 8.13059 103.05 8.568C102.61 9.0054 102.272 9.53397 102.058 10.1165C101.845 10.699 101.762 11.3212 101.814 11.9394C101.867 12.5576 102.055 13.1567 102.364 13.6945L92.4922 25.0857L100.251 26.115L108.436 15.1399C109.304 14.5602 109.929 13.6819 110.194 12.6714C110.458 11.6609 110.343 10.5884 109.87 9.65714C109.398 8.72589 108.6 8.00057 107.629 7.61863C106.658 7.2367 105.581 7.22467 104.602 7.58484Z" fill="#FFB8B8"/>
<path d="M38.6916 12.1453C38.9021 12.7288 38.9824 13.3515 38.9266 13.9694C38.8708 14.5874 38.6804 15.1855 38.3688 15.7218C38.0572 16.2581 37.6319 16.7194 37.123 17.0734C36.614 17.4273 36.0338 17.6651 35.4231 17.7702L32.9666 32.6502L27.2227 27.3262L30.436 14.0122C30.3277 12.9732 30.6038 11.9306 31.212 11.0818C31.8201 10.2331 32.7181 9.63716 33.7357 9.40705C34.7533 9.17693 35.8198 9.32858 36.7332 9.83325C37.6466 10.3379 38.3434 11.1606 38.6916 12.1453Z" fill="#FFB8B8"/>
<path d="M54.118 162.643L59.2856 162.643L61.7437 142.685L54.1172 142.685L54.118 162.643Z" fill="#FFB8B8"/>
<path d="M52.8008 160.953L62.9773 160.953H62.9777C63.8294 160.953 64.6727 161.121 65.4596 161.447C66.2464 161.774 66.9613 162.252 67.5636 162.855C68.1658 163.458 68.6435 164.174 68.9694 164.962C69.2953 165.75 69.4631 166.594 69.4631 167.447V167.658L52.8011 167.658L52.8008 160.953Z" fill="#2F2E41"/>
<path d="M27.5633 162.643L32.7309 162.643L35.1891 142.685L27.5625 142.685L27.5633 162.643Z" fill="#FFB8B8"/>
<path d="M26.2461 160.953L36.4226 160.953H36.423C37.2747 160.953 38.118 161.121 38.9049 161.447C39.6917 161.774 40.4067 162.252 41.0089 162.855C41.6111 163.458 42.0888 164.174 42.4147 164.962C42.7406 165.75 42.9084 166.594 42.9084 167.447V167.658L26.2464 167.658L26.2461 160.953Z" fill="#2F2E41"/>
<path d="M53.0399 26.3816C58.7573 26.3816 63.3923 21.7406 63.3923 16.0156C63.3923 10.2906 58.7573 5.6496 53.0399 5.6496C47.3224 5.6496 42.6875 10.2906 42.6875 16.0156C42.6875 21.7406 47.3224 26.3816 53.0399 26.3816Z" fill="#FFB8B8"/>
<path d="M51.7976 156.013L50.9417 101.397C50.9395 101.242 50.881 101.094 50.7773 100.98C50.6736 100.866 50.5317 100.793 50.3784 100.777C50.2251 100.76 50.071 100.8 49.945 100.889C49.819 100.978 49.7299 101.11 49.6944 101.26L35.6623 154.682C35.5567 155.109 35.3078 155.487 34.9571 155.753C34.6064 156.019 34.1752 156.156 33.7357 156.141L26.0265 155.811C25.7644 155.8 25.5075 155.734 25.2721 155.619C25.0366 155.503 24.8276 155.339 24.6584 155.139C24.4892 154.938 24.3634 154.704 24.2889 154.452C24.2145 154.201 24.193 153.936 24.2259 153.675L36.1326 85.0255L36.157 84.8318L69.3212 86.4029L69.5376 86.4128L62.4259 156.127C62.3886 156.604 62.1733 157.05 61.823 157.376C61.4726 157.701 61.0126 157.883 60.5345 157.885H53.6942C53.1964 157.883 52.7191 157.686 52.3646 157.336C52.0102 156.986 51.8066 156.511 51.7976 156.013Z" fill="#2F2E41"/>
<path d="M77.992 91.0294L29.8665 87.0747C29.5761 87.0509 29.295 86.9604 29.0451 86.8101C28.7953 86.6599 28.5833 86.454 28.4258 86.2084C28.2683 85.9629 28.1694 85.6843 28.1369 85.3943C28.1043 85.1043 28.1389 84.8107 28.2381 84.5363L35.8169 63.5553L36.253 38.6531C36.2688 37.7492 36.4637 36.8573 36.8265 36.0294C37.1892 35.2014 37.7124 34.4538 38.366 33.8299C39.0195 33.206 39.7902 32.7183 40.6334 32.395C41.4766 32.0717 42.3756 31.9192 43.2781 31.9465L46.4785 29.0416H58.2044L59.2254 30.3819L67.3843 31.6374C68.8376 31.8671 70.1786 32.5586 71.2093 33.6099C72.24 34.6612 72.9058 36.0164 73.1083 37.4756L80.0269 88.8833C80.0629 89.1515 80.0413 89.4243 79.9635 89.6834C79.8857 89.9425 79.7535 90.182 79.5757 90.3859C79.398 90.5897 79.1788 90.7531 78.9328 90.8653C78.6869 90.9774 78.4198 91.0356 78.1496 91.036C78.0973 91.036 78.0447 91.0339 77.992 91.0294Z" fill="#2F2E41"/>
<path d="M68.6133 34.0514L89.1332 28.0314L98.4199 15.7886C98.6756 15.4514 99.0365 15.2095 99.4452 15.1012C99.854 14.9929 100.287 15.0245 100.676 15.191L106.474 17.6726C106.721 17.7784 106.943 17.9356 107.125 18.1338C107.307 18.332 107.445 18.5666 107.529 18.8222C107.614 19.0778 107.643 19.3484 107.615 19.6161C107.587 19.8838 107.503 20.1426 107.367 20.3751L100.427 32.3005C99.2971 34.2513 97.5769 35.7918 95.5152 36.6995L71.3798 47.3826L68.6133 34.0514Z" fill="#2F2E41"/>
<path d="M29.2476 43.0566C28.0213 42.172 27.0434 40.9859 26.4082 39.6127C25.773 38.2395 25.5019 36.7256 25.6212 35.217L26.5217 23.2697C26.5588 22.7925 26.7741 22.3469 27.1246 22.0214C27.4751 21.696 27.9352 21.5146 28.4132 21.5135H28.4299L35.2294 21.5741C35.508 21.5767 35.7826 21.6406 36.0337 21.7614C36.2847 21.8822 36.5062 22.0568 36.6823 22.273C36.8583 22.4891 36.9847 22.7415 37.0524 23.012C37.1201 23.2826 37.1274 23.5648 37.0739 23.8385L35.8123 30.2838L44.8155 34.093L37.234 48.8619L29.2476 43.0566Z" fill="#2F2E41"/>
<path d="M59.0629 3.58575C59.0629 3.58575 48.2367 -2.2513 42.3358 4.63766C36.4348 11.5266 44.584 22.2994 44.584 22.2994L56.1954 23.7658C56.1954 23.7658 56.6169 15.8623 59.3815 16.0157C62.1461 16.1692 70.732 6.19612 59.0629 3.58575Z" fill="#2F2E41"/>
<path d="M89.3572 168.251H0.421496C0.309709 168.251 0.202499 168.207 0.123453 168.128C0.0444072 168.049 0 167.941 0 167.829C0 167.717 0.0444072 167.61 0.123453 167.531C0.202499 167.452 0.309709 167.407 0.421496 167.407H89.3572C89.469 167.407 89.5762 167.452 89.6553 167.531C89.7343 167.61 89.7787 167.717 89.7787 167.829C89.7787 167.941 89.7343 168.049 89.6553 168.128C89.5762 168.207 89.469 168.251 89.3572 168.251Z" fill="#CCCCCC"/>
</g>
<path d="M22.3369 304.192C21.2009 304.192 20.1289 304.024 19.1209 303.688C18.1289 303.336 17.2969 302.784 16.6249 302.032C15.9529 301.264 15.5129 300.264 15.3049 299.032H18.3529C18.5449 299.656 18.8489 300.144 19.2649 300.496C19.6969 300.848 20.2009 301.096 20.7769 301.24C21.3529 301.368 21.9369 301.432 22.5289 301.432C23.0569 301.432 23.5529 301.368 24.0169 301.24C24.4969 301.096 24.8889 300.864 25.1929 300.544C25.5129 300.224 25.6729 299.8 25.6729 299.272C25.6729 298.872 25.5849 298.552 25.4089 298.312C25.2489 298.056 25.0169 297.848 24.7129 297.688C24.4249 297.512 24.0729 297.376 23.6569 297.28C23.2569 297.152 22.8249 297.04 22.3609 296.944C21.8969 296.848 21.4409 296.744 20.9929 296.632C20.5449 296.52 20.1209 296.376 19.7209 296.2C19.2089 296.024 18.7129 295.824 18.2329 295.6C17.7689 295.36 17.3609 295.072 17.0089 294.736C16.6729 294.4 16.4009 293.984 16.1929 293.488C15.9849 292.992 15.8809 292.4 15.8809 291.712C15.8809 290.928 16.0089 290.256 16.2649 289.696C16.5369 289.12 16.8889 288.648 17.3209 288.28C17.7689 287.912 18.2649 287.624 18.8089 287.416C19.3689 287.208 19.9449 287.056 20.5369 286.96C21.1449 286.864 21.7209 286.816 22.2649 286.816C23.3209 286.816 24.2809 286.992 25.1449 287.344C26.0249 287.696 26.7449 288.24 27.3049 288.976C27.8649 289.712 28.1849 290.656 28.2649 291.808H25.3609C25.2969 291.264 25.1049 290.832 24.7849 290.512C24.4649 290.176 24.0649 289.936 23.5849 289.792C23.1049 289.632 22.5849 289.552 22.0249 289.552C21.6409 289.552 21.2569 289.584 20.8729 289.648C20.5049 289.712 20.1689 289.824 19.8649 289.984C19.5769 290.144 19.3369 290.36 19.1449 290.632C18.9689 290.888 18.8809 291.216 18.8809 291.616C18.8809 291.968 18.9689 292.28 19.1449 292.552C19.3209 292.808 19.5609 293.024 19.8649 293.2C20.1849 293.376 20.5609 293.536 20.9929 293.68C21.5529 293.904 22.1609 294.072 22.8169 294.184C23.4889 294.296 24.1209 294.448 24.7129 294.64C25.2889 294.8 25.8169 295 26.2969 295.24C26.7929 295.464 27.2169 295.744 27.5689 296.08C27.9209 296.4 28.1929 296.8 28.3849 297.28C28.5929 297.744 28.6969 298.304 28.6969 298.96C28.6969 299.92 28.5209 300.736 28.1689 301.408C27.8329 302.064 27.3609 302.6 26.7529 303.016C26.1609 303.432 25.4809 303.736 24.7129 303.928C23.9609 304.104 23.1689 304.192 22.3369 304.192ZM36.9823 304.168C35.6703 304.168 34.5503 303.896 33.6223 303.352C32.7103 302.808 32.0143 302.056 31.5343 301.096C31.0703 300.12 30.8383 298.992 30.8383 297.712C30.8383 296.432 31.0783 295.304 31.5583 294.328C32.0543 293.336 32.7583 292.56 33.6703 292C34.5983 291.44 35.7103 291.16 37.0063 291.16C37.9663 291.16 38.8063 291.336 39.5263 291.688C40.2463 292.024 40.8463 292.488 41.3263 293.08C41.8223 293.672 42.1903 294.344 42.4303 295.096C42.6703 295.848 42.7823 296.64 42.7663 297.472C42.7503 297.664 42.7343 297.856 42.7183 298.048C42.7023 298.224 42.6783 298.416 42.6463 298.624H33.7663C33.8143 299.184 33.9583 299.696 34.1983 300.16C34.4543 300.624 34.8063 300.992 35.2543 301.264C35.7183 301.536 36.2943 301.672 36.9823 301.672C37.3823 301.672 37.7663 301.624 38.1343 301.528C38.5023 301.416 38.8223 301.256 39.0943 301.048C39.3823 300.84 39.5743 300.576 39.6703 300.256H42.5983C42.3903 301.168 42.0063 301.912 41.4463 302.488C40.8863 303.064 40.2143 303.488 39.4303 303.76C38.6623 304.032 37.8463 304.168 36.9823 304.168ZM33.8143 296.44H39.9103C39.9103 295.912 39.7903 295.432 39.5503 295C39.3103 294.568 38.9663 294.232 38.5183 293.992C38.0863 293.736 37.5583 293.608 36.9343 293.608C36.2623 293.608 35.7023 293.744 35.2543 294.016C34.8063 294.288 34.4623 294.64 34.2223 295.072C33.9823 295.504 33.8463 295.96 33.8143 296.44ZM45.0996 304V287.032H48.0276V304H45.0996ZM56.5292 304.168C55.2172 304.168 54.0972 303.896 53.1692 303.352C52.2572 302.808 51.5612 302.056 51.0812 301.096C50.6172 300.12 50.3852 298.992 50.3852 297.712C50.3852 296.432 50.6252 295.304 51.1052 294.328C51.6012 293.336 52.3052 292.56 53.2172 292C54.1452 291.44 55.2572 291.16 56.5532 291.16C57.5132 291.16 58.3532 291.336 59.0732 291.688C59.7932 292.024 60.3932 292.488 60.8732 293.08C61.3692 293.672 61.7372 294.344 61.9772 295.096C62.2172 295.848 62.3292 296.64 62.3132 297.472C62.2972 297.664 62.2812 297.856 62.2652 298.048C62.2492 298.224 62.2252 298.416 62.1932 298.624H53.3132C53.3612 299.184 53.5052 299.696 53.7452 300.16C54.0012 300.624 54.3532 300.992 54.8012 301.264C55.2652 301.536 55.8412 301.672 56.5292 301.672C56.9292 301.672 57.3132 301.624 57.6812 301.528C58.0492 301.416 58.3692 301.256 58.6412 301.048C58.9292 300.84 59.1212 300.576 59.2172 300.256H62.1452C61.9372 301.168 61.5532 301.912 60.9932 302.488C60.4332 303.064 59.7612 303.488 58.9772 303.76C58.2092 304.032 57.3932 304.168 56.5292 304.168ZM53.3612 296.44H59.4572C59.4572 295.912 59.3372 295.432 59.0972 295C58.8572 294.568 58.5132 294.232 58.0652 293.992C57.6332 293.736 57.1052 293.608 56.4812 293.608C55.8092 293.608 55.2492 293.744 54.8012 294.016C54.3532 294.288 54.0092 294.64 53.7692 295.072C53.5292 295.504 53.3932 295.96 53.3612 296.44ZM70.4488 304.168C69.1368 304.168 68.0328 303.904 67.1368 303.376C66.2408 302.832 65.5608 302.072 65.0968 301.096C64.6328 300.12 64.4008 298.992 64.4008 297.712C64.4008 296.432 64.6408 295.304 65.1208 294.328C65.6008 293.336 66.3048 292.56 67.2328 292C68.1608 291.44 69.2888 291.16 70.6168 291.16C71.5928 291.16 72.4568 291.328 73.2088 291.664C73.9768 292 74.5928 292.496 75.0568 293.152C75.5368 293.792 75.8408 294.592 75.9688 295.552H73.0888C72.8968 294.944 72.5768 294.504 72.1288 294.232C71.6968 293.944 71.1768 293.8 70.5688 293.8C69.7528 293.8 69.1048 294 68.6248 294.4C68.1608 294.784 67.8248 295.272 67.6168 295.864C67.4088 296.456 67.3048 297.072 67.3048 297.712C67.3048 298.384 67.4168 299.016 67.6408 299.608C67.8648 300.184 68.2088 300.648 68.6728 301C69.1528 301.352 69.7688 301.528 70.5208 301.528C71.1288 301.528 71.6728 301.392 72.1528 301.12C72.6488 300.848 72.9688 300.408 73.1128 299.8H76.0888C75.9768 300.776 75.6488 301.592 75.1048 302.248C74.5768 302.888 73.9048 303.368 73.0888 303.688C72.2728 304.008 71.3928 304.168 70.4488 304.168ZM83.3271 304.144C81.9351 304.144 80.9191 303.76 80.2791 302.992C79.6391 302.224 79.3191 301.16 79.3191 299.8V293.944H77.3751V291.352H79.3191V287.8H82.2471V291.352H86.0871V293.944H82.2471V299.248C82.2471 299.664 82.2951 300.04 82.3911 300.376C82.4871 300.712 82.6631 300.976 82.9191 301.168C83.1751 301.36 83.5271 301.464 83.9751 301.48C84.3591 301.48 84.6871 301.416 84.9591 301.288C85.2311 301.16 85.4551 301.016 85.6311 300.856L86.6151 303.088C86.3111 303.344 85.9671 303.552 85.5831 303.712C85.2151 303.872 84.8391 303.984 84.4551 304.048C84.0711 304.112 83.6951 304.144 83.3271 304.144ZM98.9128 304.168C98.3208 304.168 97.7608 304.088 97.2328 303.928C96.7048 303.768 96.2328 303.536 95.8168 303.232C95.4008 302.912 95.0648 302.52 94.8088 302.056C94.5688 301.576 94.4488 301.016 94.4488 300.376C94.4488 299.56 94.6088 298.896 94.9288 298.384C95.2488 297.856 95.6808 297.456 96.2248 297.184C96.7848 296.912 97.4168 296.728 98.1208 296.632C98.8248 296.52 99.5608 296.464 100.329 296.464H102.801C102.801 295.904 102.713 295.424 102.537 295.024C102.361 294.608 102.081 294.28 101.697 294.04C101.329 293.8 100.849 293.68 100.257 293.68C99.8728 293.68 99.5128 293.728 99.1768 293.824C98.8568 293.904 98.5768 294.04 98.3368 294.232C98.1128 294.408 97.9528 294.64 97.8568 294.928H94.8568C94.9688 294.272 95.1928 293.712 95.5288 293.248C95.8808 292.768 96.3048 292.376 96.8008 292.072C97.3128 291.768 97.8728 291.544 98.4808 291.4C99.0888 291.24 99.7048 291.16 100.329 291.16C102.169 291.16 103.505 291.688 104.337 292.744C105.185 293.8 105.609 295.28 105.609 297.184V304H103.017L102.945 302.368C102.577 302.912 102.137 303.312 101.625 303.568C101.113 303.824 100.617 303.984 100.137 304.048C99.6568 304.128 99.2488 304.168 98.9128 304.168ZM99.4888 301.792C100.129 301.792 100.697 301.672 101.193 301.432C101.689 301.192 102.081 300.856 102.369 300.424C102.673 299.992 102.825 299.496 102.825 298.936V298.528H100.521C100.137 298.528 99.7528 298.544 99.3688 298.576C99.0008 298.592 98.6648 298.656 98.3608 298.768C98.0568 298.864 97.8088 299.016 97.6168 299.224C97.4408 299.432 97.3528 299.728 97.3528 300.112C97.3528 300.496 97.4488 300.808 97.6408 301.048C97.8488 301.288 98.1128 301.472 98.4328 301.6C98.7688 301.728 99.1208 301.792 99.4888 301.792ZM120.652 304.168C119.34 304.168 118.236 303.904 117.34 303.376C116.444 302.832 115.764 302.072 115.3 301.096C114.836 300.12 114.604 298.992 114.604 297.712C114.604 296.432 114.844 295.304 115.324 294.328C115.804 293.336 116.508 292.56 117.436 292C118.364 291.44 119.492 291.16 120.82 291.16C121.796 291.16 122.66 291.328 123.412 291.664C124.18 292 124.796 292.496 125.26 293.152C125.74 293.792 126.044 294.592 126.172 295.552H123.292C123.1 294.944 122.78 294.504 122.332 294.232C121.9 293.944 121.38 293.8 120.772 293.8C119.956 293.8 119.308 294 118.828 294.4C118.364 294.784 118.028 295.272 117.82 295.864C117.612 296.456 117.508 297.072 117.508 297.712C117.508 298.384 117.62 299.016 117.844 299.608C118.068 300.184 118.412 300.648 118.876 301C119.356 301.352 119.972 301.528 120.724 301.528C121.332 301.528 121.876 301.392 122.356 301.12C122.852 300.848 123.172 300.408 123.316 299.8H126.292C126.18 300.776 125.852 301.592 125.308 302.248C124.78 302.888 124.108 303.368 123.292 303.688C122.476 304.008 121.596 304.168 120.652 304.168ZM128.49 304V287.032H131.418V292.984C131.754 292.552 132.146 292.2 132.594 291.928C133.042 291.656 133.514 291.464 134.01 291.352C134.506 291.224 134.978 291.16 135.426 291.16C136.626 291.16 137.57 291.424 138.258 291.952C138.946 292.48 139.426 293.184 139.698 294.064C139.986 294.944 140.13 295.936 140.13 297.04V304H137.202V297.544C137.202 297.112 137.17 296.672 137.106 296.224C137.042 295.776 136.914 295.376 136.722 295.024C136.546 294.656 136.274 294.36 135.906 294.136C135.554 293.912 135.082 293.8 134.49 293.8C133.93 293.8 133.45 293.92 133.05 294.16C132.65 294.384 132.33 294.696 132.09 295.096C131.866 295.496 131.698 295.936 131.586 296.416C131.474 296.896 131.418 297.376 131.418 297.856V304H128.49ZM146.913 304.168C146.321 304.168 145.761 304.088 145.233 303.928C144.705 303.768 144.233 303.536 143.817 303.232C143.401 302.912 143.065 302.52 142.809 302.056C142.569 301.576 142.449 301.016 142.449 300.376C142.449 299.56 142.609 298.896 142.929 298.384C143.249 297.856 143.681 297.456 144.225 297.184C144.785 296.912 145.417 296.728 146.121 296.632C146.825 296.52 147.561 296.464 148.329 296.464H150.801C150.801 295.904 150.713 295.424 150.537 295.024C150.361 294.608 150.081 294.28 149.697 294.04C149.329 293.8 148.849 293.68 148.257 293.68C147.873 293.68 147.513 293.728 147.177 293.824C146.857 293.904 146.577 294.04 146.337 294.232C146.113 294.408 145.953 294.64 145.857 294.928H142.857C142.969 294.272 143.193 293.712 143.529 293.248C143.881 292.768 144.305 292.376 144.801 292.072C145.313 291.768 145.873 291.544 146.481 291.4C147.089 291.24 147.705 291.16 148.329 291.16C150.169 291.16 151.505 291.688 152.337 292.744C153.185 293.8 153.609 295.28 153.609 297.184V304H151.017L150.945 302.368C150.577 302.912 150.137 303.312 149.625 303.568C149.113 303.824 148.617 303.984 148.137 304.048C147.657 304.128 147.249 304.168 146.913 304.168ZM147.489 301.792C148.129 301.792 148.697 301.672 149.193 301.432C149.689 301.192 150.081 300.856 150.369 300.424C150.673 299.992 150.825 299.496 150.825 298.936V298.528H148.521C148.137 298.528 147.753 298.544 147.369 298.576C147.001 298.592 146.665 298.656 146.361 298.768C146.057 298.864 145.809 299.016 145.617 299.224C145.441 299.432 145.353 299.728 145.353 300.112C145.353 300.496 145.449 300.808 145.641 301.048C145.849 301.288 146.113 301.472 146.433 301.6C146.769 301.728 147.121 301.792 147.489 301.792ZM161.444 304.144C160.052 304.144 159.036 303.76 158.396 302.992C157.756 302.224 157.436 301.16 157.436 299.8V293.944H155.492V291.352H157.436V287.8H160.364V291.352H164.204V293.944H160.364V299.248C160.364 299.664 160.412 300.04 160.508 300.376C160.604 300.712 160.78 300.976 161.036 301.168C161.292 301.36 161.644 301.464 162.092 301.48C162.476 301.48 162.804 301.416 163.076 301.288C163.348 301.16 163.572 301.016 163.748 300.856L164.732 303.088C164.428 303.344 164.084 303.552 163.7 303.712C163.332 303.872 162.956 303.984 162.572 304.048C162.188 304.112 161.812 304.144 161.444 304.144ZM178.038 304.144C176.646 304.144 175.63 303.76 174.99 302.992C174.35 302.224 174.03 301.16 174.03 299.8V293.944H172.086V291.352H174.03V287.8H176.958V291.352H180.798V293.944H176.958V299.248C176.958 299.664 177.006 300.04 177.102 300.376C177.198 300.712 177.374 300.976 177.63 301.168C177.886 301.36 178.238 301.464 178.686 301.48C179.07 301.48 179.398 301.416 179.67 301.288C179.942 301.16 180.166 301.016 180.342 300.856L181.326 303.088C181.022 303.344 180.678 303.552 180.294 303.712C179.926 303.872 179.55 303.984 179.166 304.048C178.782 304.112 178.406 304.144 178.038 304.144ZM188.696 304.168C187.4 304.168 186.28 303.904 185.336 303.376C184.408 302.848 183.688 302.096 183.176 301.12C182.68 300.144 182.432 299 182.432 297.688C182.432 296.36 182.688 295.216 183.2 294.256C183.712 293.28 184.432 292.52 185.36 291.976C186.288 291.432 187.4 291.16 188.696 291.16C189.976 291.16 191.08 291.432 192.008 291.976C192.936 292.52 193.648 293.288 194.144 294.28C194.64 295.256 194.888 296.408 194.888 297.736C194.888 299.032 194.64 300.168 194.144 301.144C193.664 302.104 192.96 302.848 192.032 303.376C191.104 303.904 189.992 304.168 188.696 304.168ZM188.672 301.504C189.472 301.504 190.112 301.328 190.592 300.976C191.088 300.624 191.448 300.16 191.672 299.584C191.896 299.008 192.008 298.384 192.008 297.712C192.008 297.04 191.896 296.408 191.672 295.816C191.448 295.224 191.088 294.752 190.592 294.4C190.112 294.032 189.472 293.848 188.672 293.848C187.872 293.848 187.224 294.032 186.728 294.4C186.232 294.752 185.872 295.224 185.648 295.816C185.424 296.392 185.312 297.024 185.312 297.712C185.312 298.384 185.424 299.016 185.648 299.608C185.888 300.184 186.248 300.648 186.728 301C187.224 301.336 187.872 301.504 188.672 301.504ZM208.76 304.168C208.152 304.168 207.544 304.104 206.936 303.976C206.344 303.848 205.784 303.64 205.256 303.352C204.728 303.048 204.288 302.64 203.936 302.128C203.584 301.616 203.352 300.976 203.24 300.208H206.192C206.32 300.56 206.52 300.848 206.792 301.072C207.08 301.28 207.408 301.44 207.776 301.552C208.16 301.648 208.536 301.696 208.904 301.696C209.128 301.696 209.368 301.68 209.624 301.648C209.896 301.616 210.144 301.552 210.368 301.456C210.608 301.36 210.8 301.224 210.944 301.048C211.088 300.856 211.16 300.608 211.16 300.304C211.16 300.016 211.08 299.792 210.92 299.632C210.76 299.456 210.544 299.32 210.272 299.224C210 299.112 209.672 299.024 209.288 298.96C208.6 298.816 207.864 298.664 207.08 298.504C206.296 298.328 205.616 298.056 205.04 297.688C204.8 297.544 204.592 297.376 204.416 297.184C204.24 296.992 204.088 296.784 203.96 296.56C203.848 296.32 203.76 296.064 203.696 295.792C203.648 295.52 203.624 295.224 203.624 294.904C203.624 294.232 203.76 293.664 204.032 293.2C204.32 292.72 204.696 292.336 205.16 292.048C205.64 291.744 206.184 291.52 206.792 291.376C207.4 291.232 208.024 291.16 208.664 291.16C209.528 291.16 210.312 291.296 211.016 291.568C211.72 291.84 212.304 292.256 212.768 292.816C213.248 293.376 213.536 294.088 213.632 294.952H210.848C210.768 294.552 210.52 294.232 210.104 293.992C209.704 293.752 209.192 293.632 208.568 293.632C208.344 293.632 208.112 293.656 207.872 293.704C207.632 293.736 207.4 293.8 207.176 293.896C206.968 293.976 206.792 294.104 206.648 294.28C206.52 294.456 206.456 294.672 206.456 294.928C206.456 295.168 206.512 295.376 206.624 295.552C206.752 295.728 206.936 295.88 207.176 296.008C207.432 296.12 207.728 296.216 208.064 296.296C208.608 296.408 209.176 296.52 209.768 296.632C210.36 296.744 210.872 296.856 211.304 296.968C211.816 297.112 212.28 297.32 212.696 297.592C213.112 297.848 213.432 298.192 213.656 298.624C213.896 299.04 214.016 299.576 214.016 300.232C214.016 301 213.856 301.64 213.536 302.152C213.232 302.664 212.824 303.064 212.312 303.352C211.8 303.64 211.232 303.848 210.608 303.976C209.984 304.104 209.368 304.168 208.76 304.168ZM221.21 304.144C219.818 304.144 218.802 303.76 218.162 302.992C217.522 302.224 217.202 301.16 217.202 299.8V293.944H215.258V291.352H217.202V287.8H220.13V291.352H223.97V293.944H220.13V299.248C220.13 299.664 220.178 300.04 220.274 300.376C220.37 300.712 220.546 300.976 220.802 301.168C221.058 301.36 221.41 301.464 221.858 301.48C222.242 301.48 222.57 301.416 222.842 301.288C223.114 301.16 223.338 301.016 223.514 300.856L224.498 303.088C224.194 303.344 223.85 303.552 223.466 303.712C223.098 303.872 222.722 303.984 222.338 304.048C221.954 304.112 221.578 304.144 221.21 304.144ZM230.116 304.168C229.524 304.168 228.964 304.088 228.436 303.928C227.908 303.768 227.436 303.536 227.02 303.232C226.604 302.912 226.268 302.52 226.012 302.056C225.772 301.576 225.652 301.016 225.652 300.376C225.652 299.56 225.812 298.896 226.132 298.384C226.452 297.856 226.884 297.456 227.428 297.184C227.988 296.912 228.62 296.728 229.324 296.632C230.028 296.52 230.764 296.464 231.532 296.464H234.004C234.004 295.904 233.916 295.424 233.74 295.024C233.564 294.608 233.284 294.28 232.9 294.04C232.532 293.8 232.052 293.68 231.46 293.68C231.076 293.68 230.716 293.728 230.38 293.824C230.06 293.904 229.78 294.04 229.54 294.232C229.316 294.408 229.156 294.64 229.06 294.928H226.06C226.172 294.272 226.396 293.712 226.732 293.248C227.084 292.768 227.508 292.376 228.004 292.072C228.516 291.768 229.076 291.544 229.684 291.4C230.292 291.24 230.908 291.16 231.532 291.16C233.372 291.16 234.708 291.688 235.54 292.744C236.388 293.8 236.812 295.28 236.812 297.184V304H234.22L234.148 302.368C233.78 302.912 233.34 303.312 232.828 303.568C232.316 303.824 231.82 303.984 231.34 304.048C230.86 304.128 230.452 304.168 230.116 304.168ZM230.692 301.792C231.332 301.792 231.9 301.672 232.396 301.432C232.892 301.192 233.284 300.856 233.572 300.424C233.876 299.992 234.028 299.496 234.028 298.936V298.528H231.724C231.34 298.528 230.956 298.544 230.572 298.576C230.204 298.592 229.868 298.656 229.564 298.768C229.26 298.864 229.012 299.016 228.82 299.224C228.644 299.432 228.556 299.728 228.556 300.112C228.556 300.496 228.652 300.808 228.844 301.048C229.052 301.288 229.316 301.472 229.636 301.6C229.972 301.728 230.324 301.792 230.692 301.792ZM239.607 304V291.352H242.271L242.439 293.008C242.759 292.528 243.119 292.16 243.519 291.904C243.935 291.632 244.375 291.44 244.839 291.328C245.319 291.216 245.799 291.16 246.279 291.16C246.455 291.16 246.615 291.16 246.759 291.16C246.919 291.16 247.047 291.168 247.143 291.184V293.968H246.375C245.543 293.968 244.839 294.128 244.263 294.448C243.687 294.768 243.255 295.224 242.967 295.816C242.679 296.408 242.535 297.136 242.535 298V304H239.607ZM253.905 304.144C252.513 304.144 251.497 303.76 250.857 302.992C250.217 302.224 249.897 301.16 249.897 299.8V293.944H247.953V291.352H249.897V287.8H252.825V291.352H256.665V293.944H252.825V299.248C252.825 299.664 252.873 300.04 252.969 300.376C253.065 300.712 253.241 300.976 253.497 301.168C253.753 301.36 254.105 301.464 254.553 301.48C254.937 301.48 255.265 301.416 255.537 301.288C255.809 301.16 256.033 301.016 256.209 300.856L257.193 303.088C256.889 303.344 256.545 303.552 256.161 303.712C255.793 303.872 255.417 303.984 255.033 304.048C254.649 304.112 254.273 304.144 253.905 304.144ZM265.459 304V291.352H268.147L268.339 292.792C268.659 292.36 269.003 292.032 269.371 291.808C269.755 291.568 270.147 291.4 270.547 291.304C270.963 291.208 271.355 291.16 271.723 291.16C272.523 291.16 273.203 291.32 273.763 291.64C274.339 291.96 274.787 292.44 275.107 293.08C275.427 292.632 275.787 292.272 276.187 292C276.587 291.712 277.011 291.504 277.459 291.376C277.907 291.232 278.379 291.16 278.875 291.16C279.851 291.16 280.635 291.368 281.227 291.784C281.819 292.184 282.251 292.744 282.523 293.464C282.795 294.168 282.931 294.976 282.931 295.888V304H280.003V296.824C280.003 296.504 279.987 296.168 279.955 295.816C279.923 295.464 279.835 295.136 279.691 294.832C279.563 294.528 279.371 294.28 279.115 294.088C278.859 293.896 278.499 293.8 278.035 293.8C277.571 293.8 277.187 293.904 276.883 294.112C276.595 294.304 276.355 294.568 276.163 294.904C275.987 295.224 275.859 295.584 275.779 295.984C275.715 296.368 275.683 296.752 275.683 297.136V304H272.755V296.8C272.755 296.496 272.731 296.176 272.683 295.84C272.651 295.488 272.571 295.16 272.443 294.856C272.331 294.536 272.139 294.28 271.867 294.088C271.611 293.896 271.251 293.8 270.787 293.8C270.115 293.8 269.603 293.984 269.251 294.352C268.915 294.72 268.683 295.168 268.555 295.696C268.443 296.224 268.387 296.728 268.387 297.208V304H265.459ZM291.303 304.168C289.991 304.168 288.871 303.896 287.943 303.352C287.031 302.808 286.335 302.056 285.855 301.096C285.391 300.12 285.159 298.992 285.159 297.712C285.159 296.432 285.399 295.304 285.879 294.328C286.375 293.336 287.079 292.56 287.991 292C288.919 291.44 290.031 291.16 291.327 291.16C292.287 291.16 293.127 291.336 293.847 291.688C294.567 292.024 295.167 292.488 295.647 293.08C296.143 293.672 296.511 294.344 296.751 295.096C296.991 295.848 297.103 296.64 297.087 297.472C297.071 297.664 297.055 297.856 297.039 298.048C297.023 298.224 296.999 298.416 296.967 298.624H288.087C288.135 299.184 288.279 299.696 288.519 300.16C288.775 300.624 289.127 300.992 289.575 301.264C290.039 301.536 290.615 301.672 291.303 301.672C291.703 301.672 292.087 301.624 292.455 301.528C292.823 301.416 293.143 301.256 293.415 301.048C293.703 300.84 293.895 300.576 293.991 300.256H296.919C296.711 301.168 296.327 301.912 295.767 302.488C295.207 303.064 294.535 303.488 293.751 303.76C292.983 304.032 292.167 304.168 291.303 304.168ZM288.135 296.44H294.231C294.231 295.912 294.111 295.432 293.871 295C293.631 294.568 293.287 294.232 292.839 293.992C292.407 293.736 291.879 293.608 291.255 293.608C290.583 293.608 290.023 293.744 289.575 294.016C289.127 294.288 288.783 294.64 288.543 295.072C288.303 295.504 288.167 295.96 288.135 296.44ZM304.268 304.168C303.66 304.168 303.052 304.104 302.444 303.976C301.852 303.848 301.292 303.64 300.764 303.352C300.236 303.048 299.796 302.64 299.444 302.128C299.092 301.616 298.86 300.976 298.748 300.208H301.7C301.828 300.56 302.028 300.848 302.3 301.072C302.588 301.28 302.916 301.44 303.284 301.552C303.668 301.648 304.044 301.696 304.412 301.696C304.636 301.696 304.876 301.68 305.132 301.648C305.404 301.616 305.652 301.552 305.876 301.456C306.116 301.36 306.308 301.224 306.452 301.048C306.596 300.856 306.668 300.608 306.668 300.304C306.668 300.016 306.588 299.792 306.428 299.632C306.268 299.456 306.052 299.32 305.78 299.224C305.508 299.112 305.18 299.024 304.796 298.96C304.108 298.816 303.372 298.664 302.588 298.504C301.804 298.328 301.124 298.056 300.548 297.688C300.308 297.544 300.1 297.376 299.924 297.184C299.748 296.992 299.596 296.784 299.468 296.56C299.356 296.32 299.268 296.064 299.204 295.792C299.156 295.52 299.132 295.224 299.132 294.904C299.132 294.232 299.268 293.664 299.54 293.2C299.828 292.72 300.204 292.336 300.668 292.048C301.148 291.744 301.692 291.52 302.3 291.376C302.908 291.232 303.532 291.16 304.172 291.16C305.036 291.16 305.82 291.296 306.524 291.568C307.228 291.84 307.812 292.256 308.276 292.816C308.756 293.376 309.044 294.088 309.14 294.952H306.356C306.276 294.552 306.028 294.232 305.612 293.992C305.212 293.752 304.7 293.632 304.076 293.632C303.852 293.632 303.62 293.656 303.38 293.704C303.14 293.736 302.908 293.8 302.684 293.896C302.476 293.976 302.3 294.104 302.156 294.28C302.028 294.456 301.964 294.672 301.964 294.928C301.964 295.168 302.02 295.376 302.132 295.552C302.26 295.728 302.444 295.88 302.684 296.008C302.94 296.12 303.236 296.216 303.572 296.296C304.116 296.408 304.684 296.52 305.276 296.632C305.868 296.744 306.38 296.856 306.812 296.968C307.324 297.112 307.788 297.32 308.204 297.592C308.62 297.848 308.94 298.192 309.164 298.624C309.404 299.04 309.524 299.576 309.524 300.232C309.524 301 309.364 301.64 309.044 302.152C308.74 302.664 308.332 303.064 307.82 303.352C307.308 303.64 306.74 303.848 306.116 303.976C305.492 304.104 304.876 304.168 304.268 304.168ZM316.526 304.168C315.918 304.168 315.31 304.104 314.702 303.976C314.11 303.848 313.55 303.64 313.022 303.352C312.494 303.048 312.054 302.64 311.702 302.128C311.35 301.616 311.118 300.976 311.006 300.208H313.958C314.086 300.56 314.286 300.848 314.558 301.072C314.846 301.28 315.174 301.44 315.542 301.552C315.926 301.648 316.302 301.696 316.67 301.696C316.894 301.696 317.134 301.68 317.39 301.648C317.662 301.616 317.91 301.552 318.134 301.456C318.374 301.36 318.566 301.224 318.71 301.048C318.854 300.856 318.926 300.608 318.926 300.304C318.926 300.016 318.846 299.792 318.686 299.632C318.526 299.456 318.31 299.32 318.038 299.224C317.766 299.112 317.438 299.024 317.054 298.96C316.366 298.816 315.63 298.664 314.846 298.504C314.062 298.328 313.382 298.056 312.806 297.688C312.566 297.544 312.358 297.376 312.182 297.184C312.006 296.992 311.854 296.784 311.726 296.56C311.614 296.32 311.526 296.064 311.462 295.792C311.414 295.52 311.39 295.224 311.39 294.904C311.39 294.232 311.526 293.664 311.798 293.2C312.086 292.72 312.462 292.336 312.926 292.048C313.406 291.744 313.95 291.52 314.558 291.376C315.166 291.232 315.79 291.16 316.43 291.16C317.294 291.16 318.078 291.296 318.782 291.568C319.486 291.84 320.07 292.256 320.534 292.816C321.014 293.376 321.302 294.088 321.398 294.952H318.614C318.534 294.552 318.286 294.232 317.87 293.992C317.47 293.752 316.958 293.632 316.334 293.632C316.11 293.632 315.878 293.656 315.638 293.704C315.398 293.736 315.166 293.8 314.942 293.896C314.734 293.976 314.558 294.104 314.414 294.28C314.286 294.456 314.222 294.672 314.222 294.928C314.222 295.168 314.278 295.376 314.39 295.552C314.518 295.728 314.702 295.88 314.942 296.008C315.198 296.12 315.494 296.216 315.83 296.296C316.374 296.408 316.942 296.52 317.534 296.632C318.126 296.744 318.638 296.856 319.07 296.968C319.582 297.112 320.046 297.32 320.462 297.592C320.878 297.848 321.198 298.192 321.422 298.624C321.662 299.04 321.782 299.576 321.782 300.232C321.782 301 321.622 301.64 321.302 302.152C320.998 302.664 320.59 303.064 320.078 303.352C319.566 303.64 318.998 303.848 318.374 303.976C317.75 304.104 317.134 304.168 316.526 304.168ZM327.968 304.168C327.376 304.168 326.816 304.088 326.288 303.928C325.76 303.768 325.288 303.536 324.872 303.232C324.456 302.912 324.12 302.52 323.864 302.056C323.624 301.576 323.504 301.016 323.504 300.376C323.504 299.56 323.664 298.896 323.984 298.384C324.304 297.856 324.736 297.456 325.28 297.184C325.84 296.912 326.472 296.728 327.176 296.632C327.88 296.52 328.616 296.464 329.384 296.464H331.856C331.856 295.904 331.768 295.424 331.592 295.024C331.416 294.608 331.136 294.28 330.752 294.04C330.384 293.8 329.904 293.68 329.312 293.68C328.928 293.68 328.568 293.728 328.232 293.824C327.912 293.904 327.632 294.04 327.392 294.232C327.168 294.408 327.008 294.64 326.912 294.928H323.912C324.024 294.272 324.248 293.712 324.584 293.248C324.936 292.768 325.36 292.376 325.856 292.072C326.368 291.768 326.928 291.544 327.536 291.4C328.144 291.24 328.76 291.16 329.384 291.16C331.224 291.16 332.56 291.688 333.392 292.744C334.24 293.8 334.664 295.28 334.664 297.184V304H332.072L332 302.368C331.632 302.912 331.192 303.312 330.68 303.568C330.168 303.824 329.672 303.984 329.192 304.048C328.712 304.128 328.304 304.168 327.968 304.168ZM328.544 301.792C329.184 301.792 329.752 301.672 330.248 301.432C330.744 301.192 331.136 300.856 331.424 300.424C331.728 299.992 331.88 299.496 331.88 298.936V298.528H329.576C329.192 298.528 328.808 298.544 328.424 298.576C328.056 298.592 327.72 298.656 327.416 298.768C327.112 298.864 326.864 299.016 326.672 299.224C326.496 299.432 326.408 299.728 326.408 300.112C326.408 300.496 326.504 300.808 326.696 301.048C326.904 301.288 327.168 301.472 327.488 301.6C327.824 301.728 328.176 301.792 328.544 301.792ZM343.339 309.784C342.411 309.784 341.539 309.632 340.723 309.328C339.923 309.04 339.243 308.576 338.683 307.936C338.139 307.312 337.771 306.504 337.579 305.512H340.579C340.675 305.896 340.867 306.208 341.155 306.448C341.443 306.688 341.779 306.856 342.163 306.952C342.563 307.064 342.971 307.12 343.387 307.12C344.171 307.12 344.787 306.96 345.235 306.64C345.699 306.32 346.027 305.88 346.219 305.32C346.411 304.776 346.507 304.176 346.507 303.52V302.32C346.219 302.784 345.851 303.152 345.403 303.424C344.971 303.696 344.507 303.888 344.011 304C343.531 304.096 343.051 304.144 342.571 304.144C341.259 304.144 340.187 303.856 339.355 303.28C338.539 302.704 337.939 301.936 337.555 300.976C337.171 300 336.979 298.928 336.979 297.76C336.979 296.544 337.187 295.44 337.603 294.448C338.035 293.44 338.675 292.64 339.523 292.048C340.387 291.456 341.467 291.16 342.763 291.16C343.515 291.16 344.219 291.296 344.875 291.568C345.547 291.824 346.107 292.216 346.555 292.744L346.747 291.352H349.459V302.896C349.459 304.32 349.251 305.544 348.835 306.568C348.435 307.608 347.787 308.4 346.891 308.944C345.995 309.504 344.811 309.784 343.339 309.784ZM343.171 301.552C343.923 301.552 344.547 301.376 345.043 301.024C345.539 300.656 345.915 300.176 346.171 299.584C346.427 298.976 346.555 298.32 346.555 297.616C346.555 296.896 346.427 296.248 346.171 295.672C345.931 295.096 345.563 294.64 345.067 294.304C344.587 293.968 343.963 293.8 343.195 293.8C342.379 293.8 341.731 293.984 341.251 294.352C340.771 294.72 340.419 295.208 340.195 295.816C339.987 296.408 339.883 297.04 339.883 297.712C339.883 298.416 339.995 299.064 340.219 299.656C340.443 300.232 340.795 300.696 341.275 301.048C341.755 301.384 342.387 301.552 343.171 301.552ZM352.295 304V291.352H355.223V304H352.295ZM353.759 289.888C353.199 289.888 352.751 289.72 352.415 289.384C352.079 289.048 351.911 288.608 351.911 288.064C351.911 287.536 352.087 287.104 352.439 286.768C352.791 286.416 353.231 286.24 353.759 286.24C354.271 286.24 354.711 286.408 355.079 286.744C355.447 287.08 355.631 287.52 355.631 288.064C355.631 288.608 355.455 289.048 355.103 289.384C354.751 289.72 354.303 289.888 353.759 289.888ZM358.061 304V291.352H360.797L360.965 292.96C361.301 292.512 361.693 292.16 362.141 291.904C362.589 291.648 363.061 291.464 363.557 291.352C364.053 291.224 364.517 291.16 364.949 291.16C366.149 291.16 367.093 291.424 367.781 291.952C368.485 292.48 368.981 293.184 369.269 294.064C369.557 294.944 369.701 295.928 369.701 297.016V304H366.773V297.496C366.773 297.032 366.741 296.584 366.677 296.152C366.613 295.704 366.485 295.304 366.293 294.952C366.117 294.6 365.861 294.32 365.525 294.112C365.189 293.904 364.741 293.8 364.181 293.8C363.493 293.8 362.909 293.984 362.429 294.352C361.949 294.72 361.589 295.216 361.349 295.84C361.109 296.448 360.989 297.144 360.989 297.928V304H358.061ZM378.331 309.784C377.403 309.784 376.531 309.632 375.715 309.328C374.915 309.04 374.235 308.576 373.675 307.936C373.131 307.312 372.763 306.504 372.571 305.512H375.571C375.667 305.896 375.859 306.208 376.147 306.448C376.435 306.688 376.771 306.856 377.155 306.952C377.555 307.064 377.963 307.12 378.379 307.12C379.163 307.12 379.779 306.96 380.227 306.64C380.691 306.32 381.019 305.88 381.211 305.32C381.403 304.776 381.499 304.176 381.499 303.52V302.32C381.211 302.784 380.843 303.152 380.395 303.424C379.963 303.696 379.499 303.888 379.003 304C378.523 304.096 378.043 304.144 377.563 304.144C376.251 304.144 375.179 303.856 374.347 303.28C373.531 302.704 372.931 301.936 372.547 300.976C372.163 300 371.971 298.928 371.971 297.76C371.971 296.544 372.179 295.44 372.595 294.448C373.027 293.44 373.667 292.64 374.515 292.048C375.379 291.456 376.459 291.16 377.755 291.16C378.507 291.16 379.211 291.296 379.867 291.568C380.539 291.824 381.099 292.216 381.547 292.744L381.739 291.352H384.451V302.896C384.451 304.32 384.243 305.544 383.827 306.568C383.427 307.608 382.779 308.4 381.883 308.944C380.987 309.504 379.803 309.784 378.331 309.784ZM378.163 301.552C378.915 301.552 379.539 301.376 380.035 301.024C380.531 300.656 380.907 300.176 381.163 299.584C381.419 298.976 381.547 298.32 381.547 297.616C381.547 296.896 381.419 296.248 381.163 295.672C380.923 295.096 380.555 294.64 380.059 294.304C379.579 293.968 378.955 293.8 378.187 293.8C377.371 293.8 376.723 293.984 376.243 294.352C375.763 294.72 375.411 295.208 375.187 295.816C374.979 296.408 374.875 297.04 374.875 297.712C374.875 298.416 374.987 299.064 375.211 299.656C375.435 300.232 375.787 300.696 376.267 301.048C376.747 301.384 377.379 301.552 378.163 301.552Z" fill="#242424"/>
<defs>
<clipPath id="clip0_666_8360">
<rect width="400" height="240" fill="white"/>
</clipPath>
</defs>
</svg>
