<svg width="32" height="32" viewBox="0 0 32 32" fill="none" xmlns="http://www.w3.org/2000/svg">
<path d="M15.6938 -5.72205e-06H16.0356L17.1473 0.171869C19.6471 0.908119 21.6824 2.73187 23.4191 4.59249C25.5633 6.89 28.1948 10.8137 25.2227 13.6887C24.7527 14.1433 24.2024 14.4748 23.5716 14.6831L23.4554 14.7119C23.0008 14.831 22.5484 14.869 22.098 14.8256C22.0722 14.8231 22.0553 14.8094 22.0474 14.7844C21.7212 13.7485 21.2583 12.789 20.6588 11.9056L20.5744 11.7469C19.0492 9.55437 17.208 7.68979 15.0507 6.15312C14.1833 5.5352 13.2394 5.03604 12.2191 4.65562C12.1098 4.61499 11.9029 4.57374 11.7548 4.50187C11.7461 4.4975 11.7387 4.49085 11.7335 4.48261C11.7282 4.47436 11.7252 4.46483 11.7248 4.45499C11.709 4.09124 11.7302 3.73229 11.7886 3.37812L11.8873 2.94874C12.4679 1.31999 13.9296 0.0981193 15.6938 -5.72205e-06Z" fill="#2B5293"/>
<path d="M11.0025 6.22063C11.0438 6.24229 11.0921 6.25063 11.1475 6.24563C12.3107 6.62479 13.3895 7.19167 14.384 7.94625C15.8055 9.025 17.0829 10.2658 18.2161 11.6688L18.3186 11.7956C19.2747 12.9894 20.0109 14.2906 20.4052 15.8275C20.4102 15.8463 20.4383 15.8815 20.4896 15.9331C23.9808 19.4319 27.4738 22.9287 30.9684 26.4237C31.4733 26.9287 31.807 27.47 31.9414 28.1763C32.237 29.7319 31.3927 31.2237 29.9054 31.8081L29.0417 32H28.5468C28.0056 31.9475 27.5156 31.7817 27.0769 31.5025C26.8711 31.3721 26.5595 31.0977 26.142 30.6794C23.0666 27.6015 19.99 24.5248 16.9125 21.4494C16.8112 21.3477 16.7291 21.2585 16.6662 21.1819C16.6025 21.1031 16.5533 20.9952 16.5188 20.8581C16.2138 19.6406 15.6995 18.5112 14.9758 17.47C14.9787 17.44 14.9623 17.4096 14.9264 17.3787C14.1582 16.2408 13.2766 15.196 12.2817 14.2444L12.1093 14.0694C11.3477 13.289 10.5226 12.5817 9.63391 11.9475L9.4733 11.8338C8.32469 11.0175 7.05733 10.3656 5.68811 10.035C5.66686 10.03 5.65665 10.0165 5.65749 9.99438C5.7656 7.84 7.73913 6.0075 9.89388 6.06688C10.198 6.07563 10.5676 6.12688 11.0025 6.22063Z" fill="#2B5293"/>
<path d="M5.29756 11.8419L5.52253 11.8988C7.18297 12.4081 8.60843 13.3788 9.90703 14.5225L10.0683 14.6656C12.0074 16.4319 13.9035 18.5406 14.6896 21.1038L14.7759 21.5244C14.8392 21.9044 14.8621 22.2823 14.8446 22.6581L14.8277 23.0006C14.6032 24.1681 13.9962 25.1069 13.0067 25.8169C12.4997 26.1806 11.9424 26.4117 11.335 26.51C11.29 26.5067 11.256 26.5165 11.2331 26.5394C10.3482 26.6094 9.47354 26.4665 8.60906 26.1106C6.78114 25.3594 5.16195 24.05 3.80772 22.6469L3.64587 22.4869C2.8797 21.7194 2.18791 20.8942 1.57048 20.0113C0.708076 18.7788 0.0768968 17.4131 3.05176e-05 15.9044L0.0718979 15.1225C0.200633 14.4779 0.461437 13.9079 0.85431 13.4125C1.9971 11.9725 3.47818 11.449 5.29756 11.8419Z" fill="#2B5293"/>
</svg>
