<svg width="80" height="72" viewBox="0 0 80 72" fill="none" xmlns="http://www.w3.org/2000/svg">
<g clip-path="url(#clip0_191_5090)">
<path d="M15.4595 11.0408C19.772 3.98731 28.907 1.79006 37.387 1.13958C45.8657 0.489099 53.647 1.44496 60.572 5.5862C67.497 9.7262 73.5257 17.0938 76.217 26.0677C78.9095 35.0404 78.3207 45.5599 74.597 52.8939C70.8745 60.1932 64.0545 64.255 57.8532 67.2405C51.652 70.2261 46.0657 72.1254 39.9945 71.9938C33.922 71.861 27.3232 69.6848 22.622 64.3345C17.907 58.9481 15.0807 50.3975 13.3657 40.1772C11.682 29.9557 11.1595 18.077 15.4595 11.0421V11.0408Z" fill="#ECF2F9"/>
<path d="M14.7413 29.2221C13.9905 29.2307 13.2619 28.9692 12.69 28.4859C11.7838 27.7163 11.425 26.6909 11.665 25.5861C11.9325 24.3521 12.9588 23.2448 14.155 22.8935C15.19 22.5894 16.2125 22.8687 17.0275 23.6756C18.2775 24.912 18.4225 26.7815 17.3675 28.0241C17.0787 28.3661 16.7239 28.647 16.3239 28.8504C15.9239 29.0539 15.4869 29.1756 15.0388 29.2084C14.9399 29.2182 14.8406 29.2227 14.7413 29.2221ZM14.9713 23.4161C14.7565 23.4163 14.5429 23.4481 14.3375 23.5105C13.3563 23.796 12.5175 24.7059 12.2975 25.7226C12.11 26.5841 12.4 27.3898 13.1125 28.0018C13.3703 28.2171 13.6693 28.3785 13.9916 28.4762C14.3138 28.5739 14.6525 28.6059 14.9875 28.5704C15.3492 28.544 15.702 28.446 16.0251 28.2823C16.3481 28.1186 16.635 27.8924 16.8688 27.617C17.7088 26.6276 17.5775 25.1305 16.5688 24.1287C16.0188 23.5825 15.4538 23.4161 14.9713 23.4161ZM12.3038 22.9841C10.4388 22.9841 9.77376 21.1419 9.27626 19.759C9.21376 19.5853 9.14626 19.4152 9.08876 19.2464C8.63001 18.0186 8.01376 16.2261 7.51751 14.7861C7.13001 13.6738 6.80501 12.713 6.63876 12.2785C6.60282 12.1301 6.55172 11.9858 6.48626 11.8477L6.45501 11.7757C6.24652 11.2848 6.16202 10.7508 6.20886 10.2201C6.2557 9.68933 6.43247 9.17801 6.72376 8.73063C7.52376 7.52401 8.85251 7.21863 10.1063 7.95353C11.0263 8.49601 11.3688 9.40098 11.7025 10.2774C11.7675 10.4487 11.8313 10.6188 11.9025 10.7901C12.3613 11.8949 13.7288 15.7022 14.4138 17.7393C14.475 17.9156 14.5425 18.0968 14.6163 18.2905C14.9138 19.0726 15.25 19.9577 15.095 20.8167C14.9013 21.8433 14.02 22.7011 12.9538 22.9196C12.7398 22.9624 12.522 22.984 12.3038 22.9841ZM7.25751 12.0848C7.42876 12.5379 7.75751 13.495 8.13501 14.5899C8.63001 16.0262 9.24501 17.8138 9.70001 19.0316C9.76376 19.1979 9.83001 19.3717 9.89001 19.5455C10.5463 21.3641 11.1438 22.6229 12.83 22.289C13.6325 22.1276 14.32 21.4573 14.4638 20.7C14.5938 20.0173 14.2975 19.2538 14.0163 18.5189C13.9413 18.3203 13.87 18.1341 13.805 17.9454C13.1238 15.917 11.765 12.1308 11.3088 11.0359C11.2375 10.8601 11.1688 10.6834 11.1025 10.5058C10.795 9.69891 10.505 8.93546 9.78251 8.50842C8.35751 7.67422 7.50001 8.73932 7.27001 9.08567C7.03653 9.4459 6.89514 9.8573 6.8581 10.2841C6.82107 10.711 6.88952 11.1403 7.05751 11.5349L7.08626 11.6019C7.15501 11.7559 7.21126 11.9148 7.25126 12.0786L7.25751 12.0848ZM63.8275 32.8506C60.5738 31.7744 51.96 33.4217 43.6288 35.532C35.2975 37.6424 26.9125 40.243 24.5688 42.7246C24.1938 43.1243 24.9163 48.2735 25.9088 52.1628C26.9 56.0508 28.7475 60.9232 29.2563 61.0833C32.5113 62.1571 41.125 60.5123 49.4563 58.4019C57.7888 56.2904 66.1725 53.6897 68.5163 51.2069C68.8913 50.8097 68.0613 45.6852 67.0825 41.7972C66.1038 37.908 64.3513 33.0219 63.8275 32.8506Z" fill="#00E6C5"/>
<path d="M45.985 43.3899C45.623 43.3895 45.2735 43.2583 45.0018 43.0207C44.7302 42.7831 44.5549 42.4554 44.5087 42.0989C44.4633 41.7413 44.5515 41.3796 44.7565 41.0823C44.9615 40.7849 45.2691 40.5724 45.6212 40.4851L59.7112 36.9422C59.9494 36.8789 60.1997 36.8752 60.4397 36.9316C60.6797 36.988 60.9018 37.1027 61.0862 37.2654C61.2705 37.428 61.4113 37.6336 61.496 37.8636C61.5807 38.0936 61.6065 38.3409 61.5712 38.5833C61.5272 38.8747 61.3963 39.1464 61.1953 39.3632C60.9943 39.5801 60.7325 39.7322 60.4437 39.7998L46.3487 43.3489C46.2301 43.3777 46.1083 43.3919 45.9862 43.3911L45.985 43.3899Z" fill="#027BF3"/>
<path opacity="0.5" d="M47.0704 47.0296C46.8822 47.0302 46.6974 46.9798 46.5359 46.8839C46.3743 46.788 46.2421 46.6502 46.1534 46.4853C46.0648 46.3205 46.023 46.1347 46.0326 45.9481C46.0422 45.7614 46.1028 45.5808 46.2079 45.4258C46.351 45.218 46.5658 45.0696 46.8117 45.0087L57.3142 42.3807C57.4468 42.3454 57.5852 42.3365 57.7213 42.3547C57.8574 42.3728 57.9886 42.4176 58.1071 42.4864C58.2257 42.5552 58.3293 42.6467 58.4121 42.7555C58.4948 42.8644 58.555 42.9884 58.5892 43.1205C58.623 43.2528 58.6298 43.3904 58.6093 43.5254C58.5888 43.6603 58.5413 43.7898 58.4697 43.9062C58.3981 44.0227 58.3038 44.1238 58.1923 44.2035C58.0808 44.2833 57.9544 44.3401 57.8204 44.3706L47.3192 46.9986C47.2377 47.0184 47.1543 47.0289 47.0704 47.0296Z" fill="white"/>
<path d="M39.9999 56.4952C40.8988 56.1035 41.7111 55.5395 42.3903 54.8356C43.0695 54.1317 43.6022 53.3017 43.958 52.3931C44.3137 51.4845 44.4855 50.5151 44.4636 49.5404C44.4416 48.5658 44.2262 47.605 43.8299 46.7131C42.1649 42.9542 37.7524 41.2386 33.9724 42.8822C33.0734 43.2739 32.2611 43.8379 31.5819 44.5418C30.9028 45.2457 30.37 46.0757 30.0143 46.9843C29.6585 47.8929 29.4867 48.8623 29.5087 49.837C29.5307 50.8116 29.746 51.7724 30.1424 52.6643C31.8061 56.4244 36.2199 58.1388 39.9999 56.4964V56.4952Z" fill="#027BF3"/>
<path d="M43.6396 53.0826C43.1611 54.0085 42.4913 54.8236 41.6738 55.4748C40.8564 56.1259 39.9098 56.5984 38.8959 56.8614C37.8815 57.1253 36.8225 57.1744 35.7877 57.0055C34.753 56.8365 33.7656 56.4533 32.8896 55.8807C33.8759 54.941 35.1109 54.36 35.6634 54.2284L38.0821 53.6773L40.4671 52.992C41.0021 52.8443 42.3371 52.7562 43.6396 53.0826Z" fill="white"/>
<path d="M38.6559 55.9353C37.8809 56.119 35.9621 55.1656 36.0121 54.5462V54.5102C36.1421 53.8311 35.8496 52.5364 35.8496 52.5364L39.4734 51.6053C39.4734 51.6053 39.8534 52.8778 40.2996 53.4091C40.6146 54.2209 39.4484 55.7466 38.6559 55.9353Z" fill="#FFDFCA"/>
<path d="M33.796 49.14C33.796 49.14 35.2198 54.3898 38.0873 53.6748C40.9548 52.961 39.511 47.669 39.511 47.669C39.511 47.669 38.8235 44.9193 36.0273 45.6405C33.2298 46.3605 33.796 49.14 33.796 49.14Z" fill="#FFEBE1"/>
<path d="M33.8746 49.4118C33.3421 49.3994 33.2108 49.5807 33.4371 50.1368C33.6633 50.6942 34.2933 51.4961 34.4121 51.4651C34.5321 51.4353 34.6121 51.2168 34.6121 51.2168C34.6121 51.2168 34.2021 49.4193 33.8746 49.4118ZM39.6321 47.9296C40.0921 47.6627 40.2958 47.7571 40.3708 48.3517C40.4458 48.9476 40.2896 49.9531 40.1708 49.9841C40.0508 50.0151 39.8746 49.8625 39.8746 49.8625C39.8746 49.8625 39.3496 48.0947 39.6321 47.9296Z" fill="#FFEBE1"/>
<path d="M34.9932 44.3098C33.9982 44.5667 33.2432 45.1887 33.4057 45.7572C33.5682 46.3282 32.6932 46.2115 32.7369 46.656C32.7807 47.0991 33.0519 48.1543 33.3582 48.1605C33.6644 48.168 33.2932 48.8184 33.2757 48.8656C33.2569 48.9128 34.0382 50.2647 34.2307 50.3851C34.4232 50.5055 33.8957 49.0891 34.0494 49.0493C34.2019 49.0096 35.1744 48.5044 34.9157 48.23C34.6569 47.9532 35.3494 47.4778 35.4344 47.6838C35.5182 47.8899 36.7057 48.0972 36.7932 47.7186C36.8794 47.34 37.5369 46.7739 37.7157 47.1252C37.8944 47.4765 37.8844 47.9917 38.2132 47.8787C38.5419 47.767 38.6832 47.3176 38.8907 47.4492C39.0982 47.582 39.4157 48.41 39.4944 48.6596C39.5744 48.9103 39.7782 48.9699 39.7357 48.811C39.6932 48.6521 39.9944 47.6565 39.8769 47.2096C39.7582 46.7627 40.0694 44.7132 39.6432 45.0062C39.2182 45.3004 38.9382 45.2172 38.9157 44.9664C38.8907 44.7169 39.2782 43.992 38.7632 44.1658C38.2507 44.3395 39.0544 44.0764 37.8694 43.7698C36.6844 43.4631 36.0207 43.3489 36.0319 43.7698C36.0419 44.1906 35.8694 44.5518 35.6307 44.4984C35.4156 44.4447 35.2029 44.3817 34.9932 44.3098ZM36.4644 53.3631C36.1869 53.2837 36.5932 53.8001 36.7319 53.8932C36.9506 54.0573 37.2053 54.1677 37.4751 54.2152C37.745 54.2626 38.0223 54.2459 38.2844 54.1663C39.0782 53.954 39.2569 53.306 39.3344 53.1608C39.4294 52.987 39.6219 52.3713 39.5144 52.4495C39.4057 52.5277 38.8669 53.0429 38.5832 53.1173C38.3007 53.1918 38.0019 52.7251 37.8382 52.7822C37.6744 52.838 37.6432 53.3433 37.3507 53.4823C37.2032 53.5493 36.8557 53.4786 36.4632 53.3631H36.4644Z" fill="#002669"/>
<path d="M63.6008 0.304139C60.3458 -0.770896 49.7908 1.19173 41.4595 3.30207C33.1258 5.41242 24.7433 8.01435 22.3995 10.4971C22.0245 10.8943 22.747 16.0461 23.7383 19.9353C24.7295 23.8246 26.5783 28.6945 27.0883 28.8546C30.342 29.9297 38.9545 28.2836 47.287 26.1732C55.6183 24.0641 65.9458 21.1618 68.2895 18.6753C68.6645 18.2756 67.8345 13.1512 66.857 9.26193C65.8795 5.37393 64.1233 0.477932 63.6008 0.304139Z" fill="#027BF3"/>
<path d="M45.0065 11.2034C44.644 11.2033 44.2939 11.0718 44.0219 10.8337C43.7499 10.5956 43.5747 10.2672 43.529 9.90993C43.4841 9.55272 43.5724 9.19152 43.7774 8.89461C43.9824 8.59771 44.2898 8.38568 44.6415 8.29862L59.7103 4.50248C60.093 4.4048 60.4991 4.46198 60.8395 4.66145C61.1798 4.86093 61.4264 5.18638 61.5253 5.56634C61.5739 5.75474 61.5845 5.95083 61.5564 6.1433C61.5282 6.33577 61.462 6.5208 61.3615 6.6877C61.2609 6.8546 61.1281 7.00007 60.9706 7.1157C60.8132 7.23133 60.6342 7.31483 60.444 7.36138L45.374 11.16C45.2534 11.1895 45.1308 11.2041 45.0065 11.2034Z" fill="white"/>
<path d="M45.9997 14.8655C45.7466 14.867 45.5017 14.7766 45.3111 14.6113C45.1205 14.446 44.9973 14.2172 44.9647 13.968C44.9327 13.719 44.994 13.467 45.1369 13.2598C45.2798 13.0527 45.4943 12.9049 45.7397 12.8446L56.8972 10.044C57.1632 9.97732 57.445 10.018 57.6809 10.1571C57.9168 10.2962 58.0876 10.5225 58.1559 10.7864C58.1896 10.9171 58.1969 11.0532 58.1774 11.1868C58.1578 11.3203 58.1119 11.4487 58.0422 11.5646C57.9725 11.6805 57.8804 11.7815 57.7712 11.8618C57.662 11.9421 57.5378 12.0002 57.4059 12.0327L46.2497 14.8333C46.168 14.8542 46.084 14.8651 45.9997 14.8655ZM38.5434 23.6917C39.4393 23.2933 40.2473 22.7232 40.921 22.0142C41.5947 21.3051 42.121 20.4711 42.4697 19.5598C42.8184 18.6485 42.9826 17.6778 42.953 16.7034C42.9234 15.729 42.7005 14.7699 42.2972 13.8811C40.6034 10.1346 36.1772 8.45381 32.4097 10.1259C31.5139 10.5246 30.706 11.0947 30.0324 11.8037C29.3588 12.5128 28.8325 13.3468 28.4839 14.2581C28.1352 15.1693 27.9709 16.1399 28.0004 17.1143C28.03 18.0887 28.2527 19.0478 28.6559 19.9366C30.3497 23.6831 34.7759 25.3651 38.5434 23.693V23.6917Z" fill="#67CFF8"/>
<path d="M42.1668 20.2643C41.6952 21.1939 41.0313 22.0142 40.2186 22.6715C39.4059 23.3289 38.4627 23.8085 37.4505 24.079C36.4378 24.3507 35.3789 24.4076 34.3426 24.2462C33.3063 24.0847 32.3158 23.7084 31.4355 23.1418C32.4143 22.1959 33.6455 21.6025 34.1968 21.4746L36.6105 20.9036L38.9905 20.2022C39.528 20.0408 40.8605 19.9415 42.1668 20.2643Z" fill="#FFCC00"/>
<path d="M37.1785 23.1567C36.4022 23.3454 34.476 22.4069 34.5235 21.7875V21.7515C34.6522 21.0724 34.3447 19.7777 34.3447 19.7777L37.9572 18.8193C37.9572 18.8193 38.3447 20.0893 38.796 20.6144C39.1222 21.4275 37.9685 22.9581 37.1785 23.1567Z" fill="#FFCC00"/>
<path d="M33.7225 11.8341C32.4913 12.4746 30.745 13.7893 30.9375 15.9468C31.1288 18.103 32.8338 20.3065 32.8288 20.345C32.8238 20.3835 33.3463 19.8658 34.0663 19.6746C34.7838 19.4859 38.1788 18.4146 39.1463 18.3997C39.8463 16.7115 38.9738 12.4535 36.9875 11.777C36.3813 12.5603 36.3625 12.8036 36.3625 12.8036L35.2375 12.919L34.0588 12.2115L33.7213 11.8341H33.7225Z" fill="#002669"/>
<path d="M32.2805 16.3937C32.2805 16.3937 34.103 21.5603 36.6067 20.8949C39.2092 20.2047 37.9867 14.8792 37.9867 14.8792C37.9867 14.8792 37.2792 12.1358 34.493 12.8781C31.7055 13.6192 32.2805 16.3937 32.2805 16.3937Z" fill="white"/>
<path d="M38.0666 15.2764C38.5453 15.0431 38.7416 15.1535 38.7728 15.7531C38.8016 16.3515 38.5703 17.3421 38.4478 17.3644C38.3266 17.3868 38.1628 17.2229 38.1628 17.2229C38.1628 17.2229 37.7728 15.4204 38.0666 15.2764Z" fill="white"/>
<path d="M35.811 13.9692C35.811 14.683 34.686 15.2429 34.2697 15.4775C33.7072 15.7928 33.0047 16.4222 33.2122 17.8038C33.3185 18.5102 33.4435 18.7895 33.836 19.3804C33.941 19.5368 32.801 19.6287 32.736 19.5877C32.671 19.5467 31.8735 15.5905 31.8735 15.5905C31.8735 15.5905 31.6235 13.86 32.4485 12.8979C34.1072 10.9539 35.1885 11.7732 35.5985 12.2226C35.5985 12.2226 36.0422 11.5187 36.8135 11.6987C37.5847 11.88 38.3272 14.4074 38.301 15.187C38.1222 15.3881 38.1885 15.7705 38.0785 15.8611C37.966 15.9517 37.8585 15.5172 37.761 15.1585C37.6635 14.7985 37.2872 14.5527 36.786 14.5465C36.2835 14.5402 35.811 13.9692 35.811 13.9692Z" fill="#002669"/>
<path opacity="0.2" d="M55.9789 44.7294C53.6351 47.2121 45.2764 49.8265 36.9189 51.9232C33.3289 52.8207 29.6989 53.6487 26.4564 54.2073C26.2689 53.5655 26.0814 52.9237 25.9389 52.308C24.9489 48.42 24.2264 43.2707 24.6001 42.871C26.9451 40.3883 35.3026 37.7739 43.6614 35.676C47.2114 34.7785 50.8139 33.9641 54.0289 33.408C54.2164 34.0585 54.3889 34.6953 54.5464 35.3197C55.5239 39.2077 56.3414 44.3321 55.9789 44.7294Z" fill="#172033"/>
<path d="M44.8353 21.5466C41.5803 20.4728 32.9666 22.1177 24.6353 24.228C16.3028 26.3384 7.9128 28.9328 5.5753 31.4218C5.2003 31.819 5.9228 36.9695 6.91405 40.8588C7.9053 44.748 9.75405 49.6192 10.2641 49.7781C13.5178 50.8544 22.1303 49.207 30.4628 47.0979C38.7941 44.9876 47.1791 42.3857 49.5228 39.9041C49.8978 39.5044 49.0678 34.3812 48.0903 30.492C47.099 26.6251 45.3566 21.7142 44.8353 21.5466Z" fill="white"/>
<path d="M9.40016 50.8879C8.43766 50.8879 7.65766 50.8171 7.15766 50.6471C6.98516 50.59 6.62891 50.4695 5.52766 47.3574C4.84534 45.4163 4.25511 43.4445 3.75891 41.4484C3.27464 39.4493 2.87843 37.4301 2.57141 35.3967C2.09016 32.1331 2.33641 31.8712 2.47016 31.7284C4.63766 29.458 19.8577 25.1305 22.8852 24.2901C22.9466 24.2734 23.0117 24.275 23.0722 24.2947C23.1327 24.3145 23.1861 24.3514 23.2257 24.401C23.2652 24.4506 23.2892 24.5107 23.2947 24.5737C23.3002 24.6368 23.2868 24.7 23.2564 24.7556C23.2356 24.7925 23.2077 24.8251 23.1742 24.8513C23.1408 24.8775 23.1024 24.8968 23.0614 24.9083C9.89891 28.5766 4.02391 31.0941 2.96516 32.1493C2.76266 32.7575 3.41891 37.3357 4.39016 41.3007C5.40016 45.4345 6.96141 49.6279 7.39891 50.0562C9.35141 50.6744 16.9027 49.7036 23.0589 48.4684C23.1429 48.4519 23.2301 48.469 23.3015 48.516C23.3728 48.5629 23.4227 48.6359 23.4402 48.7192C23.4564 48.8024 23.439 48.8887 23.3918 48.9593C23.3446 49.0299 23.2712 49.0792 23.1877 49.0966C19.6264 49.8066 13.1377 50.8879 9.40016 50.8879Z" fill="#DAE7F2"/>
<path d="M24.2054 32.2535C23.8434 32.2528 23.4941 32.1213 23.2226 31.8835C22.9512 31.6457 22.7762 31.3178 22.7304 30.9613C22.6851 30.6039 22.7732 30.2424 22.9783 29.9452C23.1833 29.648 23.4909 29.4358 23.8429 29.3487L39.1129 25.5129C39.4952 25.4172 39.9002 25.4758 40.2392 25.6758C40.5781 25.8759 40.8235 26.2012 40.9216 26.5804C40.9698 26.7684 40.9801 26.964 40.9519 27.1559C40.9238 27.3478 40.8578 27.5324 40.7577 27.6989C40.6576 27.8654 40.5253 28.0107 40.3686 28.1264C40.2118 28.2421 40.0336 28.3259 39.8441 28.373L24.5729 32.2089C24.4527 32.2388 24.3293 32.2538 24.2054 32.2535Z" fill="#FFCC00"/>
<path d="M25.5463 35.6673C25.2935 35.6689 25.0488 35.5786 24.8582 35.4136C24.6676 35.2485 24.5442 35.02 24.5113 34.7711C24.4791 34.5218 24.5402 34.2695 24.6831 34.0621C24.826 33.8547 25.0407 33.7068 25.2863 33.6464L36.6863 30.7937C36.8521 30.7499 37.0261 30.7476 37.193 30.7869C37.3598 30.8263 37.5142 30.9061 37.6424 31.0193C37.7706 31.1324 37.8685 31.2754 37.9274 31.4353C37.9864 31.5952 38.0045 31.7672 37.9801 31.9357C37.9497 32.1391 37.8583 32.3287 37.7178 32.4797C37.5774 32.6307 37.3943 32.7362 37.1926 32.7824L25.7938 35.6375C25.7128 35.657 25.6297 35.667 25.5463 35.6673Z" fill="#DAE7F2"/>
<path d="M18.7001 45.6604C19.594 45.2576 20.3991 44.6837 21.0694 43.9715C21.7396 43.2593 22.2618 42.4228 22.6061 41.5099C22.9504 40.597 23.1099 39.6256 23.0756 38.6514C23.0414 37.6772 22.8139 36.7192 22.4063 35.8324C20.695 32.0946 16.2601 30.4324 12.5013 32.1232C11.6073 32.5258 10.802 33.0996 10.1316 33.8118C9.46124 34.5239 8.9389 35.3604 8.59451 36.2733C8.25012 37.1862 8.09045 38.1577 8.12465 39.1319C8.15885 40.1062 8.38624 41.0643 8.7938 41.9511C10.5063 45.6902 14.94 47.3511 18.6988 45.6616L18.7001 45.6604Z" fill="#FFCC00"/>
<path d="M12.4024 38.3959C12.4024 38.3959 13.8899 43.6246 16.7512 42.8772C19.6124 42.1275 18.1012 36.8491 18.1012 36.8491C18.1012 36.8491 17.3799 34.1081 14.5924 34.8629C11.8049 35.6164 12.4024 38.3959 12.4024 38.3959Z" fill="#FFEBE1"/>
<path d="M22.2961 42.2168C21.8289 43.1484 21.169 43.9716 20.3595 44.6326C19.5501 45.2936 18.6092 45.7775 17.5986 46.0527C16.5876 46.3291 15.5293 46.3912 14.4926 46.2349C13.4558 46.0785 12.4638 45.7073 11.5811 45.1452C12.5536 44.1931 13.7811 43.5985 14.3311 43.4594L16.7436 42.8772L19.1198 42.1647C19.6573 42.0108 20.9848 41.9052 22.2961 42.2168Z" fill="#00E6C5"/>
<path d="M12.4874 38.6628C11.9549 38.6628 11.8249 38.8415 12.0587 39.3952C12.2912 39.9464 12.9337 40.7446 13.0512 40.7123C13.1687 40.68 13.2474 40.4566 13.2474 40.4566C13.2474 40.4566 12.8137 38.6665 12.4874 38.6628ZM17.3687 45.1241C16.5912 45.3166 14.6637 44.388 14.7062 43.7673V43.7313C14.8274 43.051 14.5187 41.7588 14.5187 41.7588L18.1362 40.783C18.1362 40.783 18.5324 42.0517 18.9862 42.5793C19.3012 43.3862 18.1574 44.9255 17.3687 45.1241ZM18.2249 37.1123C18.6812 36.8392 18.8874 36.9323 18.9699 37.5257C19.0524 38.1203 18.9074 39.1295 18.7899 39.1606C18.6724 39.1928 18.4912 39.0426 18.4912 39.0426C18.4912 39.0426 17.9462 37.2799 18.2262 37.1123H18.2249Z" fill="#FFEBE1"/>
<path d="M12.6646 39.348C11.9146 37.553 11.5896 36.2024 12.0796 35.8461C12.5696 35.4898 12.7271 35.5668 12.7271 35.5668C12.7271 35.5668 12.2608 34.6693 12.2883 34.385C12.3158 34.102 16.2296 32.9971 17.1096 34.0424C17.9896 35.0876 18.3471 36.3861 18.3633 37.8075C18.3633 38.2631 18.1471 37.9353 18.1046 37.7702C18.0608 37.6064 17.9396 36.941 17.6733 36.6704C16.7571 35.7393 14.1108 36.8814 13.8483 36.9124C13.5858 36.9447 13.3546 36.5735 13.3546 36.5735C13.3546 36.5735 13.4846 37.0862 13.2458 37.306C13.0083 37.5269 12.4983 37.8286 12.6658 38.3202C12.8346 38.8105 12.9246 39.0426 12.9158 39.3455C12.9071 39.6484 12.6658 39.348 12.6658 39.348H12.6646Z" fill="#002669"/>
<path d="M18.0207 37.4363C18.2107 38.3673 18.187 40.4441 17.8832 40.577C17.5782 40.7086 17.2357 40.1003 17.0245 40.0568C16.3192 39.9811 15.6112 40.1727 15.042 40.5931C14.8782 40.7384 14.8982 41.4335 14.5682 41.472C14.2382 41.5092 13.1532 39.7366 12.8395 38.8378C12.8395 38.8378 12.322 38.3251 12.6657 39.3505C13.5207 41.6595 14.5382 42.9492 15.187 43.3018C15.8357 43.6544 16.8695 43.3539 16.8695 43.3539C16.8695 43.3539 17.9045 43.0982 18.2932 42.4651C18.6807 41.832 18.8832 40.2058 18.4395 37.7913C18.2095 36.7349 18.0207 37.4363 18.0207 37.4363ZM16.3982 41.6545C16.0582 41.7464 15.5382 42.7841 15.2982 41.8779C15.057 40.9717 15.6582 40.6899 16.0957 40.5521C16.5432 40.4516 17.2045 40.392 17.462 41.2932C17.7195 42.1957 16.7382 41.5626 16.3982 41.6545Z" fill="#002669"/>
<path d="M7.94507 22.531C7.86252 22.5309 7.78306 22.4999 7.72257 22.4441L0.101318 15.3186C0.0704571 15.2897 0.0456376 15.255 0.0282763 15.2165C0.0109151 15.178 0.00135206 15.1366 0.000133288 15.0944C-0.00108548 15.0523 0.00606386 15.0103 0.0211731 14.971C0.0362824 14.9316 0.0590557 14.8955 0.0881927 14.8649C0.11733 14.8342 0.15226 14.8096 0.190989 14.7923C0.229718 14.7751 0.271487 14.7656 0.313912 14.7644C0.356337 14.7632 0.398586 14.7703 0.438248 14.7853C0.47791 14.8003 0.514207 14.8229 0.545068 14.8518L8.16757 21.9798C8.21477 22.0239 8.24752 22.081 8.26155 22.1438C8.27558 22.2066 8.27024 22.2722 8.24623 22.3319C8.22222 22.3917 8.18065 22.4429 8.12693 22.4788C8.07322 22.5148 8.00984 22.5338 7.94507 22.5335V22.531ZM1.45007 27.6418C1.3645 27.6434 1.28172 27.6115 1.21971 27.553C1.15769 27.4944 1.12143 27.4139 1.11882 27.3289C1.11782 27.2868 1.12522 27.2448 1.14059 27.2055C1.15596 27.1662 1.179 27.1303 1.20839 27.0998C1.23777 27.0694 1.27292 27.045 1.31182 27.0281C1.35072 27.0111 1.39261 27.002 1.43507 27.0012L9.37757 26.6425C9.43064 26.6404 9.48342 26.6513 9.53126 26.6742C9.57911 26.6971 9.62057 26.7313 9.65203 26.7738C9.68348 26.8164 9.70397 26.8659 9.71169 26.9181C9.71941 26.9702 9.71413 27.0235 9.69632 27.0732C9.67425 27.1328 9.63496 27.1846 9.58338 27.2222C9.53179 27.2597 9.4702 27.2813 9.40632 27.2842L1.46382 27.6442L1.45007 27.6418ZM65.7976 29.5076C65.7239 29.5065 65.6529 29.4806 65.5961 29.4341C65.5393 29.3875 65.5002 29.3232 65.4852 29.2516C65.4702 29.18 65.4802 29.1055 65.5136 29.0403C65.547 28.9751 65.6017 28.9232 65.6688 28.8931L79.5463 22.958C79.6049 22.9333 79.6695 22.9262 79.7321 22.9376C79.7947 22.949 79.8525 22.9784 79.8985 23.0222C79.9444 23.0659 79.9764 23.1221 79.9904 23.1838C80.0045 23.2454 80 23.3098 79.9776 23.3689C79.962 23.4084 79.9387 23.4443 79.9091 23.4748C79.8795 23.5052 79.8442 23.5296 79.8051 23.5465L65.9288 29.4802C65.8874 29.498 65.8427 29.5069 65.7976 29.5063V29.5076ZM67.6188 32.2808C67.5554 32.2809 67.4932 32.2626 67.4402 32.2281C67.3871 32.1935 67.3453 32.1443 67.3201 32.0865C67.2948 32.0287 67.2871 31.9648 67.298 31.9027C67.3089 31.8406 67.3379 31.783 67.3813 31.7371C67.4408 31.6761 67.5221 31.6409 67.6076 31.639L75.5501 31.3609C75.6136 31.3593 75.6763 31.3761 75.7303 31.4095C75.7843 31.4428 75.8272 31.4912 75.8538 31.5485C75.8805 31.6058 75.8895 31.6697 75.88 31.7321C75.8704 31.7945 75.8426 31.8528 75.8001 31.8997C75.7711 31.9308 75.7361 31.956 75.6973 31.9737C75.6585 31.9914 75.6165 32.0012 75.5738 32.0027L67.6301 32.2808H67.6188Z" fill="#00E6C5"/>
</g>
<defs>
<clipPath id="clip0_191_5090">
<rect width="80" height="72" fill="white"/>
</clipPath>
</defs>
</svg>
