<svg width="80" height="68" viewBox="0 0 80 68" fill="none" xmlns="http://www.w3.org/2000/svg">
<g clip-path="url(#clip0_191_5070)">
<path d="M43.1804 46.4238C48.1879 38.8305 56.6129 35.2013 60.0454 28.1709C63.4754 21.143 61.9379 10.7503 57.1342 6.07844C52.3317 1.40659 42.3767 1.82844 34.9204 3.22622C27.4354 4.60888 22.4379 6.96622 18.2079 9.74918C13.9779 12.5321 10.5017 15.7785 7.68042 20.0965C4.85792 24.4158 2.67292 29.8658 2.59042 36.3158C2.50667 42.7682 4.49792 50.2369 9.60292 57.0268C14.7079 63.8167 22.9404 69.8725 28.7917 67.4585C34.6442 65.0181 38.1517 54.0474 43.1804 46.4238Z" fill="#2174FF" fill-opacity="0.15"/>
<path d="M10.854 34.7656C10.4531 34.9677 10.0074 35.0627 9.55963 35.0415C9.11183 35.0203 8.67692 34.8837 8.29654 34.6447C7.83315 34.3479 7.49281 33.8914 7.33904 33.3603C7.18364 32.827 7.22447 32.2551 7.45404 31.7497C7.68799 31.2677 8.06015 30.8676 8.52236 30.6011C8.98457 30.3346 9.51554 30.214 10.0465 30.255C11.0065 30.3507 11.7065 31.0055 11.969 32.0519C12.2315 33.0971 11.9378 33.9975 11.179 34.5616C11.076 34.6379 10.9674 34.7061 10.854 34.7656ZM8.91904 31.1075C8.5287 31.3059 8.21382 31.628 8.02279 32.0242C7.85827 32.3871 7.82941 32.7976 7.94154 33.1802C8.05404 33.5618 8.29779 33.8892 8.63029 34.0995C8.95783 34.3074 9.3391 34.4131 9.72611 34.4032C10.1131 34.3934 10.4886 34.2684 10.8053 34.0441C11.3553 33.6361 11.5515 32.9838 11.3578 32.2093C11.0953 31.1566 10.3853 30.9261 9.98529 30.8921C9.6169 30.8599 9.24701 30.9354 8.91904 31.1075ZM9.53279 29.3483C9.28464 29.4758 9.01656 29.5593 8.74029 29.5951C7.79886 29.7195 6.84623 29.4712 6.08279 28.9025C5.31433 28.3286 4.79216 27.481 4.62279 26.5326C4.33529 24.8339 5.30904 23.3681 6.16904 22.0748C6.27654 21.9136 6.38154 21.755 6.48154 21.5988L6.57404 21.4603C6.95029 20.8961 7.50404 20.0487 7.27779 19.4379C7.2464 19.3479 7.19658 19.2655 7.13155 19.196C7.06651 19.1266 6.98773 19.0717 6.90029 19.035C6.58705 18.9289 6.24498 18.9511 5.94779 19.0967C4.89529 19.5689 4.33529 20.6632 3.89654 21.5409C3.65404 22.0194 3.46404 22.3959 3.22529 22.6163C2.61279 23.1804 1.43279 23.3744 0.717793 22.7523C-0.119707 22.0307 -0.149707 20.5599 0.246543 19.545C1.20904 17.1587 3.13779 15.271 5.17404 14.7321C6.63154 14.3467 8.05404 14.6704 9.29154 15.6727C11.0978 17.1347 11.759 19.2893 11.0603 21.4326C10.739 22.4287 10.1803 23.2346 9.63529 23.975L9.54904 24.0833C8.69404 25.1587 8.49279 25.6096 8.44904 25.7833C9.74154 25.6574 10.5765 26.2178 10.684 27.2743C10.7233 27.6982 10.634 28.1241 10.4278 28.4958C10.2231 28.8656 9.91073 29.1631 9.53279 29.3483ZM5.53779 18.5867C5.58904 18.5602 5.64029 18.5338 5.69529 18.5111C5.91952 18.4034 6.16284 18.3419 6.41098 18.3302C6.65912 18.3185 6.90708 18.3569 7.14029 18.4431C7.30711 18.5126 7.45773 18.6164 7.58255 18.7478C7.70737 18.8791 7.80367 19.0353 7.86529 19.2062C8.20904 20.1255 7.53904 21.1455 7.09654 21.8179L7.00779 21.9539C6.90529 22.1126 6.79904 22.2725 6.69029 22.435C5.85779 23.6879 4.99904 24.9812 5.24279 26.4293C5.38529 27.2176 5.81779 27.9203 6.45529 28.3925C7.08801 28.8639 7.87752 29.0697 8.65779 28.9667C9.42404 28.8635 10.149 28.2741 10.0603 27.3448C10.0103 26.86 9.69654 26.3059 8.48029 26.4256H8.47029C8.09404 26.4495 7.93029 26.2543 7.87029 26.1359C7.65779 25.7153 7.99654 25.0278 9.06154 23.6804C9.09654 23.6388 9.12154 23.6048 9.13654 23.5859C9.64779 22.8933 10.1728 22.1378 10.464 21.2311C11.0928 19.3259 10.5178 17.4823 8.90154 16.1752C7.81029 15.2912 6.61029 15.0204 5.33404 15.3541C3.51654 15.8364 1.70654 17.6183 0.831543 19.7867C0.561543 20.4768 0.474043 21.7109 1.12654 22.2687C1.57404 22.6541 2.39529 22.5256 2.80404 22.1403C2.95779 21.998 3.14279 21.6341 3.33904 21.2424C3.78404 20.3698 4.38654 19.181 5.53779 18.5867Z" fill="#00E6C5"/>
<path d="M72.5091 42.5491C73.4516 41.5732 66.3616 13.3771 65.0791 12.9666C64.0366 12.6329 61.2704 12.9162 57.5116 13.5962C43.1679 16.1739 14.5441 24.4737 14.1166 25.8337C13.2116 28.6683 19.4341 53.3372 21.5454 55.415C22.8279 56.6591 68.8379 46.3584 72.5091 42.5491Z" fill="#027BF3"/>
<path d="M77.0107 35.4066C77.9532 34.4193 69.6432 0.795862 68.3607 0.386602C67.3182 0.0528987 64.5519 0.334973 60.7932 1.01497C46.4494 3.61912 17.8257 11.9957 17.3982 13.3683C16.4932 16.2281 23.9357 46.2979 26.0469 48.3883C27.3294 49.6476 73.3394 39.2385 77.0094 35.4066H77.0107Z" fill="white"/>
<path d="M76.8214 32.8415C76.7471 32.8404 76.6755 32.8132 76.619 32.7644C76.5626 32.7156 76.525 32.6484 76.5127 32.5745C75.2539 24.9522 69.0577 1.91533 67.9502 0.681257C66.7814 0.394146 57.8814 1.27941 50.6902 3.52718C50.6309 3.54601 50.5674 3.54648 50.5079 3.52852C50.4484 3.51055 50.3956 3.47499 50.3564 3.42644C50.3231 3.38577 50.3002 3.33747 50.2897 3.28579C50.2792 3.23411 50.2815 3.18063 50.2963 3.13003C50.3111 3.07944 50.338 3.03328 50.3746 2.9956C50.4113 2.95792 50.4565 2.92987 50.5064 2.91392C57.8264 0.62459 67.0102 -0.29215 68.1764 0.0805904C68.4027 0.153627 68.7089 0.255627 70.0202 4.40866C70.7652 6.77229 71.6877 9.98718 72.6889 13.7083C74.4189 20.1431 76.4602 28.4391 77.1302 32.4687C77.144 32.5525 77.1247 32.6384 77.0764 32.708C77.0526 32.7421 77.0224 32.7711 76.9874 32.7933C76.9525 32.8156 76.9135 32.8307 76.8727 32.8377L76.8214 32.8415Z" fill="#DAE7F2"/>
<path d="M70.4093 24.7306C71.2768 24.1526 67.8068 10.4657 66.788 10.375C65.9593 10.2995 63.6455 10.6836 60.478 11.3636C48.3968 13.9413 24.0343 20.6632 23.5568 21.3948C22.5755 22.9084 25.6055 34.8903 27.1768 35.7504C28.1318 36.2629 67.0518 26.9884 70.4093 24.7306Z" fill="#FFCC00"/>
<path d="M71.9297 33.0178C71.6797 33.8904 59.2209 37.6745 58.5797 37.0323C57.9384 36.3913 57.2222 33.6462 57.4984 32.7609C57.7497 31.8882 70.8359 28.3862 71.4772 29.0146C72.1059 29.6694 72.1822 32.1325 71.9297 33.0178Z" fill="#027BF3"/>
<path d="M55.4007 37.4302C55.1482 38.3029 42.6907 42.087 42.0507 41.446C41.4082 40.8038 40.6919 38.0586 40.9681 37.1733C41.2194 36.3019 54.3057 32.7999 54.9482 33.4283C55.5894 34.0567 55.6769 36.5613 55.4007 37.4302Z" fill="#ECF2F9"/>
<path d="M28.6226 26.6421C28.377 26.6414 28.1402 26.5495 27.9576 26.384C27.8206 26.2596 27.7195 26.1003 27.6649 25.9228C27.6104 25.7454 27.6045 25.5564 27.6477 25.3758C27.691 25.1952 27.7819 25.0297 27.9108 24.8969C28.0397 24.764 28.2019 24.6687 28.3801 24.621L62.8251 15.8591C63.0203 15.8034 63.2277 15.8092 63.4194 15.8759C63.6112 15.9425 63.7781 16.0668 63.8976 16.2318C63.998 16.369 64.0632 16.529 64.0873 16.6976C64.1114 16.8663 64.0937 17.0383 64.0358 17.1984C63.9778 17.3585 63.8815 17.5017 63.7553 17.6151C63.6291 17.7286 63.477 17.8089 63.3126 17.8487L28.8676 26.6107C28.7876 26.6319 28.7053 26.6424 28.6226 26.6421Z" fill="#E68600"/>
<path d="M22.6638 17.753C22.3138 17.753 21.9763 17.6246 21.7113 17.3891C21.4474 17.1518 21.2766 16.8272 21.2298 16.474C21.183 16.1208 21.2634 15.7624 21.4563 15.4637C21.6488 15.1653 21.9425 14.9499 22.28 14.8555L41.0363 9.56912C41.3124 9.49081 41.6055 9.49806 41.8775 9.58992C42.1495 9.68178 42.3878 9.854 42.5613 10.0842C42.7381 10.3148 42.8435 10.5929 42.8644 10.8836C42.8853 11.1743 42.8207 11.4647 42.6788 11.7187C42.4904 12.0573 42.1767 12.3071 41.8063 12.4138L23.05 17.7039C22.925 17.7379 22.795 17.7543 22.6638 17.753Z" fill="#002669"/>
<path d="M30.0064 31.003C29.7603 31.0025 29.5231 30.9106 29.3401 30.7448C29.2031 30.6204 29.1021 30.461 29.0476 30.2834C28.9931 30.1059 28.9873 29.9168 29.0307 29.7362C29.0741 29.5556 29.1652 29.3901 29.2942 29.2573C29.4233 29.1246 29.5856 29.0294 29.7639 28.9819L50.3676 23.7471C50.5631 23.6922 50.7706 23.699 50.9621 23.7665C51.1537 23.8341 51.3201 23.9591 51.4389 24.1249C51.5387 24.2623 51.6032 24.4225 51.6267 24.5911C51.6503 24.7598 51.632 24.9317 51.5736 25.0915C51.5152 25.2513 51.4184 25.394 51.292 25.5071C51.1656 25.6201 51.0133 25.6999 50.8489 25.7393L30.2451 30.9728C30.1671 30.993 30.0869 31.0031 30.0064 31.003Z" fill="#E68600"/>
<path d="M54.7714 25.5768C54.7011 25.5771 54.6328 25.5535 54.5774 25.5099C54.5221 25.4663 54.483 25.4051 54.4664 25.3363L53.6251 21.9741C53.6044 21.8917 53.6165 21.8045 53.6589 21.731C53.7013 21.6586 53.7706 21.6061 53.8515 21.5851C53.9323 21.564 54.0182 21.5762 54.0901 21.619C54.1614 21.663 54.2139 21.7323 54.2339 21.8154L55.0764 25.1776C55.0948 25.2588 55.0815 25.3441 55.0391 25.4156C54.9967 25.4872 54.9286 25.5395 54.8489 25.5617C54.8239 25.5706 54.7978 25.5757 54.7714 25.5768Z" fill="#172033"/>
<path d="M73.8291 35.6987C73.4266 35.1598 73.5154 34.4143 74.0041 34.0441L74.0304 34.0315C74.5204 33.6587 75.2366 33.7872 75.6391 34.3123C76.9341 36.0576 77.0604 36.2364 78.9954 38.8544C80.0766 40.329 79.8629 42.3552 78.5179 43.3827L75.6391 45.6016C75.1934 45.9342 74.6647 46.1355 74.112 46.1831C73.5594 46.2307 73.0044 46.1226 72.5091 45.871L66.6129 42.9974C66.5007 42.9418 66.4109 42.849 66.3585 42.7346C66.3062 42.6202 66.2945 42.4911 66.3254 42.369C66.3636 42.1474 66.4465 41.9361 66.5691 41.748C66.6916 41.56 66.8512 41.3994 67.0379 41.276C67.2242 41.1547 67.4338 41.0741 67.6529 41.0394C67.8721 41.0047 68.0961 41.0167 68.3104 41.0745L69.6929 41.4196L65.1554 35.2618C64.7654 34.7228 64.8404 33.9799 65.3304 33.6071C65.8216 33.2356 66.5379 33.3641 66.9404 33.8892L69.6929 37.609C69.5109 37.3651 69.429 37.06 69.4641 36.7569C69.4992 36.4538 69.6487 36.1759 69.8816 35.9808L69.9066 35.9682C70.3979 35.5955 71.1141 35.7239 71.5166 36.2503L71.7416 36.5576C71.3404 36.0186 71.4291 35.2756 71.9179 34.9029C72.4091 34.5314 73.1254 34.6586 73.5279 35.185L73.8291 35.6987Z" fill="white"/>
<path d="M73.8836 46.517C73.3602 46.5151 72.8442 46.3928 72.3748 46.1594L66.4811 43.2883C66.3054 43.2 66.1642 43.0548 66.0803 42.876C65.9964 42.6972 65.9747 42.4951 66.0186 42.3023C66.0658 42.041 66.1649 41.7921 66.3099 41.5703C66.4549 41.3485 66.6428 41.1585 66.8623 41.0116C67.0858 40.8664 67.3365 40.7693 67.599 40.7263C67.8614 40.6834 68.1298 40.6956 68.3873 40.7622L68.9148 40.8894L64.9073 35.4519C64.4098 34.7656 64.5186 33.8224 65.1448 33.3464C65.7736 32.8704 66.6886 33.0316 67.1911 33.6915L69.2136 36.4241C69.2998 36.147 69.4673 35.9015 69.6948 35.7252C69.7106 35.7133 69.7273 35.7028 69.7448 35.6937C69.9543 35.5471 70.199 35.4598 70.4533 35.4408C70.7076 35.4217 70.9624 35.4717 71.1911 35.5854C71.2411 35.2125 71.4357 34.8747 71.7323 34.646C71.9594 34.4808 72.2294 34.3859 72.5092 34.3732C72.789 34.3604 73.0664 34.4303 73.3073 34.5742C73.3836 34.2594 73.5648 33.9811 73.8198 33.7872C73.8344 33.7751 73.8503 33.765 73.8673 33.757C74.4886 33.3074 75.3898 33.4648 75.8873 34.1171C76.5948 35.0691 76.9523 35.5527 77.4423 36.2201L79.2473 38.663C79.8139 39.4257 80.0758 40.3748 79.9811 41.3226C79.9384 41.7774 79.803 42.2185 79.5836 42.6184C79.3654 43.0166 79.0675 43.3648 78.7086 43.6409L75.8298 45.8597C75.271 46.2895 74.5867 46.521 73.8836 46.5183V46.517ZM67.8998 41.344C67.6867 41.3431 67.4767 41.3962 67.2892 41.4986C67.1018 41.6009 66.943 41.7491 66.8273 41.9296C66.7298 42.0807 66.6648 42.2507 66.6323 42.4295V42.4471C66.6206 42.4991 66.6266 42.5535 66.6496 42.6016C66.6725 42.6496 66.711 42.6884 66.7586 42.7116L72.6498 45.5827C73.0927 45.8109 73.5902 45.9096 74.0859 45.8678C74.5816 45.826 75.0558 45.6452 75.4548 45.3459L78.3336 43.1271C78.6225 42.9019 78.8625 42.6195 79.0388 42.2972C79.2151 41.9749 79.3239 41.6196 79.3586 41.2533C79.4374 40.467 79.2201 39.6796 78.7498 39.0471C77.8698 37.8508 77.3586 37.1633 76.9461 36.6029C76.4561 35.938 76.0973 35.4481 75.3961 34.5062C75.1011 34.1221 74.5736 34.0227 74.2248 34.2884C74.2105 34.2989 74.1954 34.3086 74.1798 34.3173C74.0267 34.4429 73.9281 34.6235 73.9048 34.821C73.8811 34.9847 73.9048 35.1522 73.9698 35.3033L74.1073 35.535C74.1478 35.6054 74.1605 35.6885 74.1428 35.7678C74.1252 35.8471 74.0787 35.9169 74.0123 35.9632C73.9462 36.0087 73.8652 36.0269 73.7861 36.014C73.707 36.0012 73.6359 35.9582 73.5873 35.8939C73.5187 35.8028 73.46 35.7044 73.4123 35.6005L73.2748 35.3701C72.9773 34.9923 72.4598 34.8991 72.1136 35.1623C72.0331 35.2237 71.9656 35.3007 71.915 35.3887C71.8643 35.4767 71.8316 35.5739 71.8186 35.6748C71.7869 35.913 71.8488 36.1543 71.9911 36.3473L72.0011 36.3611C72.0389 36.412 72.0608 36.473 72.0641 36.5364C72.0675 36.5999 72.0521 36.6629 72.0198 36.7175C71.9882 36.7715 71.9414 36.8149 71.8854 36.8422C71.8293 36.8695 71.7665 36.8796 71.7048 36.8711C71.6637 36.865 71.6242 36.8507 71.5886 36.829C71.553 36.8074 71.522 36.7789 71.4973 36.7452L71.4848 36.7276L71.2686 36.4354C70.9761 36.0513 70.4498 35.9531 70.0998 36.2188C70.0861 36.2293 70.0714 36.2385 70.0561 36.2465C69.8959 36.393 69.7965 36.595 69.7777 36.8121C69.7589 37.0292 69.8222 37.2455 69.9548 37.4176C69.9857 37.46 70.0058 37.5093 70.0135 37.5613C70.0212 37.6132 70.0162 37.6663 69.999 37.7159C69.9818 37.7655 69.9528 37.8101 69.9146 37.8459C69.8764 37.8817 69.8302 37.9076 69.7798 37.9213C69.7195 37.9368 69.6558 37.9337 69.5972 37.9124C69.5386 37.8911 69.4877 37.8525 69.4511 37.8017L66.6986 34.0818C66.4036 33.6965 65.8773 33.5983 65.5286 33.864C65.1786 34.1284 65.1273 34.6699 65.4161 35.0716L69.9536 41.2294C69.9825 41.2691 70.002 41.3148 70.0107 41.3632C70.0194 41.4116 70.0171 41.4614 70.0038 41.5088C69.9906 41.5561 69.9668 41.5998 69.9342 41.6365C69.9017 41.6732 69.8613 41.7019 69.8161 41.7205C69.756 41.7444 69.69 41.7488 69.6273 41.7331L68.2448 41.3868C68.1325 41.3582 68.0157 41.3438 67.8998 41.344Z" fill="#00E6C5"/>
<path d="M55.0358 8.97727C55.9595 8.97727 56.7083 8.2129 56.7083 7.27097C56.7083 6.32905 55.9583 5.56467 55.0358 5.56467C54.112 5.56467 53.3633 6.32905 53.3633 7.27097C53.3633 8.2129 54.1133 8.97727 55.0358 8.97727ZM59.7883 8.00134C60.7108 8.00134 61.4595 7.23823 61.4595 6.2963C61.4595 5.35312 60.7108 4.59001 59.7883 4.59001C58.8633 4.59001 58.1158 5.35312 58.1158 6.2963C58.1158 7.23823 58.8645 8.00134 59.7883 8.00134ZM64.4883 7.31001C65.4133 7.31001 66.1608 6.54564 66.1608 5.60371C66.1608 4.66053 65.4133 3.89742 64.4895 3.89742C63.5658 3.89742 62.817 4.66053 62.817 5.60371C62.817 6.54564 63.5658 7.31001 64.4883 7.31001Z" fill="#ECF2F9"/>
</g>
<defs>
<clipPath id="clip0_191_5070">
<rect width="80" height="68" fill="white"/>
</clipPath>
</defs>
</svg>
