<svg width="80" height="69" viewBox="0 0 80 69" fill="none" xmlns="http://www.w3.org/2000/svg">
<g clip-path="url(#clip0_191_5126)">
<path d="M11.9245 20.7414C11.5045 20.7414 10.947 20.4177 10.2145 19.7478C9.87445 19.4306 9.54831 19.0987 9.23701 18.753C8.97326 18.9223 8.51701 19.2008 8.02326 19.4517C6.86826 20.0376 6.15326 20.1367 5.77201 19.7679C5.39076 19.4003 5.46076 18.6739 5.99201 17.4859C6.21826 16.974 6.47701 16.5048 6.62576 16.2326C6.26567 15.9343 5.92066 15.6182 5.59201 15.2854C4.68201 14.3583 4.36701 13.7047 4.59451 13.2279C4.82326 12.7512 5.52826 12.5944 6.81076 12.7387C7.35951 12.8014 7.88076 12.9018 8.18576 12.9682C8.30076 12.6759 8.50451 12.1804 8.75701 11.6886C9.34576 10.5357 9.86326 10.0238 10.382 10.0941C10.9008 10.1643 11.2708 10.7904 11.5245 12.0662C11.637 12.612 11.7008 13.1451 11.7333 13.4588C12.0458 13.4776 12.577 13.5202 13.1295 13.6093C14.4083 13.8163 15.0458 14.1588 15.137 14.682C15.2283 15.2064 14.7495 15.7483 13.6295 16.3932C13.1508 16.6679 12.6695 16.895 12.3845 17.0204C12.4633 17.3278 12.587 17.8509 12.672 18.4029C12.8695 19.6926 12.7395 20.409 12.2658 20.6561C12.1611 20.7132 12.0436 20.7425 11.9245 20.7414ZM9.29326 18.0153C9.33902 18.0156 9.38418 18.0258 9.42562 18.0453C9.46705 18.0648 9.50378 18.0931 9.53326 18.1282C10.5183 19.2886 11.7008 20.2421 11.9695 20.0916C12.2633 19.9385 12.1308 18.4029 11.7045 16.9263C11.6832 16.8507 11.6903 16.7699 11.7244 16.6991C11.7585 16.6284 11.8172 16.5726 11.8895 16.5424C13.3195 15.9503 14.572 15.1173 14.5158 14.7949C14.4608 14.4724 12.9658 14.1274 11.442 14.0848C11.3634 14.0825 11.2885 14.0509 11.2319 13.9961C11.1753 13.9414 11.141 13.8674 11.1358 13.7887C11.022 12.2519 10.6183 10.7703 10.3058 10.7276H10.292C9.96951 10.7276 9.19951 12.0324 8.69201 13.4525C8.66552 13.5267 8.61244 13.5884 8.54312 13.6255C8.4738 13.6626 8.39319 13.6725 8.31701 13.6532C6.83951 13.2907 5.31201 13.2204 5.17451 13.5064C5.03576 13.795 6.04076 14.9617 7.24201 15.9076C7.30388 15.9561 7.34575 16.0258 7.35959 16.1034C7.37343 16.1809 7.35827 16.2609 7.31701 16.3279C6.50451 17.6602 5.97701 19.0804 6.21201 19.3075C6.44701 19.5358 7.85576 18.9236 9.11576 18.0705C9.16788 18.0353 9.22923 18.0166 9.29201 18.0165L9.29326 18.0153Z" fill="#00E6C5"/>
<path d="M23.7827 23.9292C31.3077 17.5385 33.9552 8.10436 41.0752 3.44623C48.2077 -1.18681 59.8002 -1.07139 65.6477 3.33081C71.4977 7.73427 72.5652 18.3352 72.2139 26.4345C71.8614 34.5326 70.0651 40.1793 67.7014 45.0432C65.3102 49.9209 62.3264 54.0671 58.0426 57.6865C53.7602 61.3059 48.1677 64.4008 41.1427 65.427C34.1177 66.4533 25.6602 65.4271 17.4464 60.9985C9.26015 56.57 1.3589 48.7541 3.08765 42.1954C4.8164 35.6366 16.2589 30.3474 23.7827 23.9292Z" fill="#ECF2F9"/>
<path d="M28.9359 11.6071L34.1697 18.8634C34.7185 19.627 35.4451 20.2443 36.286 20.6615C37.127 21.0787 38.0569 21.2832 38.9947 21.257L47.8947 21.0275C52.6809 20.8995 55.5247 26.3656 52.7197 30.2697L47.4872 37.5285C46.9357 38.2933 46.5772 39.1808 46.4425 40.1151C46.3077 41.0494 46.4007 42.0026 46.7134 42.8929L49.6722 51.3548C51.2722 55.9001 46.9922 60.3299 42.4472 58.8319L33.9784 56.0657C33.0878 55.7759 32.1403 55.7084 31.2178 55.8691C30.2954 56.0298 29.4259 56.4138 28.6847 56.9878L21.6247 62.4413C17.8284 65.3731 12.3309 62.6458 12.3309 57.8195V48.8458C12.33 47.9026 12.1023 46.9736 11.667 46.1378C11.2318 45.3019 10.6019 44.5838 9.83093 44.0446L2.50343 38.9637C-1.44407 36.2225 -0.555317 30.1166 3.98968 28.6313L12.4584 25.8537C13.3486 25.5616 14.1544 25.056 14.8059 24.3809C15.4591 23.7042 15.9386 22.8785 16.2034 21.9746L18.7297 13.371C20.0859 8.73919 26.1172 7.70294 28.9359 11.6071Z" fill="#FFCC00"/>
<path d="M26.3396 13.248C24.5934 14.8613 23.2646 15.7031 24.2521 18.1909C25.2396 20.6799 26.1559 21.1353 26.1559 21.1353C26.1559 21.1353 25.2121 20.8292 25.1334 21.5957C25.0546 22.361 27.9609 23.5867 28.8809 23.5867C29.4484 24.9253 28.8809 26.9928 28.8809 26.9928C28.4245 27.2066 28.0252 27.5263 27.7162 27.9255C27.4071 28.3247 27.1971 28.7919 27.1034 29.2886C24.8259 30.4077 21.9134 32.0235 19.4859 35.2C17.0584 38.3778 15.3784 44.4673 16.3946 61.75C22.6596 64.387 28.2546 56.176 28.2546 56.176L42.6696 39.2572L39.6771 22.9983V15.2201L26.3396 13.248Z" fill="#FFB200"/>
<path d="M20.0576 58.2586C20.0576 52.0824 20.5651 41.5405 21.9176 38.0315C23.2701 34.5226 31.5789 30.3123 31.5789 30.3123C31.5789 30.3123 32.4039 27.9061 32.8239 26.9439C33.2426 25.9816 43.8989 25.2327 43.8989 25.2327L41.5476 33.1514L40.5601 43.6381V46.7255L40.2214 51.2708L38.9164 52.0385L30.6764 61.1102L20.0576 58.2586Z" fill="white"/>
<path d="M58.9 20.2383C58.4139 20.2377 57.9288 20.1948 57.45 20.1104C56.3574 19.9205 55.3128 19.5162 54.376 18.9205C53.4393 18.3248 52.6289 17.5495 51.9913 16.639C50.6996 14.7949 50.1874 12.5129 50.5663 10.291C50.9427 8.0718 52.1801 6.09275 54.0075 4.78733C54.9104 4.14276 55.9314 3.68379 57.0118 3.43683C58.0922 3.18987 59.2105 3.15981 60.3025 3.34837C60.3544 3.35702 60.4033 3.37847 60.4449 3.4108C60.4865 3.44313 60.5194 3.48532 60.5408 3.53358C60.5621 3.58184 60.5711 3.63467 60.5671 3.6873C60.563 3.73994 60.546 3.79074 60.5175 3.83513C60.4837 3.88816 60.4351 3.93009 60.3778 3.95573C60.3205 3.98136 60.2569 3.9896 60.195 3.97941C58.6738 3.71594 57.1089 3.91336 55.7 4.54646C54.2892 5.18103 53.0976 6.22147 52.2763 7.53604C51.4526 8.85324 51.035 10.3853 51.0759 11.9399C51.1168 13.4944 51.6144 15.0022 52.5063 16.274C53.3952 17.5427 54.6394 18.5182 56.0813 19.0766C57.5217 19.6336 59.0949 19.7472 60.6 19.4028C62.1063 19.058 63.4764 18.2715 64.5363 17.1434C65.5986 16.0127 66.304 14.5919 66.5638 13.0598C66.7753 11.7583 66.6672 10.4246 66.2488 9.17448C66.2233 9.0946 66.2299 9.00789 66.2673 8.93287C66.3047 8.85785 66.3698 8.80048 66.4488 8.77302C66.5282 8.74591 66.615 8.75156 66.6903 8.78874C66.7655 8.82591 66.823 8.89156 66.85 8.97124C67.3018 10.3206 67.4185 11.7603 67.19 13.1652C66.8564 15.1373 65.8417 16.9285 64.3238 18.2248C62.8098 19.517 60.8887 20.2295 58.9013 20.2358L58.9 20.2383Z" fill="#00E6C5"/>
<path d="M59.4751 16.7219C59.4568 16.7239 59.4384 16.7239 59.4201 16.7219L56.2288 16.1661C56.1554 16.1663 56.0842 16.1409 56.0274 16.0942C55.9706 16.0475 55.9318 15.9825 55.9176 15.9102L54.3151 7.9137C54.3061 7.86971 54.3064 7.82432 54.316 7.78046C54.3256 7.73661 54.3443 7.69526 54.3708 7.65908C54.3973 7.62291 54.4311 7.59271 54.4699 7.57045C54.5088 7.54818 54.5518 7.53433 54.5963 7.52981L57.6788 7.22872C57.7592 7.22036 57.8397 7.2433 57.9036 7.2928C57.9676 7.3423 58.0102 7.41457 58.0226 7.49468L58.6063 10.9999L62.0901 4.7811C62.1305 4.71256 62.1948 4.66159 62.2707 4.63816C62.3465 4.61473 62.4283 4.62052 62.5001 4.65439L65.3101 5.95535C65.3504 5.97377 65.3864 6.00039 65.4158 6.03354C65.4453 6.06668 65.4675 6.10561 65.4812 6.14786C65.4948 6.19011 65.4995 6.23474 65.495 6.27893C65.4905 6.32311 65.4769 6.36587 65.4551 6.40448L59.7513 16.56C59.7242 16.6094 59.6844 16.6506 59.6361 16.6793C59.5877 16.708 59.5325 16.7231 59.4763 16.7231L59.4751 16.7219ZM56.4951 15.5551L59.3088 16.0469L64.7313 6.38566L62.5001 5.35192L58.7176 12.0938C58.6854 12.1514 58.6361 12.1974 58.5767 12.2257C58.5173 12.2539 58.4506 12.263 58.3858 12.2515C58.3211 12.2401 58.2615 12.2088 58.2152 12.1619C58.1689 12.115 58.1383 12.0548 58.1276 11.9897L57.4438 7.89363L55.0063 8.13199L56.4951 15.5551Z" fill="#00E6C5"/>
<path d="M44.2619 24.6142C45.3906 24.6643 45.9244 26.1999 46.2719 26.3492C46.6181 26.4972 53.6344 24.7559 55.7731 27.5485C57.9106 30.3412 53.8256 39.2484 53.8256 39.2484C53.8256 39.2484 55.9969 44.1048 56.4019 44.6254C56.8069 45.1448 55.5494 58.7077 53.5544 60.7827C51.7144 62.6959 46.7444 64.111 46.7444 64.111L34.7194 65.3681L31.5781 53.5001L34.7194 33.4888L44.2619 24.6142Z" fill="white"/>
<path d="M55.88 27.6966C50.9837 33.0736 52.2837 38.1595 53.0262 40.1279C53.625 41.7111 59.725 50.03 63.2075 53.3282C63.7587 53.8522 64.4419 54.2154 65.1836 54.3786C65.9252 54.5417 66.6972 54.4987 67.4162 54.2541C67.9997 54.0534 68.5315 53.7254 68.9735 53.2938C69.4156 52.8621 69.7567 52.3374 69.9725 51.7575C70.1895 51.1768 70.2767 50.5553 70.2279 49.937C70.1791 49.3187 69.9955 48.7187 69.69 48.1796C65.4525 40.7552 55.88 27.6966 55.88 27.6966Z" fill="white"/>
<path d="M67.9516 33.593C67.9516 33.593 69.3016 33.4211 71.4666 34.3432C73.4416 35.1825 74.3779 36.3392 74.3779 36.3392L70.6654 37.9249C70.6654 37.9249 67.7754 35.131 67.7891 35.0608C67.8029 34.9905 67.9516 33.593 67.9516 33.593Z" fill="#67B0F8"/>
<path d="M67.1491 26.1058C67.4241 26.8172 68.2054 29.2108 68.2054 29.2108C68.5154 31.7325 69.0941 32.9519 69.6329 33.5829L68.6704 35.939L68.9241 36.0506L71.8591 37.2964L72.1129 37.4068L73.0991 34.9943C73.1554 34.9454 74.9866 33.3559 75.7104 31.6585C76.4529 29.941 76.7041 29.32 77.4004 28.8433C78.0966 28.3653 79.4966 27.0781 79.4966 27.0781C79.4966 27.0781 80.3379 26.343 79.8466 25.7709C79.3529 25.2001 76.4116 27.8622 76.4116 27.8622C76.4116 27.8622 76.1241 28.0981 75.9666 28.0303C75.9319 28.01 75.9043 27.9793 75.8879 27.9425V27.93C75.7879 27.6301 78.1604 23.8464 78.1604 23.8464C78.1604 23.8464 78.6079 23.0937 77.9941 22.7675C77.3816 22.4413 76.9216 23.445 76.4354 24.2127L74.7854 26.7519C74.7854 26.7519 74.4191 26.9602 74.4491 26.6139C74.4804 26.2664 76.0204 21.9771 76.0204 21.9771C76.0204 21.9771 76.3591 21.0939 75.7079 20.9058C75.0566 20.7176 74.8741 21.4176 74.4154 22.7838C74.1616 23.5616 73.5504 25.4497 73.2916 26.1673C73.2871 26.1887 73.2751 26.2078 73.2579 26.2213C73.2471 26.2301 73.2347 26.2366 73.2213 26.2405C73.2079 26.2443 73.1939 26.2454 73.1801 26.2436C73.1663 26.2419 73.153 26.2373 73.141 26.2302C73.129 26.2232 73.1186 26.2137 73.1104 26.2024C73.0994 26.1878 73.0925 26.1705 73.0904 26.1523C73.0904 26.1397 73.0816 26.1272 73.0904 26.1146L73.6654 21.9408C73.6654 21.9408 73.7191 21.1604 73.2079 21.0588C72.5079 20.9308 72.3566 21.4038 72.0404 23.1075C71.8816 23.9894 71.7066 24.9542 71.5691 25.6668L71.5191 25.9239C71.4291 26.4546 71.3616 26.8071 71.3616 26.8071C71.3616 26.8071 71.0079 28.0153 70.2866 28.3615C70.2866 28.3615 69.1454 26.2137 68.3904 25.673C67.6366 25.1336 66.8529 25.3293 67.1491 26.1058Z" fill="#FFD1BF"/>
<path d="M72.5803 32.3861H72.5278C72.4456 32.3705 72.3729 32.323 72.3254 32.254C72.2779 32.1849 72.2594 32.0998 72.2741 32.0172C72.5353 30.4428 71.6741 29.5207 70.9053 29.0239C70.836 28.9774 70.7876 28.9055 70.7705 28.8237C70.7533 28.7418 70.7688 28.6565 70.8136 28.586C70.8584 28.5155 70.9289 28.4653 71.0101 28.4463C71.0912 28.4274 71.1766 28.441 71.2478 28.4844C72.5616 29.335 73.1516 30.6259 72.8978 32.1239C72.8845 32.1984 72.8453 32.2657 72.7872 32.314C72.729 32.3622 72.6557 32.3869 72.5803 32.3861Z" fill="#F4977A"/>
<path d="M67.585 51.6371C69.49 47.5899 73.66 38.1796 74.4062 36.4998C74.4171 36.4744 74.4211 36.4466 74.4178 36.4192C74.4144 36.3918 74.4039 36.3658 74.3872 36.3438C74.3706 36.3218 74.3484 36.3047 74.3229 36.2942C74.2975 36.2837 74.2697 36.2802 74.2425 36.284C70.4425 36.8899 68.6012 34.4724 68.0962 33.6545C68.0806 33.6317 68.0594 33.6134 68.0346 33.6015C68.0098 33.5896 67.9823 33.5843 67.9548 33.5864C67.9274 33.5884 67.901 33.5976 67.8782 33.6131C67.8554 33.6285 67.837 33.6497 67.8249 33.6745C67.0337 35.5275 63.3874 43.4725 61.3112 49.0364C61.1159 49.5541 61.0513 50.1123 61.1233 50.6611C61.1953 51.2099 61.4015 51.7323 61.7237 52.1816C62.0457 52.6286 62.4734 52.9883 62.9682 53.2283C63.4631 53.4683 64.0096 53.5811 64.5587 53.5566L64.7424 53.544C65.3443 53.5159 65.9271 53.3235 66.428 52.9874C66.9289 52.6514 67.3289 52.1845 67.585 51.6371Z" fill="white"/>
<path d="M64.3754 53.8702C64.1189 53.8719 63.8631 53.8446 63.6129 53.7886C63.5492 53.7774 63.4905 53.7468 63.4447 53.701C63.3989 53.6553 63.3681 53.5965 63.3566 53.5327C63.3464 53.4798 63.3497 53.4251 63.3663 53.3738C63.3828 53.3225 63.4121 53.2763 63.4513 53.2394C63.4905 53.2026 63.5384 53.1763 63.5905 53.1631C63.6426 53.1499 63.6972 53.1501 63.7491 53.1639C64.0091 53.2203 64.2741 53.2416 64.5404 53.2266L64.7191 53.214C65.2635 53.193 65.7915 53.021 66.2444 52.7172C66.6974 52.4133 67.0577 51.9896 67.2854 51.4928C68.6666 48.5572 71.2741 42.7235 72.8329 39.2359C71.9166 39.2986 70.0491 39.1606 67.7329 37.5636C67.6656 37.5149 67.6199 37.4418 67.6054 37.3599C67.591 37.2779 67.6089 37.1935 67.6554 37.1246C67.7019 37.0557 67.7734 37.0077 67.8546 36.9908C67.9358 36.974 68.0204 36.9895 68.0904 37.0342C69.6529 38.1131 70.9816 38.4606 71.8191 38.571C72.7241 38.6814 73.2691 38.5371 73.2754 38.5346C73.3337 38.5188 73.3952 38.5201 73.4528 38.5384C73.5104 38.5566 73.5616 38.591 73.6004 38.6375C73.6389 38.6813 73.6645 38.735 73.6744 38.7926C73.6843 38.8502 73.6782 38.9094 73.6566 38.9637L73.4179 39.4994C71.8566 42.987 69.2479 48.8244 67.8641 51.765C67.5865 52.3657 67.1498 52.8782 66.6016 53.2467C66.0546 53.6147 65.417 53.8239 64.7591 53.8514L64.5841 53.8639C64.5146 53.8685 64.445 53.8706 64.3754 53.8702ZM61.1104 50.7777C61.0407 50.7776 60.9731 50.7544 60.918 50.7117C60.8628 50.6691 60.8232 50.6094 60.8054 50.5419C60.1704 48.1934 61.8316 43.1363 63.5354 42.2205C63.5815 42.1953 63.6331 42.182 63.6856 42.1818C63.7381 42.1817 63.7898 42.1946 63.836 42.2195C63.8823 42.2444 63.9216 42.2805 63.9505 42.3244C63.9794 42.3684 63.997 42.4189 64.0016 42.4714C64.0079 42.5343 63.9954 42.5977 63.9658 42.6535C63.9363 42.7093 63.8908 42.7551 63.8354 42.785C62.4941 43.5089 60.8229 48.1683 61.4229 50.3788C61.435 50.4261 61.4362 50.4756 61.4265 50.5235C61.4168 50.5714 61.3963 50.6164 61.3667 50.6552C61.3371 50.694 61.2991 50.7255 61.2555 50.7474C61.212 50.7693 61.164 50.7809 61.1154 50.7815L61.1104 50.7777Z" fill="#DAE7F2"/>
<path d="M42.6592 9.20334C42.6592 9.20334 44.7417 13.12 43.5092 14.0547C42.0367 15.1812 41.6692 13.5942 41.6692 13.5942L40.2217 9.70265L42.6592 9.20334Z" fill="#002669"/>
<path d="M43.6752 14.618C42.9127 13.9154 43.0015 13.3132 42.9377 12.5567C42.873 11.8232 42.702 11.103 42.4302 10.419C41.7261 8.67529 40.373 7.27538 38.6577 6.51611C36.9459 5.75898 35.0069 5.70405 33.2552 6.36306C31.5008 7.02465 30.0722 8.34634 29.2727 10.0477C28.471 11.7524 28.3589 13.7027 28.9602 15.4886C29.144 16.0155 29.3827 16.5211 29.6702 16.9991C29.0102 17.2939 28.3115 17.6903 28.1977 18.4205C28.019 19.5471 28.654 20.7 29.8727 21.3649C30.4952 21.7112 32.0702 22.5429 33.0852 21.4552C33.7202 22.7349 34.254 24.5013 34.4565 26.5236L42.7227 25.6918C42.6691 25.4043 42.6348 25.1134 42.6202 24.8212C42.7743 24.7845 42.9269 24.7418 43.0777 24.6932C44.7277 24.1174 45.1977 23.4638 45.0452 22.1716C45.0452 22.1716 44.7027 17.3203 44.614 16.629C44.4615 15.5915 44.0315 14.9379 43.6752 14.618Z" fill="#FFD1BF"/>
<path d="M32.3999 20.7753C32.3428 20.7759 32.2866 20.7608 32.2375 20.7316C32.1884 20.7024 32.1481 20.6602 32.1212 20.6097C32.1099 20.5909 31.0487 18.6777 29.7337 18.6777C29.6599 18.6752 29.5865 18.6882 29.518 18.7159C29.4496 18.7435 29.3876 18.7852 29.3362 18.8383C29.3066 18.8679 29.2715 18.8914 29.2329 18.9075C29.1943 18.9235 29.153 18.9318 29.1112 18.9318C29.0694 18.9318 29.028 18.9235 28.9894 18.9075C28.9508 18.8914 28.9157 18.8679 28.8862 18.8383C28.8566 18.8086 28.8332 18.7734 28.8172 18.7347C28.8012 18.6959 28.793 18.6544 28.793 18.6124C28.793 18.5705 28.8012 18.529 28.8172 18.4902C28.8332 18.4515 28.8566 18.4163 28.8862 18.3866C28.9967 18.2741 29.1288 18.1851 29.2744 18.125C29.42 18.0648 29.5762 18.0348 29.7337 18.0366C31.4249 18.0366 32.6274 20.2132 32.6774 20.3011C32.7032 20.3498 32.7162 20.4044 32.7151 20.4597C32.7139 20.5149 32.6987 20.5689 32.6709 20.6165C32.6431 20.6642 32.6036 20.7039 32.5562 20.7319C32.5087 20.7599 32.4549 20.7753 32.3999 20.7765V20.7753Z" fill="#F4977A"/>
<path d="M30.5701 20.8355C30.5201 20.8355 30.4701 20.8229 30.4264 20.8004C29.8964 20.5281 29.6339 19.7215 29.8876 19.1368C30.0664 18.7279 30.5464 18.4017 31.3564 18.7078C31.4153 18.73 31.4662 18.7693 31.5028 18.8207C31.5393 18.8721 31.5597 18.9332 31.5614 18.9963C31.563 19.0593 31.5463 19.1214 31.5132 19.1749C31.4801 19.2284 31.4321 19.271 31.3751 19.2974C31.2987 19.3325 31.2115 19.3356 31.1326 19.3062C30.7764 19.172 30.5539 19.2021 30.4689 19.394C30.3526 19.6575 30.4864 20.1079 30.7151 20.2245C30.7791 20.257 30.8302 20.3103 30.8602 20.3757C30.8902 20.4411 30.8972 20.5147 30.8801 20.5846C30.8633 20.6544 30.8236 20.7164 30.7674 20.7608C30.7111 20.8052 30.6417 20.8293 30.5701 20.8292V20.8355ZM40.9064 25.18C39.8814 25.18 38.5376 25.1298 37.2489 24.7434C35.9601 24.357 35.1039 23.805 34.5964 23.0096C34.5557 22.9476 34.5378 22.8733 34.5457 22.7994C34.5536 22.7256 34.5868 22.6568 34.6398 22.6049C34.6927 22.553 34.7619 22.5211 34.8357 22.5149C34.9094 22.5086 34.983 22.5283 35.0439 22.5705C35.0782 22.5957 35.1075 22.6272 35.1301 22.6634C35.3951 23.0774 35.9201 23.6808 37.4289 24.1312C38.6401 24.4925 39.9239 24.5402 40.9064 24.5402C40.9482 24.54 40.9897 24.5482 41.0284 24.5642C41.0671 24.5802 41.1022 24.6038 41.1317 24.6336C41.1613 24.6633 41.1846 24.6987 41.2004 24.7375C41.2163 24.7764 41.2242 24.8181 41.2239 24.8601C41.2236 24.9446 41.1901 25.0256 41.1306 25.0855C41.0712 25.1454 40.9906 25.1793 40.9064 25.18ZM41.3502 19.0227C41.272 19.0235 41.1963 18.9952 41.1376 18.9433C41.079 18.8915 41.0416 18.8196 41.0326 18.7417C41.0233 18.6637 41.0427 18.5849 41.0871 18.5202C41.1315 18.4556 41.198 18.4094 41.2739 18.3904C42.0489 18.1959 42.3064 17.738 42.3864 17.3867C42.3926 17.3586 42.3908 17.3293 42.3811 17.3022C42.3713 17.2751 42.3541 17.2513 42.3314 17.2337C41.4726 16.5211 40.3989 15.515 40.1489 14.7723C40.063 14.4811 40.048 14.1735 40.1051 13.8753C40.1151 13.8 40.1251 13.721 40.1326 13.6331C40.1412 13.5489 40.1824 13.4714 40.2475 13.4174C40.3125 13.3634 40.3961 13.3372 40.4801 13.3446C40.5219 13.3484 40.5625 13.3604 40.5996 13.38C40.6367 13.3996 40.6696 13.4264 40.6963 13.4588C40.7231 13.4913 40.7431 13.5287 40.7554 13.5689C40.7676 13.6092 40.7718 13.6515 40.7676 13.6934C40.7596 13.7793 40.75 13.865 40.7389 13.9505C40.7064 14.2065 40.6864 14.3683 40.7526 14.5678C40.9051 15.0219 41.6414 15.8349 42.7364 16.7444C42.8499 16.8377 42.9355 16.9606 42.9836 17.0997C43.0317 17.2388 43.0404 17.3885 43.0089 17.5323C42.9089 17.9663 42.5714 18.7291 41.4301 19.0177C41.4042 19.0227 41.3765 19.0243 41.3502 19.0227Z" fill="#F4977A"/>
<path d="M37.4571 16.6654C37.7284 16.5726 37.8421 16.1811 37.7109 15.7935C37.5796 15.4046 37.2521 15.1662 36.9809 15.2603C36.7084 15.3544 36.5934 15.7446 36.7259 16.1335C36.8571 16.5211 37.1846 16.7595 37.4571 16.6654ZM42.1046 15.0822C42.3509 14.9968 42.4546 14.6468 42.3359 14.2981C42.2184 13.9506 41.9234 13.7373 41.6784 13.8213C41.4321 13.9066 41.3284 14.2567 41.4471 14.6054C41.5646 14.9529 41.8596 15.1662 42.1046 15.0822ZM37.9621 12.967C37.9746 13.184 37.7959 13.2744 37.5934 13.3634C36.8559 13.6457 36.4259 13.7988 36.0184 14.1826C35.6934 14.4995 35.4156 14.8616 35.1934 15.2578C35.1934 15.2578 35.5234 14.3106 35.7271 13.9656C36.0571 13.4149 36.5521 12.9795 37.8859 12.5706L37.9621 12.967Z" fill="#002669"/>
<path d="M35.1924 15.451C35.1619 15.4506 35.132 15.4431 35.105 15.4288C35.078 15.4146 35.0548 15.3942 35.0372 15.3692C35.0196 15.3442 35.0082 15.3154 35.0039 15.2851C34.9996 15.2548 35.0025 15.224 35.0124 15.195C35.0261 15.1549 35.3511 14.2253 35.5624 13.8665C35.9086 13.2894 36.4249 12.8164 37.8286 12.3861C37.8542 12.3782 37.8811 12.3759 37.9076 12.3791C37.9342 12.3824 37.9597 12.3912 37.9826 12.4051C38.0055 12.419 38.0252 12.4375 38.0404 12.4595C38.0557 12.4815 38.0662 12.5065 38.0711 12.5329L38.1461 12.9293V12.9544C38.1674 13.3182 37.8524 13.4562 37.6649 13.539L37.5549 13.5817C36.8986 13.8314 36.5049 13.9832 36.1436 14.3219C35.8336 14.6242 35.5686 14.9692 35.3561 15.3468C35.3406 15.377 35.3173 15.4025 35.2888 15.4208C35.2603 15.4391 35.2275 15.4495 35.1936 15.451H35.1924ZM37.7386 12.8164C36.6461 13.1802 36.2074 13.5604 35.9211 14.0108C36.3261 13.6419 36.7674 13.4726 37.4236 13.2216L37.5249 13.184C37.7249 13.0949 37.7699 13.0548 37.7699 12.987L37.7386 12.8164ZM41.1524 11.5845L41.2799 11.9169C41.3811 12.1089 41.5836 12.1478 41.8124 12.1089C42.3461 12.0198 42.7524 12.0712 43.0949 12.2368L43.0699 11.9558C42.7949 11.7607 42.4817 11.6267 42.151 11.5627C41.8204 11.4987 41.4799 11.5061 41.1524 11.5845Z" fill="#002669"/>
<path d="M43.0903 12.4288C43.0617 12.4289 43.0335 12.4225 43.0078 12.41C42.6865 12.2531 42.314 12.218 41.8403 12.2983C41.3653 12.3786 41.1815 12.1478 41.1065 12.0073C41.1024 12.0001 41.099 11.9925 41.0965 11.9847L40.9703 11.6522C40.9602 11.6267 40.9558 11.5993 40.9573 11.5719C40.9589 11.5445 40.9663 11.5178 40.9791 11.4936C40.992 11.4694 41.0099 11.4482 41.0317 11.4317C41.0535 11.4151 41.0786 11.4034 41.1053 11.3975C41.4587 11.3138 41.8259 11.3059 42.1826 11.3745C42.5393 11.443 42.8776 11.5864 43.1753 11.7952C43.1987 11.8112 43.2182 11.8322 43.2325 11.8568C43.2468 11.8813 43.2554 11.9087 43.2578 11.937L43.2828 12.2193C43.285 12.246 43.2817 12.2729 43.273 12.2982C43.2644 12.3236 43.2506 12.3469 43.2325 12.3666C43.2144 12.3863 43.1924 12.402 43.1679 12.4127C43.1434 12.4234 43.117 12.4289 43.0903 12.4288ZM41.4478 11.8354C41.4715 11.8768 41.5353 11.9633 41.7765 11.9194C42.0308 11.8726 42.2905 11.8621 42.5478 11.8881C42.1894 11.7283 41.7934 11.6731 41.4053 11.7287L41.4478 11.8354Z" fill="#002669"/>
<path d="M34.4473 26.5111C34.5273 27.7631 42.6735 30.3751 43.0673 30.4102C43.461 30.4441 45.8498 28.2988 44.856 25.6868C43.8623 23.0749 38.6798 24.8463 38.6798 24.8463L34.4473 26.5111Z" fill="#FFD1BF"/>
<path d="M41.8836 3.62942C41.8836 3.62942 41.1986 2.87418 38.6211 2.74622C36.4748 2.69478 33.1611 3.02723 28.0198 6.15105C27.2573 6.61147 28.1711 8.827 28.3361 9.47936C28.3361 9.47936 26.1523 10.478 26.3811 12.1553C26.7873 15.0872 28.2986 18.1207 28.2986 18.1207C28.2986 18.1207 29.2386 16.7256 31.0161 17.9036C31.4223 18.1721 32.5523 19.2987 32.9198 19.6826C32.953 19.7176 32.9944 19.7436 33.0402 19.7583C33.086 19.7729 33.1348 19.7758 33.182 19.7665C33.2293 19.7573 33.2734 19.7362 33.3104 19.7053C33.3473 19.6744 33.3759 19.6347 33.3936 19.5897C33.4172 19.5297 33.4203 19.4635 33.4023 19.4016L33.3011 19.1707C33.2034 18.9629 33.1186 18.7492 33.0473 18.5309C32.6899 17.4023 32.6548 16.1958 32.9461 15.0483C33.1361 14.2554 32.4248 13.0899 31.4211 11.5155C32.7673 12.3861 33.2123 11.0162 34.8248 10.133C36.2528 9.33198 37.7937 8.75331 39.3948 8.41676C39.7251 8.34648 40.066 8.34245 40.3979 8.40489C40.7297 8.46732 41.046 8.595 41.3286 8.78058C41.8998 9.15443 42.3011 9.74156 42.4423 10.414C42.9298 7.59754 43.8261 4.94042 41.8836 3.62942Z" fill="#002669"/>
<path d="M37.4787 21.8642C38.5949 22.0951 39.1912 20.7502 39.7637 20.3149C41.7574 18.7793 43.9274 18.2285 44.8924 18.7918C45.6299 19.2146 45.3374 20.7502 45.4899 21.3775C45.7687 22.4915 47.2412 24.0409 45.2362 25.5902C43.5474 26.8949 39.3449 26.7168 37.6312 26.2175C36.3224 25.8323 33.3387 20.981 32.9074 19.7001C32.4762 18.4205 32.5137 17.2939 33.0349 18.5485C33.5799 19.7779 36.0437 21.5518 37.4787 21.8642Z" fill="#002669"/>
<path d="M44.6776 20.0727C44.7526 19.1117 40.8814 20.6875 40.5776 21.7751C40.4239 22.3121 41.3514 23.9505 41.6814 24.0923C42.0114 24.2328 43.1026 24.1676 43.2689 23.8489C43.4326 23.529 43.1789 22.9783 43.5476 22.7223C44.1439 22.3121 44.5501 23.3245 44.7026 23.2091C45.1601 22.8754 44.4876 22.2607 44.6776 20.0727Z" fill="#FFD1BF"/>
<path d="M44.1131 21.0915L44.0643 21.1391C43.0493 21.8065 41.2093 22.0424 40.5606 21.9082C40.5602 21.865 40.5656 21.8219 40.5768 21.7802C40.8306 20.7477 44.2093 19.2761 44.1318 20.1869C44.1131 20.5282 44.1131 20.8242 44.1131 21.0915Z" fill="white"/>
<path d="M40.9963 22.2883C40.9544 22.2896 40.9127 22.2826 40.8736 22.2676C40.8345 22.2527 40.7987 22.2301 40.7684 22.2011C40.738 22.1722 40.7137 22.1375 40.6968 22.099C40.6799 22.0606 40.6708 22.0191 40.67 21.9771C40.668 21.8928 40.6991 21.811 40.7566 21.7495C40.8142 21.688 40.8935 21.6517 40.9775 21.6484C42.5013 21.5556 43.1913 21.1843 43.7425 20.8869L43.88 20.8117C43.9263 20.7867 43.9782 20.7737 44.0307 20.7738C44.0833 20.774 44.1351 20.7873 44.1812 20.8126C44.2274 20.8379 44.2666 20.8743 44.2952 20.9186C44.3237 20.9629 44.3409 21.0137 44.345 21.0663C44.3508 21.1293 44.3381 21.1927 44.3083 21.2484C44.2785 21.3042 44.233 21.35 44.1775 21.38L44.0438 21.4502C43.4688 21.7613 42.6838 22.1866 41.015 22.287H40.9963V22.2883Z" fill="#F4977A"/>
<path d="M23.4896 53.963C25.2059 52.9795 30.9121 50.8154 37.4559 51.0123C41.9284 51.1466 44.1009 52.1051 44.2659 56.1886C44.4309 60.2734 20.5371 60.0099 20.5371 59.3337C20.5371 58.6563 21.0309 55.3719 23.4896 53.963Z" fill="white"/>
<path d="M52.891 56.4043C51.6985 55.7645 16.2235 56.2124 10.1673 59.1054C8.04729 60.3725 10.4848 68.4003 11.641 68.8344C14.7635 69.8079 52.1423 66.2111 53.2723 65.0457C54.2885 63.9065 53.7548 56.9927 52.891 56.4043Z" fill="#027BF3"/>
<path d="M14.2046 62.1527C14.2046 62.1527 14.2684 59.8481 14.8909 59.7327C15.5134 59.6173 16.3946 61.75 16.3946 61.75C16.3946 61.75 18.6034 61.1102 18.8946 61.6609C19.1871 62.2117 17.4484 63.7096 17.4484 63.7096C17.4484 63.7096 18.7296 65.6165 18.2984 66.0782C17.8671 66.5386 15.9109 65.3229 15.9109 65.3229C15.9109 65.3229 14.5021 67.1395 13.9434 66.871C13.3846 66.6026 13.9184 64.3619 13.9184 64.3619C13.9184 64.3619 11.7596 63.5816 11.8484 62.9543C11.9371 62.3271 14.2046 62.1527 14.2046 62.1527ZM23.1234 61.0763C23.1234 61.0763 23.3646 58.7855 23.9859 58.709C24.6084 58.6312 25.3196 60.8342 25.3196 60.8342C25.3196 60.8342 27.5671 60.3599 27.8209 60.9358C28.0746 61.5129 26.2209 62.869 26.2209 62.869C26.2209 62.869 27.3634 64.8663 26.9071 65.2891C26.4496 65.7118 24.5821 64.3544 24.5821 64.3544C24.5821 64.3544 23.0471 66.0694 22.5009 65.762C21.9546 65.4547 22.6534 63.2529 22.6534 63.2529C22.6534 63.2529 20.5584 62.3057 20.6984 61.691C20.8371 61.0763 23.1234 61.0763 23.1234 61.0763ZM31.7771 60.4239C31.7771 60.4239 32.0696 58.2987 32.6521 58.2611C33.2371 58.2222 33.8334 60.2834 33.8334 60.2834C33.8334 60.2834 35.9284 59.9121 36.1459 60.4628C36.3609 61.0123 34.5959 62.2167 34.5959 62.2167C34.5959 62.2167 35.5859 64.111 35.1546 64.4949C34.7234 64.8788 33.0209 63.5603 33.0209 63.5603C33.0209 63.5603 31.5359 65.0971 31.0409 64.8023C30.5459 64.5075 31.2696 62.4726 31.2696 62.4726C31.2696 62.4726 29.3521 61.5254 29.4921 60.9621C29.6571 60.3599 31.7771 60.4239 31.7771 60.4239ZM40.1571 60.0777C40.1571 60.0777 40.4996 58.1206 41.0321 58.1068C41.5659 58.0942 42.0609 60.0137 42.0609 60.0137C42.0609 60.0137 44.0171 59.7327 44.1946 60.2445C44.3721 60.7564 42.7084 61.8064 42.7084 61.8064C42.7084 61.8064 43.5721 63.5866 43.1534 63.9316C42.7346 64.2779 41.2234 62.997 41.2234 62.997C41.2234 62.997 39.8009 64.367 39.3571 64.0721C38.9121 63.7786 39.6359 61.9344 39.6359 61.9344C39.6359 61.9344 37.8971 60.9998 38.0484 60.4879C38.2021 59.9497 40.1571 60.0777 40.1571 60.0777ZM47.8509 59.8293C47.8509 59.8293 48.2071 58.0503 48.7009 58.0378C49.1971 58.0252 49.5909 59.8167 49.5909 59.8167C49.5909 59.8167 51.3934 59.6122 51.5459 60.0865C51.6984 60.5594 50.1496 61.4815 50.1496 61.4815C50.1496 61.4815 50.8984 63.1325 50.5046 63.4399C50.1109 63.7472 48.7521 62.5316 48.7521 62.5316C48.7521 62.5316 47.4196 63.761 47.0134 63.4787C46.6071 63.1965 47.3309 61.5204 47.3309 61.5204C47.3309 61.5204 45.7559 60.6234 45.9084 60.1504C46.0609 59.6762 47.8509 59.8305 47.8509 59.8305V59.8293Z" fill="#FFCC00"/>
<path opacity="0.2" d="M47.5578 60.6974C47.3878 60.7852 47.3378 60.7664 47.0415 60.6623C47.038 60.6472 47.0329 60.6325 47.0265 60.6184C47.0297 60.6329 47.0338 60.6471 47.039 60.661C47.0828 60.8091 47.1665 61.3423 46.5603 61.4451C45.6303 61.6032 45.1403 60.2144 44.9553 59.9522C45.1028 60.3361 45.3978 61.1353 44.6253 61.2105C43.7428 61.2946 43.2128 60.3487 43.0628 60.163C43.1903 60.3449 43.4228 60.9245 42.7853 60.9747C42.2153 61.0198 41.9278 60.863 41.4203 60.3587C40.8253 59.7678 40.659 58.31 39.7478 57.4682C39.0503 56.8284 38.829 56.2563 37.6553 56.2927C42.794 56.1196 44.7015 56.8999 47.1403 58.0114C47.3778 58.5045 47.5878 59.0113 47.7678 59.5282C47.9978 60.2709 47.7053 60.6221 47.5578 60.6974Z" fill="#002669"/>
<path d="M45.0702 52.8502C46.0139 52.8502 47.3077 54.1989 48.3927 55.3091C48.7277 55.6516 49.3977 57.2725 49.5227 57.6815C49.7502 58.4229 49.4577 58.7754 49.3102 58.8507C49.1402 58.9385 49.0877 58.9185 48.7914 58.8131C48.6952 58.5572 49.1327 59.4617 48.3152 59.5997C47.3839 59.7577 46.8952 58.3677 46.7102 58.1055C46.8577 58.4894 47.1514 59.2898 46.3802 59.3638C45.4914 59.4479 44.9677 58.5032 44.8177 58.3163C44.9452 58.4982 45.1777 59.0853 44.5402 59.128C43.9702 59.1731 43.6827 59.0188 43.1752 58.5132C42.5802 57.9211 41.7152 56.4646 40.7227 56.3429C39.5302 56.1986 35.2627 56.3579 35.2627 56.3579C35.2627 56.3579 40.7252 52.849 45.0702 52.8502Z" fill="#FFD1BF"/>
<path d="M40.9442 36.9389C40.904 36.9387 40.864 36.9328 40.8255 36.9213C40.3917 36.8046 33.3942 32.8515 31.7579 31.2608C31.7136 31.2164 31.6831 31.1601 31.6702 31.0986C31.6573 31.0371 31.6626 30.9731 31.6854 30.9146C31.7083 30.8561 31.7477 30.8056 31.7987 30.7692C31.8498 30.7329 31.9104 30.7123 31.9729 30.71C32.0573 30.7089 32.1387 30.7414 32.1992 30.8004C33.6655 32.2268 39.7417 35.6881 40.8492 36.2376C41.1742 35.7533 41.953 33.9857 42.4355 32.8892C43.3605 30.7866 43.3817 30.7803 43.5779 30.7226C43.6233 30.7098 43.6708 30.7069 43.7174 30.714C43.764 30.7212 43.8085 30.7382 43.8479 30.764C43.8979 30.7979 44.023 30.9057 44.5892 31.3925C45.2767 31.9872 46.7267 33.2405 47.3667 33.731C47.488 32.706 47.4842 29.675 46.6555 28.0767C46.6206 28.0019 46.6159 27.9165 46.6422 27.8382C46.6685 27.7599 46.7238 27.6949 46.7967 27.6565C46.8694 27.6185 46.954 27.6104 47.0326 27.6338C47.1112 27.6572 47.1776 27.7103 47.2179 27.7819C48.2342 29.7491 48.163 33.8564 47.853 34.3658C47.8224 34.4201 47.7781 34.4655 47.7246 34.4972C47.6711 34.5289 47.6101 34.5459 47.5479 34.5464C47.3617 34.5464 47.258 34.5464 44.173 31.8793L43.7454 31.5117C43.5704 31.8768 43.2755 32.5429 43.0092 33.1489C41.588 36.3906 41.2805 36.9389 40.9442 36.9389ZM56.403 44.9466H56.3892C56.3264 44.9453 56.2654 44.9252 56.2141 44.8887C56.1629 44.8522 56.1237 44.8012 56.1017 44.7421C56.0865 44.7025 56.0793 44.6603 56.0804 44.6179C56.0804 44.5364 56.2805 36.4333 55.243 33.0811C55.2182 33.0001 55.2262 32.9126 55.2653 32.8374C55.3044 32.7623 55.3713 32.7056 55.4517 32.6797C55.4916 32.6671 55.5336 32.6626 55.5752 32.6664C55.6168 32.6702 55.6573 32.6822 55.6943 32.7018C55.7312 32.7214 55.764 32.7482 55.7906 32.7806C55.8171 32.8129 55.8371 32.8503 55.8492 32.8904C56.9167 36.3467 56.7242 44.2968 56.7155 44.6355C56.7132 44.7177 56.6795 44.7959 56.6213 44.8539C56.5631 44.9118 56.4849 44.945 56.403 44.9466ZM22.9754 56.1372C22.7098 56.1492 22.4448 56.1007 22.2005 55.9954C22.0977 55.9519 22.0123 55.8752 21.9579 55.7775C21.9036 55.6797 21.8833 55.5666 21.9005 55.4559C22.028 54.7158 24.1755 52.9418 28.5492 51.6735C28.9367 50.8342 29.2354 49.9548 29.4379 49.0515C29.7917 47.5385 29.9392 45.9829 29.8767 44.4285C29.6617 40.7326 27.4742 37.8885 24.5605 37.5159C24.5184 37.5108 24.4779 37.4974 24.4411 37.4764C24.4043 37.4554 24.3721 37.4273 24.3463 37.3937C24.3204 37.36 24.3015 37.3216 24.2907 37.2805C24.2798 37.2395 24.2772 37.1967 24.283 37.1546C24.2909 37.0915 24.3172 37.0322 24.3585 36.984C24.3999 36.9358 24.4545 36.9009 24.5154 36.8837C24.5561 36.8725 24.5986 36.8695 24.6405 36.8749C27.8629 37.2926 30.278 40.3826 30.5117 44.3896C30.5763 46.0053 30.4232 47.6224 30.0567 49.197C29.8817 49.9686 29.6417 50.7238 29.343 51.4552C30.9627 51.0419 32.6092 50.7422 34.2705 50.5582C37.1905 50.2245 40.9067 50.1191 41.9705 51.5142C42.0075 51.5649 42.0288 51.6255 42.0318 51.6883C42.0349 51.7511 42.0195 51.8135 41.9875 51.8676C41.9556 51.9217 41.9085 51.9652 41.8521 51.9927C41.7958 52.0202 41.7326 52.0305 41.6704 52.0223C41.6291 52.0161 41.5894 52.0019 41.5536 51.9804C41.5178 51.9589 41.4866 51.9305 41.4617 51.8968C41.1404 51.4765 39.8117 50.5657 34.3367 51.1905C32.5324 51.3861 30.7462 51.7229 28.9942 52.1979C28.6791 52.8321 28.2727 53.4163 27.7879 53.9317C26.3104 55.4672 24.2104 56.1359 22.9754 56.1372ZM22.5942 55.466C23.2017 55.6228 25.6129 55.2803 27.3417 53.4901C27.6404 53.1785 27.9045 52.8353 28.1292 52.4664C24.5205 53.598 22.9204 55.0081 22.5879 55.4647H22.5942V55.466Z" fill="#DAE7F2"/>
<path d="M46.2731 51.7023H46.2494C46.2076 51.6996 46.1668 51.6886 46.1292 51.6699C46.0917 51.6513 46.0583 51.6253 46.0308 51.5936C46.0034 51.5618 45.9825 51.5249 45.9694 51.485C45.9562 51.4451 45.9512 51.403 45.9544 51.3611C45.9544 51.3335 46.1331 48.5609 46.0194 45.1523C45.8731 40.6636 45.2906 37.1195 44.3406 34.8989C44.3137 34.8227 44.3165 34.739 44.3485 34.6648C44.3805 34.5906 44.4394 34.5313 44.5132 34.4988C44.587 34.4664 44.6704 34.4632 44.7464 34.49C44.8225 34.5167 44.8856 34.5714 44.9231 34.643C47.2906 40.1705 46.6169 50.9458 46.5869 51.4012C46.5818 51.482 46.5466 51.5579 46.4882 51.6137C46.4298 51.6696 46.3538 51.7012 46.2731 51.7023Z" fill="#DAE7F2"/>
</g>
<defs>
<clipPath id="clip0_191_5126">
<rect width="80" height="69" fill="white"/>
</clipPath>
</defs>
</svg>
