<svg width="56" height="56" viewBox="0 0 56 56" fill="none" xmlns="http://www.w3.org/2000/svg">
<path d="M28 18.6666V27.9999M28 37.3332H28.0233M7 18.53V37.4699C7 38.2694 7 38.6691 7.1178 39.0257C7.22201 39.3411 7.39237 39.6306 7.61748 39.8749C7.87193 40.151 8.22138 40.3451 8.92027 40.7334L26.1869 50.326C26.8487 50.6936 27.1795 50.8774 27.5299 50.9495C27.8401 51.0133 28.1599 51.0133 28.4701 50.9495C28.8205 50.8774 29.1513 50.6936 29.8131 50.326L47.0797 40.7334C47.7786 40.3451 48.1281 40.151 48.3825 39.8749C48.6076 39.6306 48.778 39.3411 48.8822 39.0257C49 38.6691 49 38.2694 49 37.4699V18.53C49 17.7305 49 17.3307 48.8822 16.9742C48.778 16.6588 48.6076 16.3692 48.3825 16.125C48.1281 15.8488 47.7786 15.6547 47.0797 15.2664L29.8131 5.67384C29.1513 5.3062 28.8205 5.12239 28.4701 5.05032C28.1599 4.98654 27.8401 4.98654 27.5299 5.05032C27.1795 5.12239 26.8487 5.3062 26.1869 5.67384L8.92027 15.2664C8.22138 15.6547 7.87193 15.8488 7.61748 16.125C7.39237 16.3692 7.22201 16.6588 7.1178 16.9742C7 17.3307 7 17.7305 7 18.53Z" stroke="#AB2D25" stroke-width="4.66667" stroke-linecap="round" stroke-linejoin="round"/>
</svg>
