<svg width="160" height="32" viewBox="0 0 160 32" fill="none" xmlns="http://www.w3.org/2000/svg">
<g clip-path="url(#clip0_4_837)">
<path d="M15.6938 0H16.0356L17.1473 0.171875C19.6471 0.908125 21.6824 2.73188 23.4191 4.5925C25.5633 6.89001 28.1948 10.8137 25.2227 13.6887C24.7527 14.1433 24.2024 14.4748 23.5716 14.6831L23.4554 14.7119C23.0008 14.831 22.5484 14.869 22.098 14.8256C22.0722 14.8231 22.0553 14.8094 22.0474 14.7844C21.7212 13.7485 21.2583 12.789 20.6588 11.9056L20.5744 11.7469C19.0492 9.55438 17.208 7.6898 15.0507 6.15313C14.1833 5.53521 13.2394 5.03605 12.2191 4.65563C12.1098 4.615 11.9029 4.57375 11.7548 4.50188C11.7461 4.49751 11.7387 4.49086 11.7335 4.48262C11.7282 4.47437 11.7252 4.46484 11.7248 4.455C11.709 4.09125 11.7302 3.7323 11.7886 3.37813L11.8873 2.94875C12.4679 1.32 13.9296 0.098125 15.6938 0Z" fill="#2B5293"/>
<path d="M11.0025 6.22064C11.0438 6.2423 11.0921 6.25064 11.1475 6.24564C12.3107 6.6248 13.3895 7.19168 14.384 7.94626C15.8055 9.02501 17.0829 10.2658 18.2161 11.6688L18.3186 11.7956C19.2747 12.9894 20.0109 14.2906 20.4052 15.8275C20.4102 15.8463 20.4383 15.8815 20.4896 15.9331C23.9808 19.4319 27.4738 22.9287 30.9684 26.4237C31.4733 26.9287 31.807 27.47 31.9414 28.1763C32.237 29.7319 31.3927 31.2237 29.9054 31.8081L29.0417 32H28.5468C28.0056 31.9475 27.5156 31.7817 27.0769 31.5025C26.8711 31.3721 26.5595 31.0977 26.142 30.6794C23.0666 27.6015 19.99 24.5248 16.9125 21.4494C16.8112 21.3477 16.7291 21.2585 16.6662 21.1819C16.6025 21.1031 16.5533 20.9952 16.5188 20.8581C16.2138 19.6406 15.6995 18.5112 14.9758 17.47C14.9787 17.44 14.9623 17.4096 14.9264 17.3787C14.1582 16.2408 13.2766 15.196 12.2817 14.2444L12.1093 14.0694C11.3477 13.289 10.5226 12.5817 9.63391 11.9475L9.4733 11.8338C8.32469 11.0175 7.05733 10.3656 5.68811 10.035C5.66686 10.03 5.65665 10.0165 5.65749 9.99439C5.7656 7.84001 7.73913 6.00751 9.89388 6.06689C10.198 6.07564 10.5676 6.12689 11.0025 6.22064Z" fill="#2B5293"/>
<path d="M5.29756 11.8419L5.52253 11.8988C7.18297 12.4081 8.60843 13.3788 9.90703 14.5225L10.0683 14.6656C12.0074 16.4319 13.9035 18.5406 14.6896 21.1038L14.7759 21.5244C14.8392 21.9044 14.8621 22.2823 14.8446 22.6581L14.8277 23.0006C14.6032 24.1681 13.9962 25.1069 13.0067 25.8169C12.4997 26.1806 11.9424 26.4117 11.335 26.51C11.29 26.5067 11.256 26.5165 11.2331 26.5394C10.3482 26.6094 9.47354 26.4665 8.60906 26.1106C6.78114 25.3594 5.16195 24.05 3.80772 22.6469L3.64587 22.4869C2.8797 21.7194 2.18791 20.8942 1.57048 20.0113C0.708076 18.7788 0.0768968 17.4131 3.05176e-05 15.9044L0.0718979 15.1225C0.200633 14.4779 0.461437 13.9079 0.85431 13.4125C1.9971 11.9725 3.47818 11.449 5.29756 11.8419Z" fill="#2B5293"/>
<path d="M39.952 24L46.672 7.00798H50.8L57.448 24H53.248L52.312 21.36H45.088L44.128 24H39.952ZM46.312 17.832H51.088L48.736 11.256L46.312 17.832ZM64.5186 24.192C62.6146 24.192 61.1426 23.712 60.1026 22.752C59.0786 21.792 58.5666 20.344 58.5666 18.408V11.352H62.3826V18.12C62.3826 18.616 62.4466 19.064 62.5746 19.464C62.7186 19.848 62.9506 20.16 63.2706 20.4C63.5906 20.624 64.0066 20.736 64.5186 20.736C65.0946 20.736 65.5266 20.608 65.8146 20.352C66.1026 20.096 66.2866 19.768 66.3666 19.368C66.4626 18.952 66.5106 18.536 66.5106 18.12V11.352H70.3026V18.408C70.3026 20.44 69.7826 21.912 68.7426 22.824C67.7186 23.736 66.3106 24.192 64.5186 24.192ZM78.46 24.192C77.18 24.192 76.076 23.936 75.148 23.424C74.22 22.896 73.5 22.144 72.988 21.168C72.492 20.192 72.244 19.04 72.244 17.712C72.244 16.352 72.5 15.184 73.012 14.208C73.54 13.216 74.276 12.456 75.22 11.928C76.164 11.384 77.284 11.112 78.58 11.112C79.652 11.112 80.604 11.312 81.436 11.712C82.284 12.096 82.956 12.656 83.452 13.392C83.964 14.128 84.252 15.032 84.316 16.104H80.62C80.492 15.592 80.244 15.216 79.876 14.976C79.524 14.72 79.092 14.592 78.58 14.592C77.924 14.592 77.404 14.76 77.02 15.096C76.652 15.416 76.388 15.816 76.228 16.296C76.084 16.776 76.012 17.248 76.012 17.712C76.012 18.224 76.092 18.712 76.252 19.176C76.428 19.64 76.7 20.016 77.068 20.304C77.452 20.592 77.94 20.736 78.532 20.736C79.076 20.736 79.532 20.608 79.9 20.352C80.284 20.096 80.532 19.72 80.644 19.224H84.436C84.388 20.312 84.084 21.224 83.524 21.96C82.98 22.696 82.268 23.256 81.388 23.64C80.508 24.008 79.532 24.192 78.46 24.192ZM92.2223 24C91.1343 24 90.2143 23.88 89.4623 23.64C88.7103 23.384 88.1343 22.952 87.7343 22.344C87.3503 21.72 87.1583 20.848 87.1583 19.728V14.736H85.3343V11.352H87.1583V8.08798H90.9743V11.352H93.4943V14.736H90.9743V19.176C90.9743 19.592 91.0463 19.936 91.1903 20.208C91.3343 20.464 91.7023 20.592 92.2943 20.592H93.3743V24H92.2223ZM95.0599 24V11.352H98.8759V24H95.0599ZM96.9799 10.296C96.2759 10.296 95.7079 10.088 95.2759 9.67198C94.8599 9.25598 94.6519 8.71198 94.6519 8.03998C94.6519 7.35198 94.8759 6.79198 95.3239 6.35998C95.7719 5.92798 96.3319 5.71198 97.0039 5.71198C97.6439 5.71198 98.1879 5.91998 98.6359 6.33598C99.0839 6.75198 99.3079 7.31198 99.3079 8.01597C99.3079 8.70398 99.0919 9.25598 98.6599 9.67198C98.2279 10.088 97.6679 10.296 96.9799 10.296ZM107.366 24.192C106.102 24.192 104.974 23.936 103.982 23.424C103.006 22.912 102.238 22.176 101.678 21.216C101.118 20.24 100.838 19.072 100.838 17.712C100.838 16.32 101.118 15.136 101.678 14.16C102.254 13.168 103.03 12.416 104.006 11.904C104.982 11.376 106.086 11.112 107.318 11.112C108.566 11.112 109.67 11.384 110.63 11.928C111.59 12.456 112.35 13.216 112.91 14.208C113.47 15.184 113.75 16.368 113.75 17.76C113.75 19.12 113.478 20.28 112.934 21.24C112.406 22.2 111.662 22.936 110.702 23.448C109.742 23.944 108.63 24.192 107.366 24.192ZM107.294 20.664C107.966 20.664 108.502 20.52 108.902 20.232C109.302 19.944 109.582 19.576 109.742 19.128C109.918 18.68 110.006 18.216 110.006 17.736C110.006 17.256 109.918 16.776 109.742 16.296C109.582 15.816 109.302 15.424 108.902 15.12C108.518 14.8 107.982 14.64 107.294 14.64C106.622 14.64 106.086 14.8 105.686 15.12C105.286 15.424 104.998 15.816 104.822 16.296C104.646 16.76 104.558 17.24 104.558 17.736C104.558 18.216 104.646 18.688 104.822 19.152C105.014 19.6 105.302 19.968 105.686 20.256C106.086 20.528 106.622 20.664 107.294 20.664ZM115.708 24V11.352H119.236L119.452 12.648C119.82 12.232 120.228 11.912 120.676 11.688C121.14 11.464 121.596 11.312 122.044 11.232C122.508 11.152 122.908 11.112 123.244 11.112C124.444 11.112 125.38 11.384 126.052 11.928C126.74 12.456 127.228 13.168 127.516 14.064C127.804 14.96 127.948 15.944 127.948 17.016V24H124.156V17.424C124.156 17.088 124.124 16.76 124.06 16.44C123.996 16.104 123.884 15.8 123.724 15.528C123.58 15.24 123.372 15.016 123.1 14.856C122.828 14.68 122.476 14.592 122.044 14.592C121.484 14.592 121.012 14.728 120.628 15C120.244 15.272 119.964 15.64 119.788 16.104C119.612 16.552 119.524 17.056 119.524 17.616V24H115.708ZM130.333 24V11.352H134.149V24H130.333ZM132.253 10.296C131.549 10.296 130.981 10.088 130.549 9.67198C130.133 9.25598 129.925 8.71198 129.925 8.03998C129.925 7.35198 130.149 6.79198 130.597 6.35998C131.045 5.92798 131.605 5.71198 132.277 5.71198C132.917 5.71198 133.461 5.91998 133.909 6.33598C134.357 6.75198 134.581 7.31198 134.581 8.01597C134.581 8.70398 134.365 9.25598 133.933 9.67198C133.501 10.088 132.941 10.296 132.253 10.296ZM137.599 24V14.736H135.751V11.352H137.599V10.272C137.599 9.29598 137.759 8.49598 138.079 7.87198C138.399 7.24798 138.895 6.79198 139.567 6.50398C140.255 6.21598 141.111 6.07198 142.135 6.07198H144.439V9.45598H142.615C142.311 9.45598 142.071 9.50398 141.895 9.59998C141.719 9.67998 141.591 9.81598 141.511 10.008C141.447 10.184 141.415 10.408 141.415 10.68V11.352H144.439V14.736H141.415V24H137.599ZM151.559 29.904C150.583 29.904 149.623 29.776 148.679 29.52C147.751 29.264 146.863 28.848 146.015 28.272L147.215 25.2C147.695 25.552 148.247 25.832 148.871 26.04C149.511 26.248 150.239 26.352 151.055 26.352C152.255 26.352 153.159 26.096 153.767 25.584C154.375 25.072 154.679 24.288 154.679 23.232V22.848C154.407 23.184 154.071 23.448 153.671 23.64C153.271 23.832 152.855 23.968 152.423 24.048C151.991 24.144 151.559 24.192 151.127 24.192C149.911 24.192 148.935 23.936 148.199 23.424C147.463 22.912 146.927 22.208 146.591 21.312C146.255 20.416 146.087 19.408 146.087 18.288V11.352H149.855V17.544C149.855 17.896 149.879 18.256 149.927 18.624C149.975 18.992 150.079 19.344 150.239 19.68C150.399 20 150.639 20.264 150.959 20.472C151.295 20.664 151.727 20.76 152.255 20.76C152.975 20.76 153.503 20.584 153.839 20.232C154.175 19.88 154.391 19.448 154.487 18.936C154.583 18.408 154.631 17.88 154.631 17.352V11.352H158.447V21.576C158.447 22.808 158.343 23.928 158.135 24.936C157.927 25.96 157.567 26.84 157.055 27.576C156.543 28.312 155.839 28.88 154.943 29.28C154.047 29.696 152.919 29.904 151.559 29.904Z" fill="#2B5293"/>
</g>
<defs>
<clipPath id="clip0_4_837">
<rect width="160" height="32" fill="white"/>
</clipPath>
</defs>
</svg>
