<svg width="20" height="20" viewBox="0 0 20 20" fill="none" xmlns="http://www.w3.org/2000/svg">
<g id="Group">
<path id="Vector" d="M14.717 10.5115C14.675 9.98071 14.1964 9.67032 13.6898 9.78928C13.3803 9.86175 13.1512 9.78278 12.9257 9.55736C12.1102 8.74299 11.2952 7.92828 10.4807 7.11323C10.2832 6.9153 10.1571 6.72487 10.1726 6.46097C10.1816 6.31552 10.2547 6.13258 10.2201 5.96014C10.1181 5.44483 9.71255 5.19842 9.19594 5.31487C8.94923 5.37085 8.72652 5.31787 8.52781 5.15593C7.89919 4.64361 7.64113 3.82291 8.03421 3.09317C8.11823 2.93755 8.30477 2.71547 8.59382 2.4269C9.20561 1.81579 9.8174 1.20517 10.4292 0.595056C10.6306 0.39446 10.7998 0.257842 10.9368 0.185202C11.4619 -0.0921995 12.066 -0.0527137 12.5656 0.267672C12.9107 0.488593 13.2613 0.875955 13.1777 1.3158C13.1457 1.48407 13.1304 1.58537 13.1317 1.61969C13.1482 2.10502 13.5963 2.4374 14.0579 2.36692C14.2553 2.33693 14.367 2.32261 14.393 2.32394C14.586 2.33494 14.7514 2.40924 14.8891 2.54686C15.7349 3.39256 16.5804 4.23859 17.4256 5.08496C17.6303 5.28988 17.7096 5.52846 17.6636 5.8007C17.634 5.9783 17.6196 6.0806 17.6206 6.10759C17.6376 6.59792 18.0932 6.9263 18.5568 6.85183C18.7468 6.8215 18.8579 6.80734 18.8899 6.80934C19.1954 6.82933 19.4245 7.05175 19.6175 7.28017C20.0536 7.79549 20.1201 8.50374 19.8021 9.07403C19.7184 9.22431 19.5495 9.42574 19.2955 9.67832C18.7337 10.2358 18.1739 10.7951 17.6161 11.3562C17.3047 11.6694 17.0703 11.869 16.913 11.955C16.3744 12.2499 15.6882 12.1959 15.1896 11.8021C14.9541 11.6161 14.7045 11.3762 14.6675 11.0653C14.6455 10.8789 14.732 10.7015 14.717 10.5115Z" fill="white"/>
<path id="Vector_2" d="M0.942395 19.86C0.0792237 19.5121 -0.24234 18.4395 0.193746 17.6448C0.270095 17.5059 0.406455 17.3384 0.602828 17.1425C0.920558 16.8256 1.23779 16.5087 1.55452 16.1918C2.78126 14.9638 4.0055 14.1246 5.53981 13.0509C6.46899 12.4008 7.29232 11.6498 8.0098 10.7978C8.46539 10.2574 8.82996 9.62117 8.87697 8.89843C8.87831 8.88043 8.88547 8.86494 8.89848 8.85194L9.97469 7.77583C9.98936 7.76117 10.004 7.76117 10.0187 7.77583L12.2191 9.97504C12.2338 9.98971 12.2338 10.0044 12.2191 10.019L11.1449 11.0926C11.1329 11.1046 11.1184 11.1113 11.1014 11.1126C10.637 11.1473 10.2157 11.2849 9.83766 11.5255C8.60592 12.3092 7.56671 13.5223 6.72654 14.7503C5.88038 15.9879 5.20624 16.9641 4.22455 17.9927C3.65243 18.5921 3.14983 19.0993 2.71675 19.5141C2.19731 20.012 1.60586 20.1273 0.942395 19.86Z" fill="white"/>
</g>
</svg>
