<svg width="48" height="48" viewBox="0 0 48 48" fill="none" xmlns="http://www.w3.org/2000/svg">
<path fill-rule="evenodd" clip-rule="evenodd" d="M22.7574 14.7574C23.8826 13.6321 25.4087 13 27 13H30C30.5523 13 31 13.4477 31 14V18C31 18.5523 30.5523 19 30 19H27V21H30C30.3079 21 30.5987 21.1419 30.7882 21.3846C30.9777 21.6273 31.0448 21.9438 30.9701 22.2425L29.9701 26.2425C29.8589 26.6877 29.4589 27 29 27H27V34C27 34.5523 26.5523 35 26 35H22C21.4477 35 21 34.5523 21 34V27H19C18.4477 27 18 26.5523 18 26V22C18 21.4477 18.4477 21 19 21H21V19C21 17.4087 21.6321 15.8826 22.7574 14.7574ZM27 15C25.9391 15 24.9217 15.4214 24.1716 16.1716C23.4214 16.9217 23 17.9391 23 19V22C23 22.5523 22.5523 23 22 23H20V25H22C22.5523 25 23 25.4477 23 26V33H25V26C25 25.4477 25.4477 25 26 25H28.2192L28.7192 23H26C25.4477 23 25 22.5523 25 22V19C25 18.4696 25.2107 17.9609 25.5858 17.5858C25.9609 17.2107 26.4696 17 27 17H29V15H27Z" fill="#1D5FA6"/>
<rect x="4.75" y="4.75" width="38.5" height="38.5" rx="7.25" stroke="#1D5FA6" stroke-opacity="0.25" stroke-width="1.5"/>
</svg>
