<svg width="40" height="40" viewBox="0 0 40 40" fill="none" xmlns="http://www.w3.org/2000/svg">
<path d="M10 0C8.625 0 7.5 1.125 7.5 2.5V37.5C7.5 38.875 8.625 40 10 40H35C36.375 40 37.5 38.875 37.5 37.5V10L27.5 0H10Z" fill="#E2E5E7"/>
<path d="M30 10H37.5L27.5 0V7.5C27.5 8.875 28.625 10 30 10Z" fill="#B0B7BD"/>
<path d="M37.5 17.5L30 10H37.5V17.5Z" fill="#CAD1D8"/>
<path d="M31.25 33.75H7.5V35H31.25C31.9375 35 32.5 34.4375 32.5 33.75V32.5C32.5 33.1875 31.9375 33.75 31.25 33.75Z" fill="#CAD1D8"/>
<path d="M32.5 32.5C32.5 33.1875 31.9375 33.75 31.25 33.75H3.75C3.0625 33.75 2.5 33.1875 2.5 32.5V20C2.5 19.3125 3.0625 18.75 3.75 18.75H31.25C31.9375 18.75 32.5 19.3125 32.5 20V32.5Z" fill="#092660"/>
<path d="M7.16906 29C7.1024 29 7.0424 28.9767 6.98906 28.93C6.93573 28.8767 6.90906 28.8133 6.90906 28.74V22.26C6.90906 22.1867 6.93573 22.1267 6.98906 22.08C7.0424 22.0267 7.1024 22 7.16906 22H11.9891C12.0624 22 12.1257 22.0267 12.1791 22.08C12.2324 22.1267 12.2591 22.1867 12.2591 22.26V23.53C12.2591 23.5967 12.2324 23.6567 12.1791 23.71C12.1257 23.7633 12.0624 23.79 11.9891 23.79H9.01906V24.89H11.7891C11.8624 24.89 11.9257 24.9167 11.9791 24.97C12.0324 25.0167 12.0591 25.0767 12.0591 25.15V26.41C12.0591 26.4833 12.0324 26.5467 11.9791 26.6C11.9257 26.6467 11.8624 26.67 11.7891 26.67H9.01906V28.74C9.01906 28.8133 8.9924 28.8767 8.93906 28.93C8.8924 28.9767 8.8324 29 8.75906 29H7.16906ZM13.4874 29C13.4208 29 13.3608 28.9767 13.3074 28.93C13.2541 28.8767 13.2274 28.8133 13.2274 28.74V22.26C13.2274 22.1867 13.2541 22.1267 13.3074 22.08C13.3608 22.0267 13.4208 22 13.4874 22H15.1874C15.2608 22 15.3208 22.0267 15.3674 22.08C15.4208 22.1267 15.4474 22.1867 15.4474 22.26V28.74C15.4474 28.8133 15.4208 28.8767 15.3674 28.93C15.3208 28.9767 15.2608 29 15.1874 29H13.4874ZM16.9445 29C16.8778 29 16.8178 28.9767 16.7645 28.93C16.7111 28.8767 16.6845 28.8133 16.6845 28.74V22.26C16.6845 22.1867 16.7111 22.1267 16.7645 22.08C16.8178 22.0267 16.8778 22 16.9445 22H18.6045C18.6778 22 18.7411 22.0267 18.7945 22.08C18.8478 22.1267 18.8745 22.1867 18.8745 22.26V27.22H21.7645C21.8378 27.22 21.9011 27.2467 21.9545 27.3C22.0078 27.3467 22.0345 27.4067 22.0345 27.48V28.74C22.0345 28.8133 22.0078 28.8767 21.9545 28.93C21.9011 28.9767 21.8378 29 21.7645 29H16.9445ZM23.0577 29C22.9911 29 22.9311 28.9767 22.8777 28.93C22.8244 28.8767 22.7977 28.8133 22.7977 28.74V22.26C22.7977 22.1867 22.8244 22.1267 22.8777 22.08C22.9311 22.0267 22.9911 22 23.0577 22H27.9577C28.0311 22 28.0944 22.0267 28.1477 22.08C28.2011 22.1267 28.2277 22.1867 28.2277 22.26V23.44C28.2277 23.5067 28.2011 23.5667 28.1477 23.62C28.0944 23.6733 28.0311 23.7 27.9577 23.7H24.8677V24.69H27.7377C27.8111 24.69 27.8744 24.7167 27.9277 24.77C27.9811 24.8167 28.0077 24.8767 28.0077 24.95V26.03C28.0077 26.1033 27.9811 26.1667 27.9277 26.22C27.8744 26.2667 27.8111 26.29 27.7377 26.29H24.8677V27.3H28.0377C28.1111 27.3 28.1744 27.3267 28.2277 27.38C28.2811 27.4333 28.3077 27.4967 28.3077 27.57V28.74C28.3077 28.8133 28.2811 28.8767 28.2277 28.93C28.1744 28.9767 28.1111 29 28.0377 29H23.0577Z" fill="white"/>
</svg>
