<svg width="128" height="128" viewBox="0 0 128 128" fill="none" xmlns="http://www.w3.org/2000/svg">
<path d="M31.1682 52.8018L31.1134 52.7947C31.0839 52.7906 31.0577 52.7797 31.0347 52.762L11.6252 37.722C23.2964 14.5503 48.3916 1.89882 74.0049 6.14987C85.0007 7.9744 95.0276 12.9892 103.173 20.5711C103.227 20.6212 103.228 20.6722 103.176 20.724L86.491 37.41C86.4663 37.4347 86.4412 37.4353 86.4159 37.4118C81.0024 32.3701 74.6063 29.5125 67.2274 28.8389C51.0152 27.3592 36.3483 37.5417 31.1682 52.8018Z" fill="#FE2B25"/>
<path d="M31.1381 75.162C35.7357 88.8354 48.2396 98.8411 62.7819 99.3326C70.2055 99.5836 77.5699 97.8404 83.7878 93.7052L102.837 108.469C91.794 118.602 77.2862 123.018 62.4583 122.633C40.838 122.073 21.3985 109.65 11.6393 90.3602C11.6323 90.3467 11.6281 90.3307 11.627 90.3125C11.6252 90.2924 11.622 90.2765 11.6172 90.2647C11.7145 90.2164 11.8291 90.141 11.9611 90.0385C18.339 85.0643 24.6913 80.053 31.1381 75.162Z" fill="#00AB47"/>
<path d="M102.837 108.468L83.7878 93.7052C89.9527 89.5752 94.1498 83.4183 95.5492 76.1043C95.5545 76.0783 95.5436 76.0654 95.5165 76.0654L64.0663 76.0671C64.0487 76.0671 64.0319 76.0601 64.0194 76.0475C64.007 76.0349 64 76.0178 64 76V53.3701C64 53.3584 64.0047 53.3472 64.0129 53.3389C64.0212 53.3306 64.0325 53.3259 64.0442 53.3259H119.184C119.229 53.3259 119.255 53.348 119.263 53.3922C120.433 60.0686 120.627 66.7795 119.844 73.5248C118.291 86.8897 112.758 99.2486 102.837 108.468Z" fill="#1F87FC"/>
<path d="M11.6252 37.722L31.0347 52.762C31.0577 52.7797 31.0839 52.7906 31.1134 52.7948L31.1682 52.8018C29.2155 58.6193 28.7381 64.7408 29.9686 70.7404C30.2633 72.1754 30.6531 73.6493 31.1381 75.162C24.6913 80.0531 18.339 85.0644 11.9611 90.0385C11.8291 90.141 11.7145 90.2165 11.6172 90.2648C3.26541 73.6823 3.24685 54.3028 11.6252 37.722Z" fill="#FFB900"/>
</svg>
