<svg width="48" height="48" viewBox="0 0 48 48" fill="none" xmlns="http://www.w3.org/2000/svg">
<path fill-rule="evenodd" clip-rule="evenodd" d="M19 15C16.7909 15 15 16.7909 15 19V29C15 31.2091 16.7909 33 19 33H29C31.2091 33 33 31.2091 33 29V19C33 16.7909 31.2091 15 29 15H19ZM13 19C13 15.6863 15.6863 13 19 13H29C32.3137 13 35 15.6863 35 19V29C35 32.3137 32.3137 35 29 35H19C15.6863 35 13 32.3137 13 29V19Z" fill="#1D5FA6"/>
<path fill-rule="evenodd" clip-rule="evenodd" d="M24.4833 20.9892C23.8591 20.8967 23.2217 21.0033 22.6616 21.2939C22.1015 21.5845 21.6473 22.0444 21.3636 22.608C21.0799 23.1717 20.9811 23.8104 21.0814 24.4334C21.1816 25.0564 21.4758 25.6319 21.922 26.0781C22.3682 26.5243 22.9437 26.8184 23.5667 26.9187C24.1897 27.0189 24.8284 26.9202 25.392 26.6365C25.9557 26.3528 26.4155 25.8986 26.7061 25.3385C26.9968 24.7784 27.1034 24.1409 27.0108 23.5167C26.9164 22.88 26.6197 22.2906 26.1646 21.8355C25.7095 21.3803 25.12 21.0837 24.4833 20.9892ZM21.7404 19.5187C22.6739 19.0343 23.7364 18.8566 24.7767 19.0109C25.8379 19.1682 26.8203 19.6627 27.5788 20.4213C28.3374 21.1798 28.8318 22.1622 28.9892 23.2234C29.1435 24.2637 28.9658 25.3261 28.4814 26.2596C27.997 27.1931 27.2306 27.9501 26.2912 28.423C25.3518 28.8958 24.2873 29.0604 23.2489 28.8933C22.2106 28.7262 21.2514 28.236 20.5077 27.4923C19.7641 26.7487 19.2739 25.7895 19.1068 24.7511C18.9397 23.7128 19.1043 22.6482 19.5771 21.7088C20.0499 20.7694 20.8069 20.0031 21.7404 19.5187Z" fill="#1D5FA6"/>
<rect x="4.75" y="4.75" width="38.5" height="38.5" rx="7.25" stroke="#1D5FA6" stroke-opacity="0.25" stroke-width="1.5"/>
</svg>
