<svg width="24" height="24" viewBox="0 0 24 24" fill="none" xmlns="http://www.w3.org/2000/svg">
  <g id="log-out-03">
    <path id="Icon"
      d="M16 17L21 12M21 12L16 7M21 12H9M12 17C12 17.2956 12 17.4434 11.989 17.5714C11.8748 18.902 10.8949 19.9968 9.58503 20.2573C9.45903 20.2823 9.31202 20.2987 9.01835 20.3313L7.99694 20.4448C6.46248 20.6153 5.69521 20.7005 5.08566 20.5055C4.27293 20.2454 3.60942 19.6515 3.26118 18.8725C3 18.2882 3 17.5162 3 15.9723V8.0277C3 6.48377 3 5.7118 3.26118 5.12752C3.60942 4.34848 4.27293 3.7546 5.08566 3.49453C5.69521 3.29947 6.46246 3.38472 7.99694 3.55522L9.01835 3.66871C9.31212 3.70135 9.45901 3.71767 9.58503 3.74273C10.8949 4.00316 11.8748 5.09804 11.989 6.42861C12 6.55663 12 6.70442 12 7"
      stroke="#AB2D25" stroke-width="2" stroke-linecap="round" stroke-linejoin="round" />
  </g>
</svg>