<?xml version="1.0" standalone="no"?>
<!DOCTYPE svg PUBLIC "-//W3C//DTD SVG 20010904//EN"
 "http://www.w3.org/TR/2001/REC-SVG-20010904/DTD/svg10.dtd">
<svg version="1.0" xmlns="http://www.w3.org/2000/svg"
 width="433.000000pt" height="389.000000pt" viewBox="0 0 433.000000 389.000000"
 preserveAspectRatio="xMidYMid meet">

<g transform="translate(0.000000,389.000000) scale(0.100000,-0.100000)"
fill="#000000" stroke="none">
<path d="M1867 2713 c-4 -3 -7 -55 -7 -115 l0 -108 -54 0 c-95 0 -86 48 -86
-481 l0 -469 398 2 397 3 3 113 3 112 54 0 c94 0 85 -48 85 481 l0 469 -393 0
c-217 0 -397 -3 -400 -7z m751 -465 l-3 -423 -352 -3 -353 -2 0 425 0 425 355
0 355 0 -2 -422z m-758 -137 c0 -291 2 -330 16 -335 9 -3 146 -6 305 -6 l289
0 0 -90 0 -90 -355 0 -355 0 0 418 c0 230 3 422 7 425 3 4 26 7 50 7 l43 0 0
-329z"/>
<path d="M1962 2618 c-14 -14 -17 -574 -4 -596 7 -9 75 -12 308 -10 l299 3 0
305 0 305 -295 3 c-222 2 -299 -1 -308 -10z m558 -175 l0 -137 -70 69 -70 70
-95 -95 -95 -94 -43 42 c-23 23 -47 42 -53 42 -6 0 -25 -16 -44 -35 -19 -19
-38 -35 -42 -35 -4 0 -8 70 -8 155 l0 155 260 0 260 0 0 -137z m0 -295 l0 -88
-260 0 -260 0 0 68 c0 67 1 69 43 110 23 23 47 42 52 42 5 0 29 -19 52 -42
l43 -43 93 93 92 92 72 -72 73 -72 0 -88z"/>
</g>
</svg>
