<svg width="20" height="21" viewBox="0 0 20 21" fill="none" xmlns="http://www.w3.org/2000/svg">
<path d="M9 2H5.8C4.11984 2 3.27976 2 2.63803 2.32698C2.07354 2.6146 1.6146 3.07354 1.32698 3.63803C1 4.27976 1 5.11984 1 6.8V12C1 12.93 1 13.395 1.10222 13.7765C1.37962 14.8117 2.18827 15.6204 3.22354 15.8978C3.60504 16 4.07003 16 5 16V18.3355C5 18.8684 5 19.1348 5.10923 19.2716C5.20422 19.3906 5.34827 19.4599 5.50054 19.4597C5.67563 19.4595 5.88367 19.2931 6.29976 18.9602L8.68521 17.0518C9.17252 16.662 9.41617 16.4671 9.68749 16.3285C9.9282 16.2055 10.1844 16.1156 10.4492 16.0613C10.7477 16 11.0597 16 11.6837 16H13.2C14.8802 16 15.7202 16 16.362 15.673C16.9265 15.3854 17.3854 14.9265 17.673 14.362C18 13.7202 18 12.8802 18 11.2V11M18.1213 1.87868C19.2929 3.05025 19.2929 4.94975 18.1213 6.12132C16.9497 7.29289 15.0503 7.29289 13.8787 6.12132C12.7071 4.94975 12.7071 3.05025 13.8787 1.87868C15.0503 0.707107 16.9497 0.707107 18.1213 1.87868Z" stroke="#242424" stroke-width="2" stroke-linecap="round" stroke-linejoin="round"/>
</svg>
