<svg width="48" height="48" viewBox="0 0 48 48" fill="none" xmlns="http://www.w3.org/2000/svg">
<path d="M23.6968 26.7421L23.1549 27.5825C23.7725 27.9807 24.2634 28.3082 24.765 28.6427L24.7719 28.6472C25.276 28.9834 25.791 29.3268 26.4477 29.7505C26.5971 29.8471 26.7377 29.9452 26.8904 30.0518C26.9302 30.0795 26.9707 30.1077 27.0124 30.1367C27.205 30.2705 27.4214 30.4179 27.6489 30.548C28.1105 30.8119 28.6956 31.0507 29.407 30.9907L29.4211 30.9895L29.4352 30.9879C30.5002 30.8676 31.079 29.901 31.3094 28.6928L31.3094 28.6926C31.796 26.138 32.7645 20.5451 32.9911 18.2095L32.9922 18.1976L32.9931 18.1857C33.0048 18.025 32.9988 17.8593 32.9953 17.7648L32.9951 17.7585L32.9946 17.7462C32.9934 17.7126 32.9925 17.6889 32.992 17.6701L33.0065 17.5848L32.9877 17.437C32.9575 17.2009 32.8507 16.7391 32.4132 16.3921C32.1633 16.1911 31.8898 16.1021 31.7088 16.0593C31.5167 16.0139 31.339 16 31.2131 16C30.7472 16 30.2561 16.1268 29.4535 16.4118C28.6342 16.7027 27.3761 17.2031 25.3288 18.0392C23.8861 18.6216 21.0149 19.8386 16.7159 21.6688C16.3429 21.817 15.9933 21.9851 15.7153 22.1858C15.4661 22.3657 15.0741 22.7149 15.0099 23.2743C14.9633 23.6778 15.083 24.0505 15.3227 24.3436C15.5317 24.5991 15.7973 24.7526 15.997 24.8485C16.304 24.9959 16.7141 25.1197 17.0689 25.2268C17.1475 25.2505 17.2235 25.2734 17.2949 25.2956C17.6875 25.4235 18.1484 25.5601 18.587 25.6679C19.0063 25.771 19.477 25.8662 19.8564 25.877C20.6276 25.9006 21.3678 25.5732 22.0325 25.134C22.0598 25.1161 22.0869 25.0981 22.114 25.0803C22.1035 25.1013 22.0934 25.1226 22.0837 25.1442C21.8898 25.5746 21.8663 26.0821 22.1308 26.5764C22.3545 26.9943 22.7399 27.3158 23.1562 27.5833L23.6968 26.7421ZM23.6968 26.7421C22.4321 25.9292 22.9689 25.4302 23.6817 24.7675C23.7928 24.6642 23.9082 24.5569 24.0217 24.4439C24.0673 24.3992 24.2636 24.2211 24.5474 23.9637C25.0204 23.5346 25.7365 22.8851 26.4019 22.2663L29.323 29.9942C28.6383 30.052 28.0858 29.6665 27.4693 29.2363C27.3145 29.1283 27.1557 29.0175 26.9898 28.9102C26.3364 28.4886 25.8248 28.1475 25.3181 27.8096C24.8171 27.4754 24.3209 27.1445 23.6968 26.7421Z" stroke="#1D5FA6" stroke-width="2"/>
<rect x="4.75" y="4.75" width="38.5" height="38.5" rx="7.25" stroke="#1D5FA6" stroke-opacity="0.25" stroke-width="1.5"/>
</svg>
