<svg width="30" height="30" viewBox="0 0 30 30" fill="none" xmlns="http://www.w3.org/2000/svg">
<path d="M7.66699 16.3332L8.71294 18.4251C9.06692 19.133 9.24392 19.487 9.48037 19.7938C9.69018 20.066 9.9342 20.31 10.2064 20.5198C10.5131 20.7562 10.8671 20.9332 11.5751 21.2872L13.667 22.3332L11.5751 23.3791C10.8671 23.7331 10.5131 23.9101 10.2064 24.1465C9.9342 24.3564 9.69018 24.6004 9.48037 24.8726C9.24392 25.1793 9.06692 25.5333 8.71294 26.2413L7.66699 28.3332L6.62105 26.2413C6.26706 25.5333 6.09007 25.1793 5.85362 24.8726C5.6438 24.6004 5.39978 24.3564 5.12759 24.1465C4.82084 23.9101 4.46685 23.7331 3.75888 23.3791L1.66699 22.3332L3.75888 21.2872C4.46685 20.9332 4.82084 20.7562 5.12759 20.5198C5.39978 20.31 5.6438 20.066 5.85362 19.7938C6.09007 19.487 6.26706 19.133 6.62105 18.4251L7.66699 16.3332Z" stroke="#2B5293" stroke-width="2.66667" stroke-linecap="round" stroke-linejoin="round"/>
<path d="M19.0003 1.6665L20.5718 5.7524C20.9478 6.73004 21.1358 7.21885 21.4282 7.63003C21.6873 7.99444 22.0057 8.31283 22.3701 8.57195C22.7813 8.86432 23.2701 9.05233 24.2478 9.42834L28.3337 10.9998L24.2478 12.5713C23.2701 12.9473 22.7813 13.1354 22.3701 13.4277C22.0057 13.6868 21.6873 14.0052 21.4282 14.3696C21.1358 14.7808 20.9478 15.2696 20.5718 16.2473L19.0003 20.3332L17.4288 16.2473C17.0528 15.2696 16.8648 14.7808 16.5724 14.3696C16.3133 14.0052 15.9949 13.6868 15.6305 13.4277C15.2193 13.1354 14.7305 12.9473 13.7529 12.5713L9.66699 10.9998L13.7529 9.42834C14.7305 9.05233 15.2193 8.86432 15.6305 8.57195C15.9949 8.31283 16.3133 7.99444 16.5724 7.63003C16.8648 7.21885 17.0528 6.73003 17.4288 5.75239L19.0003 1.6665Z" stroke="#2B5293" stroke-width="2.66667" stroke-linecap="round" stroke-linejoin="round"/>
</svg>
