<svg width="54" height="48" viewBox="0 0 54 48" fill="none" xmlns="http://www.w3.org/2000/svg">
<path d="M26.9993 18V27.3333M26.9993 36.6666H27.0226M23.7683 6.08065L4.57694 39.2294C3.51246 41.0681 2.98022 41.9874 3.05889 42.7419C3.1275 43.4 3.4723 43.9981 4.00747 44.3872C4.62103 44.8333 5.68331 44.8333 7.80787 44.8333H46.1907C48.3152 44.8333 49.3775 44.8333 49.9911 44.3872C50.5262 43.9981 50.871 43.4 50.9396 42.7419C51.0183 41.9874 50.4861 41.0681 49.4216 39.2294L30.2302 6.08064C29.1695 4.24859 28.6392 3.33257 27.9473 3.02491C27.3438 2.75655 26.6548 2.75655 26.0512 3.02491C25.3593 3.33257 24.829 4.2486 23.7683 6.08065Z" stroke="#2B5293" stroke-width="4.66667" stroke-linecap="round" stroke-linejoin="round"/>
</svg>
